<svg xmlns="http://www.w3.org/2000/svg" width="600" height="600" viewBox="0 0 600 600" version="1.1"><path d="M 0 300.002 L 0 600.003 300.250 599.752 L 600.500 599.500 600.752 299.750 L 601.003 0 300.502 0 L 0 0 0 300.002 M 0.493 300.500 C 0.493 465.500, 0.609 532.851, 0.750 450.169 C 0.891 367.487, 0.891 232.487, 0.750 150.169 C 0.609 67.851, 0.493 135.500, 0.493 300.500 M 91.843 148.374 C 72.914 156.160, 61.944 180.007, 67.492 201.307 C 74.027 226.396, 97.654 238.315, 119.300 227.443 C 125.447 224.356, 126.813 224.378, 128.031 227.581 C 128.571 229.001, 129.572 229.977, 130.256 229.749 C 131.152 229.452, 131.578 225.372, 131.777 215.168 C 132.039 201.819, 131.945 201, 130.155 201 C 128.706 201, 128.101 201.968, 127.603 205.083 C 124.938 221.747, 107.255 233.274, 95.898 225.749 C 88.975 221.162, 86.050 210.271, 86.027 189 C 85.996 159.160, 93.749 145.893, 108.845 149.958 C 116.565 152.037, 125.693 163.214, 127.646 172.980 C 128.064 175.071, 128.836 176, 130.153 176 C 131.945 176, 132.040 175.198, 131.778 162.262 C 131.532 150.103, 131.299 148.486, 129.750 148.189 C 128.709 147.989, 128 148.464, 128 149.359 C 128 152.189, 124.259 152.082, 116.583 149.033 C 107.019 145.234, 99.937 145.045, 91.843 148.374 M 431.500 156.155 C 426.596 158.837, 425.583 163.929, 429.073 168.365 C 430.671 170.398, 432.027 171, 435 171 C 437.973 171, 439.329 170.398, 440.927 168.365 C 443.799 164.714, 443.527 161.374, 440.077 157.923 C 436.981 154.828, 434.763 154.370, 431.500 156.155 M 229.230 178.499 C 227.432 179.281, 224.619 181.388, 222.980 183.183 L 220 186.446 220 182.691 L 220 178.937 208.250 179.218 C 198.597 179.450, 196.500 179.768, 196.500 181 C 196.500 182.011, 197.721 182.601, 200.250 182.810 L 204 183.121 204 204.500 L 204 225.879 200.250 226.190 C 197.721 226.399, 196.500 226.989, 196.500 228 C 196.500 229.265, 199.205 229.543, 213.750 229.774 C 230.491 230.039, 231 229.987, 231 228.024 C 231 226.262, 230.353 226, 226 226 L 221 226 221.022 209.750 C 221.045 192.751, 222.108 187.631, 226.342 184.128 C 227.830 182.896, 228 183.103, 228 186.155 C 228 192.865, 233.245 196.178, 239.640 193.506 C 241.802 192.603, 243.136 191.117, 243.921 188.741 C 246.782 180.069, 238.655 174.403, 229.230 178.499 M 282.137 178.310 C 280.287 179.012, 277.025 181.055, 274.887 182.850 L 271 186.113 271 182.556 L 271 179 259 179 C 249 179, 247 179.250, 247 180.500 C 247 181.583, 248.111 182, 251 182 L 255 182 255 204 L 255 226 251 226 C 247.650 226, 247 226.329, 247 228.026 C 247 229.984, 247.510 230.043, 262.250 229.776 C 275.016 229.545, 277.500 229.256, 277.500 228 C 277.500 227.039, 276.333 226.387, 274.250 226.187 L 271 225.873 271 210.397 C 271 197.151, 271.274 194.386, 272.903 191.210 C 276.653 183.898, 282.321 180.670, 286.549 183.440 L 289 185.046 289 205.523 L 289 226 286 226 C 283.667 226, 283 226.444, 283 228 C 283 229.911, 283.667 230, 298 230 C 312.333 230, 313 229.911, 313 228 C 313 226.333, 312.333 226, 309 226 L 305 226 304.998 207.250 C 304.997 186.799, 304.314 183.703, 298.941 179.769 C 295.699 177.394, 286.625 176.607, 282.137 178.310 M 151.421 179.896 C 143.719 183.394, 140.666 190.666, 145.055 195.055 C 148.091 198.091, 154.910 197.443, 156.872 193.931 C 158.862 190.370, 157.649 186.211, 154.222 184.842 L 151.500 183.755 154.500 182.422 C 159.030 180.411, 166.340 180.645, 169.114 182.891 C 171.109 184.507, 171.506 185.884, 171.831 192.326 L 172.212 199.870 168.856 200.348 C 167.010 200.612, 162.110 201.249, 157.967 201.764 C 148.797 202.904, 143.378 205.332, 140.886 209.420 C 138.735 212.947, 138.448 219.351, 140.279 222.970 C 144.390 231.095, 159.629 233.456, 168.611 227.360 L 172.250 224.891 174.221 227.007 C 179.915 233.119, 190.892 231.977, 194.555 224.893 C 196.158 221.793, 195.919 219, 194.050 219 C 193.494 219, 192.760 220.107, 192.421 221.459 C 192.081 222.811, 191.233 224.392, 190.535 224.971 C 187.842 227.206, 187.131 223.443, 186.816 205.290 L 186.500 187.126 183.606 184.108 C 182.014 182.448, 178.672 180.395, 176.178 179.545 C 169.728 177.347, 156.624 177.533, 151.421 179.896 M 328.419 179.897 C 318.730 184.298, 312.409 195.431, 313.272 206.577 C 314.462 221.965, 326.139 232.081, 341.139 230.721 C 351.298 229.800, 359.210 223.219, 361.540 213.750 C 362.587 209.495, 359.424 210.186, 357.992 214.525 C 355.514 222.032, 349.139 227, 341.984 227 C 333.531 227, 331 223.210, 331 210.550 L 331 202 346.500 202 C 363.787 202, 363.085 202.353, 360.824 194.807 C 359.286 189.672, 352.626 182.190, 347.539 179.878 C 342.275 177.488, 333.706 177.496, 328.419 179.897 M 377 179.954 C 375.075 180.981, 372.150 183.240, 370.500 184.976 C 367.809 187.806, 367.500 188.790, 367.500 194.517 C 367.500 200.552, 367.707 201.116, 371.265 204.759 L 375.030 208.615 371.560 210.270 C 366.835 212.523, 364.651 217.018, 365.250 223.255 C 365.588 226.765, 366.447 228.901, 368.244 230.698 L 370.764 233.218 366.996 236.623 C 362.254 240.907, 361.526 244.236, 364.134 249.711 C 365.737 253.075, 367.283 254.482, 371.820 256.711 C 376.599 259.057, 378.770 259.500, 385.500 259.500 C 392.517 259.500, 394.166 259.131, 398.923 256.500 C 401.905 254.850, 405.575 251.804, 407.078 249.732 C 412.466 242.298, 413.283 230.172, 408.781 224.449 C 405.240 219.947, 401.395 219, 386.655 219 C 372.163 219, 369.745 218.214, 371.892 214.201 C 373.582 211.044, 378.118 209.685, 382.777 210.940 C 390.508 213.022, 401.132 209.112, 405.005 202.759 C 407.391 198.847, 407.621 191.715, 405.494 187.636 C 403.545 183.899, 403.604 183.282, 406.032 181.983 C 407.855 181.007, 408.004 181.137, 407.476 183.241 C 406.220 188.245, 413.684 190.904, 416.598 186.491 C 418.598 183.462, 416.373 179.730, 411.905 178.618 C 409.205 177.946, 407.484 178.151, 404.686 179.479 C 401.270 181.100, 400.729 181.109, 396.986 179.611 C 391.471 177.404, 381.461 177.576, 377 179.954 M 466.419 179.897 C 456.730 184.298, 450.409 195.431, 451.272 206.577 C 452.462 221.965, 464.139 232.081, 479.139 230.721 C 489.298 229.800, 497.210 223.219, 499.540 213.750 C 500.587 209.495, 497.424 210.186, 495.992 214.525 C 493.514 222.032, 487.139 227, 479.984 227 C 471.531 227, 469 223.210, 469 210.550 L 469 202 484.500 202 C 501.787 202, 501.085 202.353, 498.824 194.807 C 497.286 189.672, 490.626 182.190, 485.539 179.878 C 480.275 177.488, 471.706 177.496, 466.419 179.897 M 421 181 C 421 182.556, 421.667 183, 424 183 L 427 183 427 204.500 L 427 226 423 226 C 419.650 226, 419 226.329, 419 228.025 C 419 229.985, 419.510 230.042, 434.737 229.775 C 448.802 229.529, 450.510 229.314, 450.811 227.750 C 451.086 226.315, 450.414 226, 447.073 226 L 443 226 443 202.500 L 443 179 432 179 C 421.667 179, 421 179.121, 421 181 M 333 183 C 331.410 184.590, 331 186.333, 331 191.500 L 331 198 338 198 L 345 198 344.976 194.750 C 344.938 189.500, 343.244 183.651, 341.364 182.277 C 338.811 180.410, 335.285 180.715, 333 183 M 382.567 182.926 C 380.248 185.488, 379.312 196.781, 380.924 202.740 C 381.789 205.935, 382.679 207.132, 384.536 207.598 C 388.687 208.640, 391.703 207.291, 392.900 203.857 C 394.387 199.593, 394.268 187.092, 392.712 184 C 391.012 180.623, 385.208 180.008, 382.567 182.926 M 471 183 C 469.410 184.590, 469 186.333, 469 191.500 L 469 198 476 198 C 482.980 198, 483 197.992, 482.956 195.250 C 482.870 189.814, 481.165 183.594, 479.408 182.309 C 476.815 180.413, 473.298 180.702, 471 183 M 161.772 204.714 C 157.544 205.357, 154.997 209.377, 155.015 215.385 C 155.033 221.674, 156.655 225.062, 160.215 226.243 C 166.951 228.477, 171.996 221.844, 171.998 210.750 L 172 204 168.250 204.150 C 166.188 204.232, 163.272 204.486, 161.772 204.714 M 372.184 237.886 C 367.583 246.072, 370.666 253.322, 379.927 256.096 C 387.960 258.503, 400.042 254.258, 404.099 247.605 C 406.674 243.383, 406.655 236.421, 404.066 235.035 C 402.999 234.464, 395.906 234, 388.250 234 L 374.368 234 372.184 237.886 M 66 250 C 66 251.667, 66.667 252, 70 252 L 74 252 73.985 285.750 C 73.969 322.458, 73.730 324.236, 68.727 324.816 C 66.807 325.039, 66 325.705, 66 327.066 C 66 328.849, 66.781 329, 76 329 C 85.224 329, 86 328.850, 86 327.063 C 86 325.613, 85.190 325.048, 82.773 324.813 C 77.193 324.272, 77.028 323.152, 77.045 286 C 77.054 267.544, 77.436 253.174, 77.896 254 C 78.355 254.825, 84.529 272.037, 91.615 292.248 C 101.426 320.229, 104.888 328.997, 106.127 328.998 C 107.326 329, 109.150 324.992, 113.069 313.750 C 115.992 305.363, 121.875 288.600, 126.141 276.500 L 133.898 254.500 133.949 289.750 L 134 325 130.500 325 C 127.667 325, 127 325.381, 127 327 C 127 328.917, 127.667 329, 143.073 329 C 157.841 329, 159.120 328.858, 158.815 327.250 C 158.583 326.027, 157.357 325.407, 154.742 325.190 L 151 324.879 151 288.500 L 151 252.121 154.750 251.810 C 157.279 251.601, 158.500 251.011, 158.500 250 C 158.500 248.757, 156.251 248.452, 145.369 248.222 L 132.238 247.944 127.043 262.722 C 124.186 270.850, 120.020 282.815, 117.785 289.311 C 115.550 295.807, 113.390 300.757, 112.986 300.311 C 112.581 299.865, 110.106 292.975, 107.486 285 C 104.865 277.025, 100.938 265.438, 98.757 259.250 L 94.792 248 80.396 248 C 66.667 248, 66 248.093, 66 250 M 208.185 249.750 C 208.417 250.973, 209.643 251.593, 212.258 251.810 L 216 252.121 216 288.500 L 216 324.879 212.258 325.190 C 209.643 325.407, 208.417 326.027, 208.185 327.250 C 207.880 328.858, 209.159 329, 223.927 329 C 239.333 329, 240 328.917, 240 327 C 240 325.333, 239.333 325, 236 325 L 232 325 232 286.500 L 232 248 219.927 248 C 208.969 248, 207.884 248.162, 208.185 249.750 M 242 250 C 242 251.667, 242.667 252, 246 252 L 250 252 250 288.500 L 250 325 246 325 C 242.667 325, 242 325.333, 242 327 C 242 328.917, 242.667 329, 258.073 329 C 272.841 329, 274.120 328.858, 273.815 327.250 C 273.583 326.027, 272.357 325.407, 269.742 325.190 L 266 324.879 266 286.440 L 266 248 254 248 C 242.667 248, 242 248.111, 242 250 M 365.718 277.145 C 360.842 278.224, 357.003 280.232, 354.498 283.012 L 352.500 285.230 352 281.865 L 351.500 278.500 339.500 278.500 C 329.500 278.500, 327.500 278.750, 327.500 280 C 327.500 281.011, 328.721 281.601, 331.250 281.810 L 335 282.121 335 303.500 L 335 324.879 331.258 325.190 C 328.643 325.407, 327.417 326.027, 327.185 327.250 C 326.881 328.856, 328.135 329, 342.427 329 C 357.333 329, 358 328.914, 358 327 C 358 325.444, 357.333 325, 355 325 L 352 325 352 309.460 C 352 295.967, 352.260 293.411, 353.972 290.055 C 356.587 284.928, 360.473 282, 364.660 282 C 367.378 282, 368.243 282.508, 369.025 284.565 C 369.561 285.976, 370 295.622, 370 306.002 L 370 324.873 366.758 325.187 C 364.623 325.393, 363.403 326.097, 363.185 327.250 C 362.881 328.856, 364.135 329, 378.427 329 C 393.333 329, 394 328.914, 394 327 C 394 325.333, 393.333 325, 390 325 L 386 325 386 307.020 C 386 292.867, 385.659 288.189, 384.399 285.039 C 381.789 278.516, 374.136 275.282, 365.718 277.145 M 174.500 279.383 C 164.714 284.009, 159.512 292.774, 159.590 304.500 C 159.693 319.841, 169.943 330.031, 185.218 329.978 C 196.068 329.940, 203.276 325.043, 207.032 315.157 C 208.865 310.333, 208.879 310.001, 207.246 310.017 C 206.091 310.028, 204.691 311.903, 203.110 315.555 C 199.356 324.226, 192.496 328.080, 184.666 325.918 C 178.836 324.309, 177.008 320.452, 177.004 309.750 L 177 301 192.500 301 C 209.787 301, 209.085 301.353, 206.824 293.807 C 205.280 288.654, 199.062 281.692, 193.673 279.084 C 187.858 276.269, 180.856 276.378, 174.500 279.383 M 290.054 278.728 C 283.590 281.010, 276.538 288.450, 274.575 295.059 C 272.481 302.111, 272.589 306.827, 274.994 313.253 C 281.870 331.632, 307.778 336.098, 321.194 321.217 C 330.457 310.941, 329.989 294.894, 320.140 285.044 C 312.515 277.420, 300.753 274.950, 290.054 278.728 M 178.557 283.223 C 177.549 284.661, 177 287.659, 177 291.723 L 177 298 184 298 L 191 298 191 292.968 C 191 290.200, 190.348 286.375, 189.551 284.468 C 188.240 281.331, 187.720 281, 184.108 281 C 181.114 281, 179.724 281.557, 178.557 283.223 M 293.924 283.580 C 291.552 286.104, 291.500 286.532, 291.500 303.372 C 291.500 318.052, 291.756 320.976, 293.242 323.246 C 295.413 326.561, 300.664 327.750, 304.665 325.832 C 309.201 323.658, 310.211 318.867, 309.830 301.330 C 309.516 286.876, 309.386 286.039, 307.076 283.580 C 303.669 279.954, 297.332 279.954, 293.924 283.580 M 66 347 C 66 348.667, 66.667 349, 70 349 L 74 349 74 376.318 C 74 407.838, 74.607 411.449, 81.090 418.482 C 88.231 426.229, 100.451 429.462, 113.376 427.023 C 121.896 425.416, 128.044 421.484, 131.662 415.328 L 134.500 410.500 135 380.799 C 135.300 363.002, 135.901 350.708, 136.500 350.126 C 137.050 349.591, 138.850 349.007, 140.500 348.827 C 142.355 348.625, 143.500 347.927, 143.500 347 C 143.500 345.782, 141.558 345.446, 133.170 345.214 C 123.708 344.952, 122.868 345.078, 123.180 346.714 C 123.374 347.731, 124.593 348.649, 126.010 348.846 C 131.026 349.542, 131.001 349.390, 130.990 379.372 C 130.981 406.955, 130.934 407.600, 128.580 412.655 C 125.366 419.559, 119.727 423, 111.630 423 C 101.938 423, 96.622 419.501, 93.355 410.972 C 91.924 407.234, 91.575 401.792, 91.231 377.816 L 90.819 349.132 94.651 348.816 C 97.350 348.593, 98.581 347.982, 98.815 346.750 C 99.120 345.140, 97.817 345, 82.573 345 C 66.667 345, 66 345.080, 66 347 M 480.978 354.250 C 480.918 363.138, 471.241 375, 464.050 375 C 462.667 375, 462 375.651, 462 377 C 462 378.556, 462.667 379, 465 379 L 468 379 468 398.550 C 468 420.121, 468.569 422.692, 473.967 425.483 C 477.704 427.416, 485.260 427.434, 488.961 425.520 C 492.759 423.556, 496.357 418.957, 495.089 417.689 C 494.465 417.065, 493.007 417.658, 490.984 419.360 C 484.529 424.792, 484 423.272, 484 399.300 L 484 379 491.773 379 L 499.547 379 509.870 402.750 C 521.401 429.279, 520.922 426.144, 515.369 438.701 L 512.954 444.162 510.076 441.081 C 506.426 437.174, 501.975 436.934, 498.455 440.455 C 493.046 445.863, 497.030 454, 505.086 454 C 512.121 454, 513.900 451.149, 528.500 416.468 C 535.650 399.484, 542.415 384.219, 543.534 382.544 C 544.653 380.870, 546.566 379.356, 547.784 379.180 C 549.213 378.974, 550 378.162, 550 376.893 C 550 375.057, 549.381 374.944, 540.761 375.212 C 533.040 375.453, 531.470 375.776, 531.201 377.182 C 530.961 378.438, 531.717 378.945, 534.190 379.182 C 536.923 379.445, 537.553 379.959, 537.805 382.135 C 538.091 384.600, 530.266 405, 529.034 405 C 528.726 405, 525.951 399.262, 522.868 392.250 L 517.261 379.500 520.130 379.187 C 522.194 378.961, 523 378.329, 523 376.937 C 523 375.087, 522.121 375, 503.500 375 L 484 375 484 363 C 484 353, 483.750 351, 482.500 351 C 481.479 351, 480.993 352.038, 480.978 354.250 M 220.174 354.314 C 215.803 358.967, 218.332 366.382, 224.710 367.614 C 227.414 368.136, 228.417 367.736, 231.077 365.077 C 233.736 362.417, 234.136 361.414, 233.614 358.710 C 232.362 352.230, 224.537 349.671, 220.174 354.314 M 441.073 354.635 C 438.201 358.286, 438.473 361.626, 441.923 365.077 C 445.219 368.372, 446.863 368.639, 450.928 366.537 C 454.058 364.919, 455 363.197, 455 359.093 C 455 352.501, 445.215 349.369, 441.073 354.635 M 373.481 374.341 C 371.821 375.093, 369.009 377.365, 367.231 379.389 L 364 383.070 364 379.003 L 364 374.937 352.250 375.218 C 342.597 375.450, 340.500 375.768, 340.500 377 C 340.500 378.011, 341.721 378.601, 344.250 378.810 L 348 379.121 348 400.500 L 348 421.879 344.258 422.190 C 341.643 422.407, 340.417 423.027, 340.185 424.250 C 339.879 425.863, 341.231 426, 357.427 426 C 374.333 426, 375 425.924, 375 424 C 375 422.267, 374.333 422, 370 422 L 365 422 365.022 405.750 C 365.045 388.751, 366.108 383.631, 370.342 380.128 C 371.832 378.894, 372 379.111, 372 382.267 C 372 387.482, 374.863 390.455, 379.888 390.455 C 385.414 390.455, 388.455 387.453, 388.455 382 C 388.455 379.292, 387.786 377.342, 386.374 375.930 C 383.767 373.323, 377.448 372.544, 373.481 374.341 M 175 375.539 C 173.075 376.401, 170.037 378.520, 168.250 380.249 L 165 383.392 165 379.164 L 165 374.937 153.250 375.218 C 143.597 375.450, 141.500 375.768, 141.500 377 C 141.500 378.011, 142.721 378.601, 145.250 378.810 L 149 379.121 149 401.060 L 149 423 145 423 C 142.111 423, 141 423.417, 141 424.500 C 141 425.769, 143.389 426, 156.500 426 C 169.611 426, 172 425.769, 172 424.500 C 172 423.452, 170.944 423, 168.500 423 L 165 423 165 407.967 C 165 393.967, 165.170 392.599, 167.467 388.065 C 170.405 382.266, 174.229 379, 178.078 379 C 183.448 379, 184 381.258, 184 403.223 L 184 423 180.500 423 C 178.056 423, 177 423.452, 177 424.500 C 177 425.769, 179.389 426, 192.500 426 C 205.611 426, 208 425.769, 208 424.500 C 208 423.417, 206.889 423, 204 423 L 200 423 199.994 405.250 C 199.988 385.320, 199.323 381.642, 194.973 377.474 C 192.327 374.939, 191.062 374.523, 185.216 374.267 C 180.713 374.069, 177.347 374.488, 175 375.539 M 307.214 375.804 C 295.937 380.265, 289.059 393.158, 291.093 406.023 C 293.146 419.014, 303.084 427.265, 316.584 427.187 C 328.442 427.118, 335.739 421.394, 339.448 409.250 C 339.954 407.593, 339.729 407, 338.595 407 C 337.701 407, 336.153 409.099, 334.902 412.007 C 330.964 421.160, 323.231 425.552, 315.530 423.010 C 310.067 421.207, 308.644 418.179, 308.171 407.355 L 307.761 398 323.948 398 L 340.135 398 339.512 395.750 C 337.392 388.086, 335.463 384.702, 330.847 380.553 C 323.475 373.925, 315.842 372.391, 307.214 375.804 M 400.053 376.236 C 393.891 379.519, 390.688 385.547, 391.256 392.791 C 392.003 402.306, 396.710 406.154, 410.260 408.323 C 419.952 409.876, 422 411.023, 422 414.900 C 422 420.651, 415.272 424.804, 408.236 423.397 C 403.765 422.503, 398.466 417.651, 396.355 412.517 C 395.155 409.600, 393.882 408.006, 392.750 408.004 C 391.206 408, 391 409.118, 391 417.500 C 391 427.636, 391.548 428.548, 395.976 425.783 C 397.508 424.826, 398.901 424.826, 402.477 425.783 C 417.883 429.903, 429.422 422.267, 429.454 407.931 C 429.477 397.868, 425.794 394.687, 411.154 392.121 C 400.024 390.171, 398 389.062, 398 384.917 C 398 380.316, 401.386 378, 408.112 378 C 414.895 378, 418.542 380.440, 421.472 386.937 C 424.524 393.706, 426 392.259, 426 382.500 C 426 375.611, 425.716 374, 424.500 374 C 423.675 374, 423 374.507, 423 375.127 C 423 375.909, 421.391 376.041, 417.750 375.557 C 404.513 373.798, 404.636 373.794, 400.053 376.236 M 210 377 C 210 378.667, 210.667 379, 214 379 L 218 379 218 401 L 218 423 214 423 C 211.111 423, 210 423.417, 210 424.500 C 210 425.771, 212.444 426, 226 426 C 239.556 426, 242 425.771, 242 424.500 C 242 423.417, 240.889 423, 238 423 L 234 423 234 399 L 234 375 222 375 C 210.667 375, 210 375.111, 210 377 M 238 376.906 C 238 378.284, 238.792 378.961, 240.661 379.184 C 243.114 379.475, 244.123 381.347, 253.501 403 C 261.448 421.347, 264.112 426.565, 265.653 426.795 C 267.340 427.047, 268.828 424.223, 275.926 407.295 C 285.879 383.559, 287.702 380.113, 290.702 379.360 C 292.107 379.007, 293 378.033, 293 376.853 C 293 375.071, 292.328 374.944, 284.261 375.211 C 276.870 375.455, 275.471 375.770, 275.188 377.250 C 274.920 378.653, 275.563 379, 278.427 379 C 281.587 379, 282 379.294, 282 381.540 C 282 383.738, 273.059 406.470, 272.473 405.761 C 272.048 405.247, 261 379.930, 261 379.470 C 261 379.211, 262.383 379, 264.073 379 C 266.462 379, 267.072 378.610, 266.811 377.250 C 266.513 375.697, 264.873 375.469, 252.238 375.223 C 238.667 374.958, 238 375.037, 238 376.906 M 431 377 C 431 378.667, 431.667 379, 435 379 L 439 379 439 401 L 439 423 435 423 C 432.111 423, 431 423.417, 431 424.500 C 431 425.771, 433.444 426, 447 426 C 460.556 426, 463 425.771, 463 424.500 C 463 423.417, 461.889 423, 459 423 L 455 423 455 399 L 455 375 443 375 C 431.667 375, 431 375.111, 431 377 M 311.400 378.765 C 309.196 380.237, 308 383.990, 308 389.434 L 308 395 315 395 L 322 395 322 388.723 C 322 380.959, 320.253 377.993, 315.693 378.015 C 313.937 378.024, 312.005 378.361, 311.400 378.765" stroke="none" fill="#c41230" fill-rule="evenodd"/><path d="M 91.843 148.374 C 72.914 156.160, 61.944 180.007, 67.492 201.307 C 74.027 226.396, 97.654 238.315, 119.300 227.443 C 125.447 224.356, 126.813 224.378, 128.031 227.581 C 128.571 229.001, 129.572 229.977, 130.256 229.749 C 131.152 229.452, 131.578 225.372, 131.777 215.168 C 132.039 201.819, 131.945 201, 130.155 201 C 128.706 201, 128.101 201.968, 127.603 205.083 C 124.938 221.747, 107.255 233.274, 95.898 225.749 C 88.975 221.162, 86.050 210.271, 86.027 189 C 85.996 159.160, 93.749 145.893, 108.845 149.958 C 116.565 152.037, 125.693 163.214, 127.646 172.980 C 128.064 175.071, 128.836 176, 130.153 176 C 131.945 176, 132.040 175.198, 131.778 162.262 C 131.532 150.103, 131.299 148.486, 129.750 148.189 C 128.709 147.989, 128 148.464, 128 149.359 C 128 152.189, 124.259 152.082, 116.583 149.033 C 107.019 145.234, 99.937 145.045, 91.843 148.374 M 431.500 156.155 C 426.596 158.837, 425.583 163.929, 429.073 168.365 C 430.671 170.398, 432.027 171, 435 171 C 437.973 171, 439.329 170.398, 440.927 168.365 C 443.799 164.714, 443.527 161.374, 440.077 157.923 C 436.981 154.828, 434.763 154.370, 431.500 156.155 M 229.230 178.499 C 227.432 179.281, 224.619 181.388, 222.980 183.183 L 220 186.446 220 182.691 L 220 178.937 208.250 179.218 C 198.597 179.450, 196.500 179.768, 196.500 181 C 196.500 182.011, 197.721 182.601, 200.250 182.810 L 204 183.121 204 204.500 L 204 225.879 200.250 226.190 C 197.721 226.399, 196.500 226.989, 196.500 228 C 196.500 229.265, 199.205 229.543, 213.750 229.774 C 230.491 230.039, 231 229.987, 231 228.024 C 231 226.262, 230.353 226, 226 226 L 221 226 221.022 209.750 C 221.045 192.751, 222.108 187.631, 226.342 184.128 C 227.830 182.896, 228 183.103, 228 186.155 C 228 192.865, 233.245 196.178, 239.640 193.506 C 241.802 192.603, 243.136 191.117, 243.921 188.741 C 246.782 180.069, 238.655 174.403, 229.230 178.499 M 282.137 178.310 C 280.287 179.012, 277.025 181.055, 274.887 182.850 L 271 186.113 271 182.556 L 271 179 259 179 C 249 179, 247 179.250, 247 180.500 C 247 181.583, 248.111 182, 251 182 L 255 182 255 204 L 255 226 251 226 C 247.650 226, 247 226.329, 247 228.026 C 247 229.984, 247.510 230.043, 262.250 229.776 C 275.016 229.545, 277.500 229.256, 277.500 228 C 277.500 227.039, 276.333 226.387, 274.250 226.187 L 271 225.873 271 210.397 C 271 197.151, 271.274 194.386, 272.903 191.210 C 276.653 183.898, 282.321 180.670, 286.549 183.440 L 289 185.046 289 205.523 L 289 226 286 226 C 283.667 226, 283 226.444, 283 228 C 283 229.911, 283.667 230, 298 230 C 312.333 230, 313 229.911, 313 228 C 313 226.333, 312.333 226, 309 226 L 305 226 304.998 207.250 C 304.997 186.799, 304.314 183.703, 298.941 179.769 C 295.699 177.394, 286.625 176.607, 282.137 178.310 M 151.421 179.896 C 143.719 183.394, 140.666 190.666, 145.055 195.055 C 148.091 198.091, 154.910 197.443, 156.872 193.931 C 158.862 190.370, 157.649 186.211, 154.222 184.842 L 151.500 183.755 154.500 182.422 C 159.030 180.411, 166.340 180.645, 169.114 182.891 C 171.109 184.507, 171.506 185.884, 171.831 192.326 L 172.212 199.870 168.856 200.348 C 167.010 200.612, 162.110 201.249, 157.967 201.764 C 148.797 202.904, 143.378 205.332, 140.886 209.420 C 138.735 212.947, 138.448 219.351, 140.279 222.970 C 144.390 231.095, 159.629 233.456, 168.611 227.360 L 172.250 224.891 174.221 227.007 C 179.915 233.119, 190.892 231.977, 194.555 224.893 C 196.158 221.793, 195.919 219, 194.050 219 C 193.494 219, 192.760 220.107, 192.421 221.459 C 192.081 222.811, 191.233 224.392, 190.535 224.971 C 187.842 227.206, 187.131 223.443, 186.816 205.290 L 186.500 187.126 183.606 184.108 C 182.014 182.448, 178.672 180.395, 176.178 179.545 C 169.728 177.347, 156.624 177.533, 151.421 179.896 M 328.419 179.897 C 318.730 184.298, 312.409 195.431, 313.272 206.577 C 314.462 221.965, 326.139 232.081, 341.139 230.721 C 351.298 229.800, 359.210 223.219, 361.540 213.750 C 362.587 209.495, 359.424 210.186, 357.992 214.525 C 355.514 222.032, 349.139 227, 341.984 227 C 333.531 227, 331 223.210, 331 210.550 L 331 202 346.500 202 C 363.787 202, 363.085 202.353, 360.824 194.807 C 359.286 189.672, 352.626 182.190, 347.539 179.878 C 342.275 177.488, 333.706 177.496, 328.419 179.897 M 377 179.954 C 375.075 180.981, 372.150 183.240, 370.500 184.976 C 367.809 187.806, 367.500 188.790, 367.500 194.517 C 367.500 200.552, 367.707 201.116, 371.265 204.759 L 375.030 208.615 371.560 210.270 C 366.835 212.523, 364.651 217.018, 365.250 223.255 C 365.588 226.765, 366.447 228.901, 368.244 230.698 L 370.764 233.218 366.996 236.623 C 362.254 240.907, 361.526 244.236, 364.134 249.711 C 365.737 253.075, 367.283 254.482, 371.820 256.711 C 376.599 259.057, 378.770 259.500, 385.500 259.500 C 392.517 259.500, 394.166 259.131, 398.923 256.500 C 401.905 254.850, 405.575 251.804, 407.078 249.732 C 412.466 242.298, 413.283 230.172, 408.781 224.449 C 405.240 219.947, 401.395 219, 386.655 219 C 372.163 219, 369.745 218.214, 371.892 214.201 C 373.582 211.044, 378.118 209.685, 382.777 210.940 C 390.508 213.022, 401.132 209.112, 405.005 202.759 C 407.391 198.847, 407.621 191.715, 405.494 187.636 C 403.545 183.899, 403.604 183.282, 406.032 181.983 C 407.855 181.007, 408.004 181.137, 407.476 183.241 C 406.220 188.245, 413.684 190.904, 416.598 186.491 C 418.598 183.462, 416.373 179.730, 411.905 178.618 C 409.205 177.946, 407.484 178.151, 404.686 179.479 C 401.270 181.100, 400.729 181.109, 396.986 179.611 C 391.471 177.404, 381.461 177.576, 377 179.954 M 466.419 179.897 C 456.730 184.298, 450.409 195.431, 451.272 206.577 C 452.462 221.965, 464.139 232.081, 479.139 230.721 C 489.298 229.800, 497.210 223.219, 499.540 213.750 C 500.587 209.495, 497.424 210.186, 495.992 214.525 C 493.514 222.032, 487.139 227, 479.984 227 C 471.531 227, 469 223.210, 469 210.550 L 469 202 484.500 202 C 501.787 202, 501.085 202.353, 498.824 194.807 C 497.286 189.672, 490.626 182.190, 485.539 179.878 C 480.275 177.488, 471.706 177.496, 466.419 179.897 M 421 181 C 421 182.556, 421.667 183, 424 183 L 427 183 427 204.500 L 427 226 423 226 C 419.650 226, 419 226.329, 419 228.025 C 419 229.985, 419.510 230.042, 434.737 229.775 C 448.802 229.529, 450.510 229.314, 450.811 227.750 C 451.086 226.315, 450.414 226, 447.073 226 L 443 226 443 202.500 L 443 179 432 179 C 421.667 179, 421 179.121, 421 181 M 333 183 C 331.410 184.590, 331 186.333, 331 191.500 L 331 198 338 198 L 345 198 344.976 194.750 C 344.938 189.500, 343.244 183.651, 341.364 182.277 C 338.811 180.410, 335.285 180.715, 333 183 M 382.567 182.926 C 380.248 185.488, 379.312 196.781, 380.924 202.740 C 381.789 205.935, 382.679 207.132, 384.536 207.598 C 388.687 208.640, 391.703 207.291, 392.900 203.857 C 394.387 199.593, 394.268 187.092, 392.712 184 C 391.012 180.623, 385.208 180.008, 382.567 182.926 M 471 183 C 469.410 184.590, 469 186.333, 469 191.500 L 469 198 476 198 C 482.980 198, 483 197.992, 482.956 195.250 C 482.870 189.814, 481.165 183.594, 479.408 182.309 C 476.815 180.413, 473.298 180.702, 471 183 M 161.772 204.714 C 157.544 205.357, 154.997 209.377, 155.015 215.385 C 155.033 221.674, 156.655 225.062, 160.215 226.243 C 166.951 228.477, 171.996 221.844, 171.998 210.750 L 172 204 168.250 204.150 C 166.188 204.232, 163.272 204.486, 161.772 204.714 M 372.184 237.886 C 367.583 246.072, 370.666 253.322, 379.927 256.096 C 387.960 258.503, 400.042 254.258, 404.099 247.605 C 406.674 243.383, 406.655 236.421, 404.066 235.035 C 402.999 234.464, 395.906 234, 388.250 234 L 374.368 234 372.184 237.886 M 66 250 C 66 251.667, 66.667 252, 70 252 L 74 252 73.985 285.750 C 73.969 322.458, 73.730 324.236, 68.727 324.816 C 66.807 325.039, 66 325.705, 66 327.066 C 66 328.849, 66.781 329, 76 329 C 85.224 329, 86 328.850, 86 327.063 C 86 325.613, 85.190 325.048, 82.773 324.813 C 77.193 324.272, 77.028 323.152, 77.045 286 C 77.054 267.544, 77.436 253.174, 77.896 254 C 78.355 254.825, 84.529 272.037, 91.615 292.248 C 101.426 320.229, 104.888 328.997, 106.127 328.998 C 107.326 329, 109.150 324.992, 113.069 313.750 C 115.992 305.363, 121.875 288.600, 126.141 276.500 L 133.898 254.500 133.949 289.750 L 134 325 130.500 325 C 127.667 325, 127 325.381, 127 327 C 127 328.917, 127.667 329, 143.073 329 C 157.841 329, 159.120 328.858, 158.815 327.250 C 158.583 326.027, 157.357 325.407, 154.742 325.190 L 151 324.879 151 288.500 L 151 252.121 154.750 251.810 C 157.279 251.601, 158.500 251.011, 158.500 250 C 158.500 248.757, 156.251 248.452, 145.369 248.222 L 132.238 247.944 127.043 262.722 C 124.186 270.850, 120.020 282.815, 117.785 289.311 C 115.550 295.807, 113.390 300.757, 112.986 300.311 C 112.581 299.865, 110.106 292.975, 107.486 285 C 104.865 277.025, 100.938 265.438, 98.757 259.250 L 94.792 248 80.396 248 C 66.667 248, 66 248.093, 66 250 M 208.185 249.750 C 208.417 250.973, 209.643 251.593, 212.258 251.810 L 216 252.121 216 288.500 L 216 324.879 212.258 325.190 C 209.643 325.407, 208.417 326.027, 208.185 327.250 C 207.880 328.858, 209.159 329, 223.927 329 C 239.333 329, 240 328.917, 240 327 C 240 325.333, 239.333 325, 236 325 L 232 325 232 286.500 L 232 248 219.927 248 C 208.969 248, 207.884 248.162, 208.185 249.750 M 242 250 C 242 251.667, 242.667 252, 246 252 L 250 252 250 288.500 L 250 325 246 325 C 242.667 325, 242 325.333, 242 327 C 242 328.917, 242.667 329, 258.073 329 C 272.841 329, 274.120 328.858, 273.815 327.250 C 273.583 326.027, 272.357 325.407, 269.742 325.190 L 266 324.879 266 286.440 L 266 248 254 248 C 242.667 248, 242 248.111, 242 250 M 365.718 277.145 C 360.842 278.224, 357.003 280.232, 354.498 283.012 L 352.500 285.230 352 281.865 L 351.500 278.500 339.500 278.500 C 329.500 278.500, 327.500 278.750, 327.500 280 C 327.500 281.011, 328.721 281.601, 331.250 281.810 L 335 282.121 335 303.500 L 335 324.879 331.258 325.190 C 328.643 325.407, 327.417 326.027, 327.185 327.250 C 326.881 328.856, 328.135 329, 342.427 329 C 357.333 329, 358 328.914, 358 327 C 358 325.444, 357.333 325, 355 325 L 352 325 352 309.460 C 352 295.967, 352.260 293.411, 353.972 290.055 C 356.587 284.928, 360.473 282, 364.660 282 C 367.378 282, 368.243 282.508, 369.025 284.565 C 369.561 285.976, 370 295.622, 370 306.002 L 370 324.873 366.758 325.187 C 364.623 325.393, 363.403 326.097, 363.185 327.250 C 362.881 328.856, 364.135 329, 378.427 329 C 393.333 329, 394 328.914, 394 327 C 394 325.333, 393.333 325, 390 325 L 386 325 386 307.020 C 386 292.867, 385.659 288.189, 384.399 285.039 C 381.789 278.516, 374.136 275.282, 365.718 277.145 M 174.500 279.383 C 164.714 284.009, 159.512 292.774, 159.590 304.500 C 159.693 319.841, 169.943 330.031, 185.218 329.978 C 196.068 329.940, 203.276 325.043, 207.032 315.157 C 208.865 310.333, 208.879 310.001, 207.246 310.017 C 206.091 310.028, 204.691 311.903, 203.110 315.555 C 199.356 324.226, 192.496 328.080, 184.666 325.918 C 178.836 324.309, 177.008 320.452, 177.004 309.750 L 177 301 192.500 301 C 209.787 301, 209.085 301.353, 206.824 293.807 C 205.280 288.654, 199.062 281.692, 193.673 279.084 C 187.858 276.269, 180.856 276.378, 174.500 279.383 M 290.054 278.728 C 283.590 281.010, 276.538 288.450, 274.575 295.059 C 272.481 302.111, 272.589 306.827, 274.994 313.253 C 281.870 331.632, 307.778 336.098, 321.194 321.217 C 330.457 310.941, 329.989 294.894, 320.140 285.044 C 312.515 277.420, 300.753 274.950, 290.054 278.728 M 178.557 283.223 C 177.549 284.661, 177 287.659, 177 291.723 L 177 298 184 298 L 191 298 191 292.968 C 191 290.200, 190.348 286.375, 189.551 284.468 C 188.240 281.331, 187.720 281, 184.108 281 C 181.114 281, 179.724 281.557, 178.557 283.223 M 293.924 283.580 C 291.552 286.104, 291.500 286.532, 291.500 303.372 C 291.500 318.052, 291.756 320.976, 293.242 323.246 C 295.413 326.561, 300.664 327.750, 304.665 325.832 C 309.201 323.658, 310.211 318.867, 309.830 301.330 C 309.516 286.876, 309.386 286.039, 307.076 283.580 C 303.669 279.954, 297.332 279.954, 293.924 283.580 M 66 347 C 66 348.667, 66.667 349, 70 349 L 74 349 74 376.318 C 74 407.838, 74.607 411.449, 81.090 418.482 C 88.231 426.229, 100.451 429.462, 113.376 427.023 C 121.896 425.416, 128.044 421.484, 131.662 415.328 L 134.500 410.500 135 380.799 C 135.300 363.002, 135.901 350.708, 136.500 350.126 C 137.050 349.591, 138.850 349.007, 140.500 348.827 C 142.355 348.625, 143.500 347.927, 143.500 347 C 143.500 345.782, 141.558 345.446, 133.170 345.214 C 123.708 344.952, 122.868 345.078, 123.180 346.714 C 123.374 347.731, 124.593 348.649, 126.010 348.846 C 131.026 349.542, 131.001 349.390, 130.990 379.372 C 130.981 406.955, 130.934 407.600, 128.580 412.655 C 125.366 419.559, 119.727 423, 111.630 423 C 101.938 423, 96.622 419.501, 93.355 410.972 C 91.924 407.234, 91.575 401.792, 91.231 377.816 L 90.819 349.132 94.651 348.816 C 97.350 348.593, 98.581 347.982, 98.815 346.750 C 99.120 345.140, 97.817 345, 82.573 345 C 66.667 345, 66 345.080, 66 347 M 480.978 354.250 C 480.918 363.138, 471.241 375, 464.050 375 C 462.667 375, 462 375.651, 462 377 C 462 378.556, 462.667 379, 465 379 L 468 379 468 398.550 C 468 420.121, 468.569 422.692, 473.967 425.483 C 477.704 427.416, 485.260 427.434, 488.961 425.520 C 492.759 423.556, 496.357 418.957, 495.089 417.689 C 494.465 417.065, 493.007 417.658, 490.984 419.360 C 484.529 424.792, 484 423.272, 484 399.300 L 484 379 491.773 379 L 499.547 379 509.870 402.750 C 521.401 429.279, 520.922 426.144, 515.369 438.701 L 512.954 444.162 510.076 441.081 C 506.426 437.174, 501.975 436.934, 498.455 440.455 C 493.046 445.863, 497.030 454, 505.086 454 C 512.121 454, 513.900 451.149, 528.500 416.468 C 535.650 399.484, 542.415 384.219, 543.534 382.544 C 544.653 380.870, 546.566 379.356, 547.784 379.180 C 549.213 378.974, 550 378.162, 550 376.893 C 550 375.057, 549.381 374.944, 540.761 375.212 C 533.040 375.453, 531.470 375.776, 531.201 377.182 C 530.961 378.438, 531.717 378.945, 534.190 379.182 C 536.923 379.445, 537.553 379.959, 537.805 382.135 C 538.091 384.600, 530.266 405, 529.034 405 C 528.726 405, 525.951 399.262, 522.868 392.250 L 517.261 379.500 520.130 379.187 C 522.194 378.961, 523 378.329, 523 376.937 C 523 375.087, 522.121 375, 503.500 375 L 484 375 484 363 C 484 353, 483.750 351, 482.500 351 C 481.479 351, 480.993 352.038, 480.978 354.250 M 220.174 354.314 C 215.803 358.967, 218.332 366.382, 224.710 367.614 C 227.414 368.136, 228.417 367.736, 231.077 365.077 C 233.736 362.417, 234.136 361.414, 233.614 358.710 C 232.362 352.230, 224.537 349.671, 220.174 354.314 M 441.073 354.635 C 438.201 358.286, 438.473 361.626, 441.923 365.077 C 445.219 368.372, 446.863 368.639, 450.928 366.537 C 454.058 364.919, 455 363.197, 455 359.093 C 455 352.501, 445.215 349.369, 441.073 354.635 M 373.481 374.341 C 371.821 375.093, 369.009 377.365, 367.231 379.389 L 364 383.070 364 379.003 L 364 374.937 352.250 375.218 C 342.597 375.450, 340.500 375.768, 340.500 377 C 340.500 378.011, 341.721 378.601, 344.250 378.810 L 348 379.121 348 400.500 L 348 421.879 344.258 422.190 C 341.643 422.407, 340.417 423.027, 340.185 424.250 C 339.879 425.863, 341.231 426, 357.427 426 C 374.333 426, 375 425.924, 375 424 C 375 422.267, 374.333 422, 370 422 L 365 422 365.022 405.750 C 365.045 388.751, 366.108 383.631, 370.342 380.128 C 371.832 378.894, 372 379.111, 372 382.267 C 372 387.482, 374.863 390.455, 379.888 390.455 C 385.414 390.455, 388.455 387.453, 388.455 382 C 388.455 379.292, 387.786 377.342, 386.374 375.930 C 383.767 373.323, 377.448 372.544, 373.481 374.341 M 175 375.539 C 173.075 376.401, 170.037 378.520, 168.250 380.249 L 165 383.392 165 379.164 L 165 374.937 153.250 375.218 C 143.597 375.450, 141.500 375.768, 141.500 377 C 141.500 378.011, 142.721 378.601, 145.250 378.810 L 149 379.121 149 401.060 L 149 423 145 423 C 142.111 423, 141 423.417, 141 424.500 C 141 425.769, 143.389 426, 156.500 426 C 169.611 426, 172 425.769, 172 424.500 C 172 423.452, 170.944 423, 168.500 423 L 165 423 165 407.967 C 165 393.967, 165.170 392.599, 167.467 388.065 C 170.405 382.266, 174.229 379, 178.078 379 C 183.448 379, 184 381.258, 184 403.223 L 184 423 180.500 423 C 178.056 423, 177 423.452, 177 424.500 C 177 425.769, 179.389 426, 192.500 426 C 205.611 426, 208 425.769, 208 424.500 C 208 423.417, 206.889 423, 204 423 L 200 423 199.994 405.250 C 199.988 385.320, 199.323 381.642, 194.973 377.474 C 192.327 374.939, 191.062 374.523, 185.216 374.267 C 180.713 374.069, 177.347 374.488, 175 375.539 M 307.214 375.804 C 295.937 380.265, 289.059 393.158, 291.093 406.023 C 293.146 419.014, 303.084 427.265, 316.584 427.187 C 328.442 427.118, 335.739 421.394, 339.448 409.250 C 339.954 407.593, 339.729 407, 338.595 407 C 337.701 407, 336.153 409.099, 334.902 412.007 C 330.964 421.160, 323.231 425.552, 315.530 423.010 C 310.067 421.207, 308.644 418.179, 308.171 407.355 L 307.761 398 323.948 398 L 340.135 398 339.512 395.750 C 337.392 388.086, 335.463 384.702, 330.847 380.553 C 323.475 373.925, 315.842 372.391, 307.214 375.804 M 400.053 376.236 C 393.891 379.519, 390.688 385.547, 391.256 392.791 C 392.003 402.306, 396.710 406.154, 410.260 408.323 C 419.952 409.876, 422 411.023, 422 414.900 C 422 420.651, 415.272 424.804, 408.236 423.397 C 403.765 422.503, 398.466 417.651, 396.355 412.517 C 395.155 409.600, 393.882 408.006, 392.750 408.004 C 391.206 408, 391 409.118, 391 417.500 C 391 427.636, 391.548 428.548, 395.976 425.783 C 397.508 424.826, 398.901 424.826, 402.477 425.783 C 417.883 429.903, 429.422 422.267, 429.454 407.931 C 429.477 397.868, 425.794 394.687, 411.154 392.121 C 400.024 390.171, 398 389.062, 398 384.917 C 398 380.316, 401.386 378, 408.112 378 C 414.895 378, 418.542 380.440, 421.472 386.937 C 424.524 393.706, 426 392.259, 426 382.500 C 426 375.611, 425.716 374, 424.500 374 C 423.675 374, 423 374.507, 423 375.127 C 423 375.909, 421.391 376.041, 417.750 375.557 C 404.513 373.798, 404.636 373.794, 400.053 376.236 M 210 377 C 210 378.667, 210.667 379, 214 379 L 218 379 218 401 L 218 423 214 423 C 211.111 423, 210 423.417, 210 424.500 C 210 425.771, 212.444 426, 226 426 C 239.556 426, 242 425.771, 242 424.500 C 242 423.417, 240.889 423, 238 423 L 234 423 234 399 L 234 375 222 375 C 210.667 375, 210 375.111, 210 377 M 238 376.906 C 238 378.284, 238.792 378.961, 240.661 379.184 C 243.114 379.475, 244.123 381.347, 253.501 403 C 261.448 421.347, 264.112 426.565, 265.653 426.795 C 267.340 427.047, 268.828 424.223, 275.926 407.295 C 285.879 383.559, 287.702 380.113, 290.702 379.360 C 292.107 379.007, 293 378.033, 293 376.853 C 293 375.071, 292.328 374.944, 284.261 375.211 C 276.870 375.455, 275.471 375.770, 275.188 377.250 C 274.920 378.653, 275.563 379, 278.427 379 C 281.587 379, 282 379.294, 282 381.540 C 282 383.738, 273.059 406.470, 272.473 405.761 C 272.048 405.247, 261 379.930, 261 379.470 C 261 379.211, 262.383 379, 264.073 379 C 266.462 379, 267.072 378.610, 266.811 377.250 C 266.513 375.697, 264.873 375.469, 252.238 375.223 C 238.667 374.958, 238 375.037, 238 376.906 M 431 377 C 431 378.667, 431.667 379, 435 379 L 439 379 439 401 L 439 423 435 423 C 432.111 423, 431 423.417, 431 424.500 C 431 425.771, 433.444 426, 447 426 C 460.556 426, 463 425.771, 463 424.500 C 463 423.417, 461.889 423, 459 423 L 455 423 455 399 L 455 375 443 375 C 431.667 375, 431 375.111, 431 377 M 311.400 378.765 C 309.196 380.237, 308 383.990, 308 389.434 L 308 395 315 395 L 322 395 322 388.723 C 322 380.959, 320.253 377.993, 315.693 378.015 C 313.937 378.024, 312.005 378.361, 311.400 378.765" stroke="none" fill="#ffffff" fill-rule="evenodd"/></svg>