<svg xmlns="http://www.w3.org/2000/svg" width="476" height="454" viewBox="0 0 476 454" version="1.1"><path d="" stroke="none" fill="#fdb301" fill-rule="evenodd"/><path d="M 157.970 157.944 C 158.543 159.014, 159.505 160.194, 160.109 160.567 C 160.713 160.941, 160.434 160.066, 159.489 158.623 C 157.487 155.568, 156.451 155.105, 157.970 157.944 M 32.475 231.500 C 32.475 272.200, 32.599 288.704, 32.750 268.176 C 32.901 247.648, 32.901 214.348, 32.750 194.176 C 32.598 174.004, 32.475 190.800, 32.475 231.500 M 165.310 169.500 C 166.155 171.150, 167.596 173.400, 168.510 174.500 C 169.424 175.600, 169.161 174.700, 167.926 172.500 C 165.201 167.646, 163.159 165.306, 165.310 169.500 M 94 175.500 C 98.331 179.968, 98.858 179.968, 95.293 175.500 C 93.757 173.575, 92.074 172, 91.554 172 C 91.033 172, 92.134 173.575, 94 175.500 M 105.022 187.694 C 105.057 188.946, 108.804 193.530, 109.347 192.985 C 109.612 192.718, 108.743 191.237, 107.415 189.694 C 106.087 188.151, 105.010 187.251, 105.022 187.694 M 179.074 191.500 C 180.309 193.700, 181.749 195.950, 182.274 196.500 C 183.772 198.069, 180.347 191.734, 178.490 189.500 C 177.576 188.400, 177.839 189.300, 179.074 191.500 M 114.782 199.582 C 115.392 200.727, 116.664 202.302, 117.609 203.082 C 119.173 204.372, 119.228 204.312, 118.218 202.418 C 117.608 201.273, 116.336 199.698, 115.391 198.918 C 113.827 197.628, 113.772 197.688, 114.782 199.582 M 184.910 201.832 C 185.450 202.840, 186.676 204.302, 187.637 205.082 C 188.717 205.960, 188.475 205.261, 187.003 203.250 C 184.377 199.662, 183.392 198.995, 184.910 201.832 M 196.040 219.750 C 199.262 225.487, 202.524 230.395, 201.854 228.500 C 201.120 226.425, 193.806 214, 193.318 214 C 193.038 214, 194.263 216.588, 196.040 219.750 M 106.174 245.945 C 109.236 249.821, 110.703 249.870, 107.842 246 C 106.622 244.350, 105.224 243, 104.736 243 C 104.247 243, 104.895 244.325, 106.174 245.945 M 191.278 248.250 C 189.779 250.188, 188.836 252, 189.326 252 C 189.570 252, 190.507 250.875, 191.408 249.500 C 193.094 246.927, 193 246.024, 191.278 248.250 M 180.638 265.250 C 176.957 271.039, 174.343 275.858, 175.425 274.857 C 176.554 273.812, 184.925 260, 184.429 260 C 184.179 260, 182.473 262.363, 180.638 265.250 M 165.239 290.250 C 163.071 293.688, 160.552 297.947, 159.641 299.716 C 158.434 302.059, 157.512 302.765, 156.242 302.318 C 154.880 301.839, 154.754 301.981, 155.663 302.966 C 157.336 304.779, 158.245 303.892, 163.043 295.768 C 165.404 291.771, 167.987 287.488, 168.783 286.250 C 169.579 285.012, 169.994 284, 169.705 284 C 169.416 284, 167.406 286.813, 165.239 290.250 M 142.020 287.524 C 142.716 288.362, 143.491 288.842, 143.743 288.591 C 144.436 287.897, 143.027 286, 141.819 286 C 141.155 286, 141.231 286.574, 142.020 287.524" stroke="none" fill="#e3ac1e" fill-rule="evenodd"/><path d="M 159.872 158.500 C 160.412 159.600, 161.586 161.400, 162.482 162.500 L 164.110 164.500 163.128 162.500 C 162.588 161.400, 161.414 159.600, 160.518 158.500 L 158.890 156.500 159.872 158.500 M 165.310 167.500 C 166.155 169.150, 167.596 171.400, 168.510 172.500 C 169.424 173.600, 169.161 172.700, 167.926 170.500 C 165.201 165.646, 163.159 163.306, 165.310 167.500 M 184.464 198.929 C 185.838 201.640, 187.377 204.115, 187.884 204.429 C 188.392 204.742, 187.467 202.524, 185.828 199.499 C 182.127 192.666, 181.066 192.222, 184.464 198.929 M 195.872 217.500 C 196.412 218.600, 197.586 220.400, 198.482 221.500 L 200.110 223.500 199.128 221.500 C 198.588 220.400, 197.414 218.600, 196.518 217.500 L 194.890 215.500 195.872 217.500 M 178.804 270.250 C 178.020 271.488, 176.367 274.300, 175.131 276.500 C 172.488 281.206, 175.374 277.542, 178.807 271.835 C 181.243 267.784, 181.241 266.405, 178.804 270.250 M 167.880 288.250 C 167.225 289.488, 166.036 291.625, 165.239 293 C 163.848 295.398, 163.857 295.419, 165.471 293.500 C 167.464 291.130, 170.261 286, 169.561 286 C 169.291 286, 168.535 287.012, 167.880 288.250 M 161.097 299.560 C 159.942 301.518, 159.451 302.840, 160.005 302.497 C 161.089 301.827, 164.335 296, 163.624 296 C 163.390 296, 162.252 297.602, 161.097 299.560" stroke="none" fill="#b48d1d" fill-rule="evenodd"/><path d="" stroke="none" fill="#fdb600" fill-rule="evenodd"/><path d="" stroke="none" fill="#feb300" fill-rule="evenodd"/><path d="" stroke="none" fill="#feb305" fill-rule="evenodd"/><path d="M 37.994 154.869 C 34.476 155.272, 32.535 155.951, 32.619 156.750 C 32.691 157.438, 32.806 191.008, 32.875 231.352 L 33 304.704 55 304.912 L 77 305.121 77 260.120 C 77 235.369, 77.366 214.892, 77.813 214.616 C 78.620 214.117, 89 224.080, 89 225.353 C 89 225.969, 91.386 228.840, 96.645 234.548 C 97.825 235.829, 99.062 236.604, 99.395 236.272 C 99.728 235.939, 100 236.205, 100 236.863 C 100 237.521, 102.232 240.351, 104.959 243.151 C 107.687 245.952, 109.825 248.575, 109.709 248.980 C 109.477 249.799, 118.301 260.132, 124.500 266.300 C 126.700 268.489, 128.398 270.636, 128.273 271.070 C 128.148 271.505, 129.420 273.017, 131.100 274.431 C 132.779 275.844, 133.794 277, 133.354 277 C 132.914 277, 134.117 278.433, 136.027 280.184 C 137.937 281.935, 139.384 283.745, 139.243 284.206 C 139.101 284.667, 140.114 285.473, 141.493 285.997 C 142.872 286.522, 144 287.482, 144 288.131 C 144 290.032, 148.968 296, 150.551 296 C 151.348 296, 152 296.513, 152 297.140 C 152 297.767, 152.787 298.925, 153.750 299.714 C 154.713 300.503, 154.868 300.820, 154.095 300.420 C 153.239 299.975, 152.940 300.094, 153.330 300.725 C 153.681 301.293, 154.859 301.991, 155.947 302.276 C 157.514 302.686, 158.540 301.705, 160.880 297.558 C 163.383 293.123, 169.384 283.459, 173.025 278 C 173.575 277.175, 176.056 273.125, 178.537 269 C 181.019 264.875, 185.030 258.350, 187.451 254.500 C 196.487 240.126, 201 232.038, 201 230.217 C 201 228.435, 195.326 217.693, 189.288 208.045 C 182.225 196.758, 172.963 181.793, 168.528 174.500 C 159.300 159.326, 158.552 158.303, 158.297 160.500 C 158.169 161.600, 157.938 181.132, 157.782 203.905 C 157.519 242.493, 157.381 245.327, 155.745 245.567 C 154.780 245.709, 154.202 245.482, 154.461 245.063 C 154.720 244.644, 153.935 243.391, 152.716 242.277 C 151.497 241.164, 148.319 237.497, 145.654 234.127 C 142.989 230.757, 140.401 228.252, 139.904 228.559 C 139.407 228.867, 139 228.483, 139 227.707 C 139 226.931, 136.310 223.250, 133.022 219.525 C 129.735 215.801, 125.572 210.815, 123.772 208.446 C 121.973 206.077, 119.738 203.931, 118.808 203.678 C 117.877 203.425, 115.732 200.969, 114.041 198.221 C 112.350 195.473, 110.155 193.012, 109.164 192.753 C 108.173 192.494, 106.634 190.748, 105.744 188.873 C 104.854 186.998, 101.191 182.566, 97.603 179.025 C 94.015 175.484, 91.276 172.391, 91.516 172.151 C 91.755 171.911, 89.613 168.967, 86.754 165.608 C 77.207 154.387, 78.931 155.260, 66 155.102 C 59.675 155.026, 52.025 154.800, 49 154.600 C 45.975 154.401, 41.022 154.522, 37.994 154.869" stroke="none" fill="#f1b31d" fill-rule="evenodd"/><path d="M 54.465 153.750 L 77.431 154.039 80.465 156.769 L 83.500 159.500 80.563 156.250 L 77.626 153 54.563 153.230 L 31.500 153.461 54.465 153.750 M 167.750 153.747 C 173.938 153.922, 184.063 153.922, 190.250 153.747 C 196.438 153.571, 191.375 153.428, 179 153.428 C 166.625 153.428, 161.563 153.571, 167.750 153.747 M 289.269 153.693 C 290.242 153.947, 291.592 153.930, 292.269 153.656 C 292.946 153.382, 292.150 153.175, 290.500 153.195 C 288.850 153.215, 288.296 153.439, 289.269 153.693 M 311.750 153.740 C 315.188 153.936, 320.813 153.936, 324.250 153.740 C 327.688 153.545, 324.875 153.385, 318 153.385 C 311.125 153.385, 308.313 153.545, 311.750 153.740 M 83 160.313 C 83 160.485, 84.463 161.948, 86.250 163.563 L 89.500 166.500 86.563 163.250 C 83.825 160.221, 83 159.540, 83 160.313 M 91 169.500 C 92.292 170.875, 93.574 172, 93.849 172 C 94.124 172, 93.292 170.875, 92 169.500 C 90.708 168.125, 89.426 167, 89.151 167 C 88.876 167, 89.708 168.125, 91 169.500 M 94 173.313 C 94 173.485, 95.463 174.948, 97.250 176.563 L 100.500 179.500 97.563 176.250 C 94.825 173.221, 94 172.540, 94 173.313 M 101 181.313 C 101 181.485, 102.463 182.948, 104.250 184.563 L 107.500 187.500 104.563 184.250 C 101.825 181.221, 101 180.540, 101 181.313 M 107 188.313 C 107 188.485, 108.463 189.948, 110.250 191.563 L 113.500 194.500 110.563 191.250 C 107.825 188.221, 107 187.540, 107 188.313 M 116 198.500 C 117.292 199.875, 118.574 201, 118.849 201 C 119.124 201, 118.292 199.875, 117 198.500 C 115.708 197.125, 114.426 196, 114.151 196 C 113.876 196, 114.708 197.125, 116 198.500 M 119 202.313 C 119 202.485, 120.463 203.948, 122.250 205.563 L 125.500 208.500 122.563 205.250 C 119.825 202.221, 119 201.540, 119 202.313 M 452.389 214.500 C 452.390 221.650, 452.550 224.444, 452.742 220.708 C 452.935 216.973, 452.934 211.123, 452.739 207.708 C 452.545 204.294, 452.387 207.350, 452.389 214.500 M 129 213.500 C 130.292 214.875, 131.574 216, 131.849 216 C 132.124 216, 131.292 214.875, 130 213.500 C 128.708 212.125, 127.426 211, 127.151 211 C 126.876 211, 127.708 212.125, 129 213.500 M 132 217.313 C 132 217.485, 133.463 218.948, 135.250 220.563 L 138.500 223.500 135.563 220.250 C 132.825 217.221, 132 216.540, 132 217.313 M 86 224.500 C 87.866 226.425, 89.617 228, 89.892 228 C 90.167 228, 88.866 226.425, 87 224.500 C 85.134 222.575, 83.383 221, 83.108 221 C 82.833 221, 84.134 222.575, 86 224.500 M 138 224.313 C 138 224.485, 139.463 225.948, 141.250 227.563 L 144.500 230.500 141.563 227.250 C 138.825 224.221, 138 223.540, 138 224.313 M 145 232.313 C 145 232.485, 146.463 233.948, 148.250 235.563 L 151.500 238.500 148.563 235.250 C 145.825 232.221, 145 231.540, 145 232.313 M 97 237.500 C 98.866 239.425, 100.617 241, 100.892 241 C 101.167 241, 99.866 239.425, 98 237.500 C 96.134 235.575, 94.383 234, 94.108 234 C 93.833 234, 95.134 235.575, 97 237.500 M 348.250 234.748 C 356.362 234.916, 369.637 234.916, 377.750 234.748 C 385.863 234.580, 379.225 234.442, 363 234.442 C 346.775 234.442, 340.137 234.580, 348.250 234.748 M 156.136 239.924 L 156 243.349 153.250 240.928 C 150.708 238.690, 150.727 238.759, 153.500 241.832 C 156.249 244.878, 156.527 244.983, 156.820 243.078 C 156.995 241.935, 156.944 239.988, 156.706 238.750 C 156.409 237.211, 156.229 237.582, 156.136 239.924 M 110 252.500 C 111.866 254.425, 113.617 256, 113.892 256 C 114.167 256, 112.866 254.425, 111 252.500 C 109.134 250.575, 107.383 249, 107.108 249 C 106.833 249, 108.134 250.575, 110 252.500 M 114 257.313 C 114 257.485, 115.463 258.948, 117.250 260.563 L 120.500 263.500 117.563 260.250 C 114.825 257.221, 114 256.540, 114 257.313 M 124 268.500 C 125.292 269.875, 126.574 271, 126.849 271 C 127.124 271, 126.292 269.875, 125 268.500 C 123.708 267.125, 122.426 266, 122.151 266 C 121.876 266, 122.708 267.125, 124 268.500 M 129 274.500 C 130.292 275.875, 131.574 277, 131.849 277 C 132.124 277, 131.292 275.875, 130 274.500 C 128.708 273.125, 127.426 272, 127.151 272 C 126.876 272, 127.708 273.125, 129 274.500 M 352.250 272.749 C 363.112 272.910, 380.887 272.910, 391.750 272.749 C 402.613 272.587, 393.725 272.455, 372 272.455 C 350.275 272.455, 341.387 272.587, 352.250 272.749 M 132 278.313 C 132 278.485, 133.463 279.948, 135.250 281.563 L 138.500 284.500 135.563 281.250 C 132.825 278.221, 132 277.540, 132 278.313 M 144 292.313 C 144 292.485, 145.463 293.948, 147.250 295.563 L 150.500 298.500 147.563 295.250 C 144.825 292.221, 144 291.540, 144 292.313 M 153.946 303.250 L 157.392 307 169.446 306.785 L 181.500 306.570 169.513 306.251 C 157.593 305.934, 157.506 305.914, 154.013 302.716 L 150.500 299.500 153.946 303.250 M 33.762 306.707 C 35.006 306.946, 36.806 306.937, 37.762 306.687 C 38.718 306.437, 37.700 306.241, 35.500 306.252 C 33.300 306.263, 32.518 306.468, 33.762 306.707 M 196.269 306.693 C 197.242 306.947, 198.592 306.930, 199.269 306.656 C 199.946 306.382, 199.150 306.175, 197.500 306.195 C 195.850 306.215, 195.296 306.439, 196.269 306.693 M 287.762 306.707 C 289.006 306.946, 290.806 306.937, 291.762 306.687 C 292.718 306.437, 291.700 306.241, 289.500 306.252 C 287.300 306.263, 286.518 306.468, 287.762 306.707" stroke="none" fill="#f8dd91" fill-rule="evenodd"/><path d="M 30.667 153.667 C 29.741 154.592, 29.824 305.773, 30.750 306.345 C 31.163 306.600, 31.500 272.202, 31.500 229.905 C 31.500 187.607, 31.462 153, 31.417 153 C 31.371 153, 31.033 153.300, 30.667 153.667 M 79.500 155 C 80.495 156.100, 81.469 157, 81.663 157 C 81.858 157, 81.455 156.100, 80.768 155 C 80.081 153.900, 79.107 153, 78.604 153 C 78.102 153, 78.505 153.900, 79.500 155 M 299.750 153.706 C 300.988 153.944, 303.012 153.944, 304.250 153.706 C 305.488 153.467, 304.475 153.272, 302 153.272 C 299.525 153.272, 298.512 153.467, 299.750 153.706 M 348.750 153.749 C 359.338 153.911, 376.663 153.911, 387.250 153.749 C 397.838 153.587, 389.175 153.454, 368 153.454 C 346.825 153.454, 338.163 153.587, 348.750 153.749 M 156.456 197.500 C 156.456 219.500, 156.588 228.358, 156.749 217.183 C 156.910 206.009, 156.910 188.009, 156.749 177.183 C 156.587 166.358, 156.455 175.500, 156.456 197.500 M 83 159.313 C 83 159.485, 84.463 160.948, 86.250 162.563 L 89.500 165.500 86.563 162.250 C 83.825 159.221, 83 158.540, 83 159.313 M 94.027 171.747 C 94.042 172.161, 96.854 175.451, 100.277 179.057 C 106.281 185.383, 105.461 184.171, 97.699 175.247 C 95.665 172.908, 94.012 171.333, 94.027 171.747 M 107 187.313 C 107 187.485, 108.463 188.948, 110.250 190.563 L 113.500 193.500 110.563 190.250 C 107.825 187.221, 107 186.540, 107 187.313 M 115.997 197.502 C 117.921 199.701, 119.888 201.950, 120.370 202.500 C 120.851 203.050, 120.778 202.600, 120.208 201.500 C 119.638 200.400, 117.671 198.151, 115.836 196.502 L 112.500 193.504 115.997 197.502 M 452.232 199 C 452.232 200.925, 452.438 201.713, 452.689 200.750 C 452.941 199.787, 452.941 198.213, 452.689 197.250 C 452.438 196.287, 452.232 197.075, 452.232 199 M 130.909 214.750 C 134.419 218.738, 137.495 222, 137.745 222 C 138.395 222, 128.393 210.558, 126.288 208.894 C 125.319 208.127, 127.398 210.762, 130.909 214.750 M 78 260.979 L 78 305.958 58.250 306.262 L 38.500 306.567 58.500 306.533 L 78.500 306.500 78.761 262.105 L 79.021 217.709 81.261 219.597 C 83.255 221.279, 83.235 221.185, 81.076 218.743 C 79.742 217.234, 78.505 216, 78.326 216 C 78.147 216, 78 236.240, 78 260.979 M 86.056 225.525 C 88.011 227.711, 91.261 231.525, 93.278 234 C 95.294 236.475, 99.265 240.975, 102.102 244 L 107.260 249.500 102.608 244 C 100.049 240.975, 95.551 235.575, 92.612 232 C 89.674 228.425, 86.197 224.611, 84.885 223.525 C 83.573 222.439, 84.100 223.339, 86.056 225.525 M 144.574 230.500 C 152.788 240.178, 155.003 242.494, 152.225 238.500 C 151.077 236.850, 147.358 232.575, 143.961 229 L 137.784 222.500 144.574 230.500 M 452.232 230 C 452.232 231.925, 452.438 232.713, 452.689 231.750 C 452.941 230.787, 452.941 229.213, 452.689 228.250 C 452.438 227.287, 452.232 228.075, 452.232 230 M 108 251.313 C 108 251.485, 109.463 252.948, 111.250 254.563 L 114.500 257.500 111.563 254.250 C 108.825 251.221, 108 250.540, 108 251.313 M 441 259.500 C 439.708 260.875, 439.067 261.986, 439.576 261.969 C 440.431 261.940, 444.552 257, 443.721 257 C 443.516 257, 442.292 258.125, 441 259.500 M 119 263.500 C 120.292 264.875, 121.574 266, 121.849 266 C 122.124 266, 121.292 264.875, 120 263.500 C 118.708 262.125, 117.426 261, 117.151 261 C 116.876 261, 117.708 262.125, 119 263.500 M 124.054 269.453 C 127.542 274.047, 131.998 279.020, 131.968 278.285 C 131.951 277.853, 129.813 275.229, 127.218 272.453 C 124.623 269.677, 123.199 268.327, 124.054 269.453 M 412.762 272.707 C 414.006 272.946, 415.806 272.937, 416.762 272.687 C 417.718 272.437, 416.700 272.241, 414.500 272.252 C 412.300 272.263, 411.518 272.468, 412.762 272.707 M 137.919 285.750 C 140.879 289.188, 143.499 292, 143.743 292 C 144.405 292, 136.336 282.514, 134.300 280.898 C 133.331 280.129, 134.960 282.313, 137.919 285.750 M 146.707 296.500 C 148.243 298.425, 149.926 300, 150.446 300 C 150.967 300, 149.866 298.425, 148 296.500 C 143.669 292.032, 143.142 292.032, 146.707 296.500 M 151 301.313 C 151 301.485, 152.463 302.948, 154.250 304.563 L 157.500 307.500 154.563 304.250 C 151.825 301.221, 151 300.540, 151 301.313 M 184.250 306.728 C 186.313 306.944, 189.688 306.944, 191.750 306.728 C 193.813 306.513, 192.125 306.336, 188 306.336 C 183.875 306.336, 182.188 306.513, 184.250 306.728 M 301.199 306.744 C 305.984 306.927, 314.084 306.928, 319.199 306.746 C 324.315 306.564, 320.400 306.414, 310.500 306.413 C 300.600 306.412, 296.415 306.561, 301.199 306.744" stroke="none" fill="#fff3c5" fill-rule="evenodd"/><path d="" stroke="none" fill="#feb502" fill-rule="evenodd"/><path d="" stroke="none" fill="#f3b610" fill-rule="evenodd"/><path d="M 31 230 L 31 306 54.500 306 L 78 306 78 261 C 78 236.250, 78.338 216, 78.750 216 C 79.162 215.999, 81.682 218.362, 84.349 221.250 L 89.199 226.500 84.002 220.251 C 81.143 216.815, 78.399 214.254, 77.902 214.560 C 77.388 214.879, 77 234.423, 77 260.059 L 77 305 54.500 305 L 32 305 32 230.083 C 32 171.086, 32.266 155.059, 33.250 154.662 C 33.997 154.361, 33.795 154.126, 32.750 154.079 C 31.098 154.004, 31 158.256, 31 230 M 36.762 154.707 C 38.006 154.946, 39.806 154.937, 40.762 154.687 C 41.718 154.437, 40.700 154.241, 38.500 154.252 C 36.300 154.263, 35.518 154.468, 36.762 154.707 M 63.686 154.733 L 77.873 155.054 84.385 162.862 C 87.967 167.156, 91.705 171.307, 92.692 172.085 C 93.679 172.863, 90.831 169.225, 86.364 164 L 78.242 154.500 63.871 154.456 L 49.500 154.412 63.686 154.733 M 157.455 195.500 C 157.455 216.950, 157.587 225.583, 157.749 214.684 C 157.911 203.785, 157.910 186.235, 157.748 175.684 C 157.587 165.133, 157.454 174.050, 157.455 195.500 M 96.100 176.595 C 97.531 178.193, 103.333 184.900, 108.994 191.500 C 120.562 204.986, 120.640 205.072, 119.484 203 C 118.258 200.803, 95.967 175.087, 94.634 174.333 C 94.010 173.980, 94.670 174.998, 96.100 176.595 M 126.198 211.411 C 134.501 221.449, 154.936 244.842, 155.949 245.468 C 156.451 245.779, 157.187 245.506, 157.585 244.862 C 158.019 244.160, 157.877 243.958, 157.232 244.357 C 156.613 244.739, 148.823 236.491, 138.960 225.011 C 129.504 214.005, 121.570 205, 121.331 205 C 121.091 205, 123.281 207.885, 126.198 211.411 M 90.092 227.705 C 90.585 229.159, 131.049 276, 131.812 276 C 132.107 276, 131.443 274.988, 130.337 273.750 C 126.446 269.399, 107.449 247.328, 103 241.990 C 100.525 239.021, 97.825 235.884, 97 235.019 C 96.175 234.154, 94.191 231.884, 92.592 229.973 C 90.992 228.063, 89.867 227.042, 90.092 227.705 M 144 291 C 150.659 298.700, 156.386 305, 156.728 305 C 157.069 305, 156.448 303.988, 155.347 302.750 C 154.247 301.512, 148.723 295.212, 143.072 288.750 C 137.421 282.288, 132.594 277, 132.345 277 C 132.096 277, 137.341 283.300, 144 291" stroke="none" fill="#f2d26d" fill-rule="evenodd"/><path d="M 156.283 152.918 C 155.388 154.351, 155.042 165.870, 154.960 196.930 C 154.899 220.068, 154.545 238.965, 154.174 238.922 C 153.435 238.837, 144.087 228.083, 137 219.163 C 132.394 213.367, 121.549 201.890, 124.089 205.500 C 124.863 206.600, 128.047 210.425, 131.166 214 C 134.285 217.575, 140.743 225, 145.518 230.500 C 150.293 236, 154.600 240.648, 155.089 240.830 C 155.598 241.018, 156.090 222.389, 156.239 197.330 L 156.500 153.500 167.500 152.948 L 178.500 152.395 169.332 152.198 C 164.289 152.089, 159.563 151.770, 158.830 151.488 C 158.096 151.207, 156.950 151.850, 156.283 152.918 M 399.500 152.057 C 401.700 152.512, 404.625 152.859, 406 152.827 C 407.604 152.791, 407.066 152.473, 404.500 151.943 C 402.300 151.488, 399.375 151.141, 398 151.173 C 396.396 151.209, 396.934 151.527, 399.500 152.057 M 30.653 152.750 C 30.398 153.162, 41.396 153.372, 55.094 153.217 C 68.937 153.059, 80 153.323, 80 153.811 C 80 154.294, 82.301 157.346, 85.113 160.594 C 87.925 163.842, 91.194 167.625, 92.376 169 C 93.558 170.375, 100.482 178.375, 107.763 186.777 C 115.043 195.180, 121 202.567, 121 203.194 C 121 203.821, 121.261 204.072, 121.581 203.752 C 122.138 203.195, 120.345 199.037, 119.100 198 C 118.093 197.161, 109.793 187.834, 104.500 181.592 C 101.750 178.350, 99.026 175.202, 98.448 174.598 C 92.890 168.797, 83.214 156.940, 82.252 154.750 L 81.043 152 56.080 152 C 42.351 152, 30.909 152.338, 30.653 152.750 M 193.250 152.689 C 194.213 152.941, 195.787 152.941, 196.750 152.689 C 197.713 152.438, 196.925 152.232, 195 152.232 C 193.075 152.232, 192.287 152.438, 193.250 152.689 M 286.750 152.706 C 287.988 152.944, 290.012 152.944, 291.250 152.706 C 292.488 152.467, 291.475 152.272, 289 152.272 C 286.525 152.272, 285.512 152.467, 286.750 152.706 M 325.762 152.707 C 327.006 152.946, 328.806 152.937, 329.762 152.687 C 330.718 152.437, 329.700 152.241, 327.500 152.252 C 325.300 152.263, 324.518 152.468, 325.762 152.707 M 411.083 153.361 C 411.313 153.559, 413.525 153.989, 416 154.317 C 419.005 154.714, 419.835 154.617, 418.500 154.026 C 416.590 153.180, 410.215 152.609, 411.083 153.361 M 442 167.500 C 443.866 169.425, 445.617 171, 445.892 171 C 446.167 171, 444.866 169.425, 443 167.500 C 441.134 165.575, 439.383 164, 439.108 164 C 438.833 164, 440.134 165.575, 442 167.500 M 452.721 195.500 C 453.023 199.900, 453.434 203.688, 453.635 203.917 C 454.321 204.700, 453.765 193.507, 452.968 190.500 C 452.497 188.724, 452.396 190.765, 452.721 195.500 M 331.636 197.640 C 330.761 204.023, 330.862 231.236, 331.765 232.646 C 332.169 233.277, 332.500 224.614, 332.500 213.396 C 332.500 202.178, 332.449 192.999, 332.386 193 C 332.323 193, 331.986 195.088, 331.636 197.640 M 401 195.845 C 401 196.480, 401.347 197, 401.771 197 C 402.195 197, 403.599 198.935, 404.890 201.299 C 406.911 204.998, 407.185 206.665, 406.854 213.229 C 406.642 217.427, 406.806 220.329, 407.219 219.680 C 408.486 217.687, 408.080 205.126, 406.638 201.718 C 405.181 198.275, 401 193.920, 401 195.845 M 453.222 219.625 C 453.100 227.944, 452.777 236.269, 452.503 238.125 L 452.007 241.500 453.029 238.260 C 453.603 236.441, 453.919 228.322, 453.748 219.760 L 453.444 204.500 453.222 219.625 M 78.761 262.750 L 78.500 306.500 54.299 306.500 C 40.974 306.500, 30.481 306.883, 30.951 307.352 C 31.965 308.365, 78.201 308.222, 79.147 307.203 C 79.506 306.816, 79.957 287.006, 80.150 263.181 C 80.389 233.627, 80.818 220.421, 81.500 221.622 C 82.050 222.590, 83.400 224.342, 84.500 225.514 C 86.804 227.970, 96.505 239.118, 100.077 243.415 C 101.410 245.018, 104.841 248.843, 107.703 251.915 C 110.564 254.987, 113.706 258.965, 114.683 260.756 C 115.661 262.546, 117.257 264.264, 118.231 264.573 C 119.204 264.882, 120 265.539, 120 266.034 C 120 266.950, 124.810 272.737, 134.517 283.500 C 137.493 286.800, 141.182 291.058, 142.714 292.962 C 147.086 298.395, 151.943 303.567, 151.973 302.821 C 151.988 302.448, 151.369 301.511, 150.597 300.740 C 149.825 299.968, 146.821 296.448, 143.922 292.918 C 141.023 289.388, 136.817 284.475, 134.575 282 C 132.334 279.525, 128.475 275.061, 126 272.081 C 123.525 269.100, 120.825 265.933, 120 265.043 C 119.175 264.153, 115.125 259.427, 111 254.541 C 106.875 249.655, 101.025 242.878, 98 239.480 C 94.975 236.082, 89.814 230.084, 86.532 226.151 C 83.249 222.218, 80.216 219, 79.792 219 C 79.368 219, 78.904 238.688, 78.761 262.750 M 403.606 226.848 L 401.712 229.500 404.050 227.278 C 405.337 226.056, 406.189 224.862, 405.944 224.626 C 405.700 224.389, 404.648 225.389, 403.606 226.848 M 396.500 231.945 C 394.300 232.986, 392.993 233.875, 393.596 233.919 C 394.820 234.009, 401 231.094, 401 230.427 C 401 229.824, 400.941 229.844, 396.500 231.945 M 446.978 252.046 C 444.745 256.815, 437.698 264.998, 433.444 267.764 C 432.375 268.460, 432.850 268.358, 434.500 267.538 C 436.150 266.718, 438.731 264.938, 440.236 263.584 C 443.022 261.075, 450.605 248.271, 449.788 247.455 C 449.541 247.208, 448.277 249.274, 446.978 252.046 M 428 270 C 426.707 270.835, 426.734 270.971, 428.191 270.985 C 429.121 270.993, 430.160 270.550, 430.500 270 C 431.282 268.734, 429.958 268.734, 428 270 M 332.116 275.250 C 332.202 276.927, 332.348 277.057, 332.687 275.761 C 333.110 274.147, 336.273 274.001, 376.321 273.750 L 419.500 273.478 375.750 273.239 L 332 273 332.116 275.250 M 331.219 292.167 C 331.060 302.793, 330.656 306.972, 329.750 307.338 C 328.771 307.733, 328.778 307.859, 329.781 307.921 C 331.850 308.048, 332.076 306.155, 331.749 291.452 L 331.439 277.500 331.219 292.167 M 287.728 307.722 C 289.503 307.943, 292.653 307.946, 294.728 307.730 C 296.802 307.513, 295.350 307.333, 291.500 307.328 C 287.650 307.324, 285.952 307.501, 287.728 307.722" stroke="none" fill="#fffbe1" fill-rule="evenodd"/><path d="" stroke="none" fill="#ce9912" fill-rule="evenodd"/><path d="" stroke="none" fill="#fdb50c" fill-rule="evenodd"/><path d="" stroke="none" fill="#feb805" fill-rule="evenodd"/><path d="" stroke="none" fill="#fdb500" fill-rule="evenodd"/><path d="M 158.036 154.679 C 158.056 155.130, 159.221 156.850, 160.625 158.500 C 162.828 161.089, 163.007 161.160, 161.931 159.021 C 160.543 156.260, 157.980 153.403, 158.036 154.679 M 162.579 157.248 C 162.919 158.321, 163.306 160.167, 163.437 161.350 C 163.734 164.018, 169.401 173.265, 170.231 172.435 C 170.565 172.102, 171.309 172.708, 171.884 173.783 C 172.459 174.858, 172.677 175.990, 172.367 176.299 C 171.602 177.065, 175.185 183.004, 176.079 182.451 C 176.470 182.209, 177.057 182.707, 177.384 183.558 C 177.775 184.577, 177.555 184.886, 176.739 184.465 C 176.057 184.114, 176.625 184.805, 178 186 C 179.375 187.195, 179.868 187.840, 179.096 187.432 C 178.323 187.025, 179.037 188.673, 180.682 191.096 C 182.327 193.518, 184.960 197.894, 186.534 200.820 C 188.107 203.747, 190.241 206.594, 191.275 207.147 C 192.309 207.701, 192.922 208.760, 192.638 209.501 C 192.353 210.243, 193.219 211.568, 194.560 212.448 C 195.902 213.327, 197 214.572, 197 215.214 C 197 215.857, 196.300 215.509, 195.445 214.441 C 193.915 212.532, 193.906 212.533, 194.872 214.500 C 195.412 215.600, 196.547 217.400, 197.395 218.500 C 198.821 220.350, 198.952 219.826, 199.145 211.500 L 199.353 202.500 200 209.500 C 200.356 213.350, 200.782 215.825, 200.947 215 C 201.670 211.392, 200.711 158.392, 199.905 157.404 C 198.788 156.036, 181.247 155.791, 180.418 157.132 C 180.051 157.727, 179.376 157.742, 178.661 157.173 C 178.022 156.664, 174.003 156.035, 169.730 155.773 C 162.376 155.323, 161.993 155.402, 162.579 157.248 M 166 161.500 C 165.011 162.691, 165.009 163.306, 165.991 164.489 C 167.653 166.492, 169.269 165.372, 168.038 163.071 C 167.506 162.076, 167.355 160.979, 167.702 160.631 C 168.049 160.284, 168.088 160, 167.789 160 C 167.490 160, 166.685 160.675, 166 161.500 M 170.652 163.989 C 170.323 165.633, 170.315 167.658, 170.634 168.489 C 171.283 170.179, 173 170.550, 173 169 C 173 168.450, 172.550 168, 172 168 C 171.450 168, 171 167.325, 171 166.500 C 171 165.675, 171.450 165, 172 165 C 172.550 165, 173 165.450, 173 166 C 173 166.550, 173.372 167, 173.827 167 C 174.282 167, 174.455 165.650, 174.213 164 C 173.646 160.132, 171.425 160.126, 170.652 163.989 M 196.320 167 C 196.320 170.575, 196.502 172.037, 196.723 170.250 C 196.945 168.463, 196.945 165.537, 196.723 163.750 C 196.502 161.963, 196.320 163.425, 196.320 167 M 178 180.845 C 178 181.310, 178.970 182.547, 180.155 183.595 L 182.310 185.500 180.540 182.750 C 178.715 179.914, 178 179.378, 178 180.845 M 199.742 220.231 C 199.435 221.029, 199.537 222.251, 199.968 222.947 C 201.137 224.840, 202.322 222.397, 201.203 220.398 C 200.440 219.036, 200.210 219.009, 199.742 220.231 M 200.700 235.341 C 200.417 236.078, 200.587 237.316, 201.077 238.091 C 201.727 239.116, 201.974 238.751, 201.985 236.750 C 202.001 233.764, 201.511 233.226, 200.700 235.341 M 196.115 243.530 C 194.952 245.501, 194 247.790, 194 248.616 C 194 249.442, 193.550 249.840, 193 249.500 C 192.450 249.160, 192 249.528, 192 250.319 C 192 251.109, 191.291 252.344, 190.424 253.063 C 189.314 253.984, 189.024 255.313, 189.443 257.547 C 190.069 260.884, 187.883 264.238, 186.520 262.032 C 185.575 260.503, 183.979 261.783, 184.651 263.532 C 184.975 264.377, 184.638 265.004, 183.857 265.008 C 181.730 265.021, 177.995 272.573, 179.374 274.072 C 180.233 275.004, 180.112 275.159, 178.866 274.723 C 177.706 274.318, 176.693 275.216, 175.366 277.826 C 174.340 279.847, 173.050 281.831, 172.500 282.235 C 171.833 282.724, 171.833 282.980, 172.500 283 C 173.050 283.017, 172.829 283.455, 172.009 283.973 C 171.189 284.492, 170.470 285.498, 170.411 286.208 C 170.134 289.573, 169.938 290.080, 169.113 289.570 C 168.625 289.268, 168.288 289.804, 168.363 290.761 C 168.439 291.723, 167.908 292.377, 167.176 292.225 C 166.447 292.074, 166.131 292.402, 166.472 292.955 C 167.266 294.240, 165.172 298.225, 164.063 297.539 C 163.602 297.254, 163.246 297.579, 163.270 298.261 C 163.382 301.346, 162.917 303, 161.941 303 C 161.359 303, 161.220 302.438, 161.633 301.750 C 162.143 300.901, 161.842 300.940, 160.692 301.872 C 159.761 302.627, 159 303.415, 159 303.622 C 159 303.830, 168.450 304, 180 304 L 201 304 201 273.122 C 201 248.033, 200.740 242.029, 199.615 241.095 C 198.509 240.177, 197.803 240.668, 196.115 243.530 M 175.638 278.500 C 175.240 279.539, 175.706 280, 177.154 280 C 178.899 280, 179.039 279.752, 178 278.500 C 177.315 277.675, 176.633 277, 176.485 277 C 176.336 277, 175.955 277.675, 175.638 278.500 M 164.250 305.739 C 167.412 305.937, 172.588 305.937, 175.750 305.739 C 178.912 305.541, 176.325 305.378, 170 305.378 C 163.675 305.378, 161.088 305.541, 164.250 305.739 M 195.250 305.689 C 196.213 305.941, 197.787 305.941, 198.750 305.689 C 199.713 305.438, 198.925 305.232, 197 305.232 C 195.075 305.232, 194.287 305.438, 195.250 305.689" stroke="none" fill="#928136" fill-rule="evenodd"/><path d="M 158.036 154.679 C 158.056 155.130, 159.221 156.850, 160.625 158.500 C 162.828 161.089, 163.007 161.160, 161.931 159.021 C 160.543 156.260, 157.980 153.403, 158.036 154.679 M 162.579 157.248 C 162.919 158.321, 163.306 160.167, 163.437 161.350 C 163.734 164.018, 169.401 173.265, 170.231 172.435 C 170.565 172.102, 171.309 172.708, 171.884 173.783 C 172.459 174.858, 172.677 175.990, 172.367 176.299 C 171.602 177.065, 175.185 183.004, 176.079 182.451 C 176.470 182.209, 177.057 182.707, 177.384 183.558 C 177.775 184.577, 177.555 184.886, 176.739 184.465 C 176.057 184.114, 176.625 184.805, 178 186 C 179.375 187.195, 179.868 187.840, 179.096 187.432 C 178.323 187.025, 179.037 188.673, 180.682 191.096 C 182.327 193.518, 184.960 197.894, 186.534 200.820 C 188.107 203.747, 190.241 206.594, 191.275 207.147 C 192.309 207.701, 192.922 208.760, 192.638 209.501 C 192.353 210.243, 193.219 211.568, 194.560 212.448 C 195.902 213.327, 197 214.572, 197 215.214 C 197 215.857, 196.300 215.509, 195.445 214.441 C 193.915 212.532, 193.906 212.533, 194.872 214.500 C 195.412 215.600, 196.547 217.400, 197.395 218.500 C 198.821 220.350, 198.952 219.826, 199.145 211.500 L 199.353 202.500 200 209.500 C 200.356 213.350, 200.782 215.825, 200.947 215 C 201.670 211.392, 200.711 158.392, 199.905 157.404 C 198.788 156.036, 181.247 155.791, 180.418 157.132 C 180.051 157.727, 179.376 157.742, 178.661 157.173 C 178.022 156.664, 174.003 156.035, 169.730 155.773 C 162.376 155.323, 161.993 155.402, 162.579 157.248 M 166 161.500 C 165.011 162.691, 165.009 163.306, 165.991 164.489 C 167.653 166.492, 169.269 165.372, 168.038 163.071 C 167.506 162.076, 167.355 160.979, 167.702 160.631 C 168.049 160.284, 168.088 160, 167.789 160 C 167.490 160, 166.685 160.675, 166 161.500 M 170.652 163.989 C 170.323 165.633, 170.315 167.658, 170.634 168.489 C 171.283 170.179, 173 170.550, 173 169 C 173 168.450, 172.550 168, 172 168 C 171.450 168, 171 167.325, 171 166.500 C 171 165.675, 171.450 165, 172 165 C 172.550 165, 173 165.450, 173 166 C 173 166.550, 173.372 167, 173.827 167 C 174.282 167, 174.455 165.650, 174.213 164 C 173.646 160.132, 171.425 160.126, 170.652 163.989 M 196.320 167 C 196.320 170.575, 196.502 172.037, 196.723 170.250 C 196.945 168.463, 196.945 165.537, 196.723 163.750 C 196.502 161.963, 196.320 163.425, 196.320 167 M 178 180.845 C 178 181.310, 178.970 182.547, 180.155 183.595 L 182.310 185.500 180.540 182.750 C 178.715 179.914, 178 179.378, 178 180.845 M 199.742 220.231 C 199.435 221.029, 199.537 222.251, 199.968 222.947 C 201.137 224.840, 202.322 222.397, 201.203 220.398 C 200.440 219.036, 200.210 219.009, 199.742 220.231 M 200.700 235.341 C 200.417 236.078, 200.587 237.316, 201.077 238.091 C 201.727 239.116, 201.974 238.751, 201.985 236.750 C 202.001 233.764, 201.511 233.226, 200.700 235.341 M 196.115 243.530 C 194.952 245.501, 194 247.790, 194 248.616 C 194 249.442, 193.550 249.840, 193 249.500 C 192.450 249.160, 192 249.528, 192 250.319 C 192 251.109, 191.291 252.344, 190.424 253.063 C 189.314 253.984, 189.024 255.313, 189.443 257.547 C 190.069 260.884, 187.883 264.238, 186.520 262.032 C 185.575 260.503, 183.979 261.783, 184.651 263.532 C 184.975 264.377, 184.638 265.004, 183.857 265.008 C 181.730 265.021, 177.995 272.573, 179.374 274.072 C 180.233 275.004, 180.112 275.159, 178.866 274.723 C 177.706 274.318, 176.693 275.216, 175.366 277.826 C 174.340 279.847, 173.050 281.831, 172.500 282.235 C 171.833 282.724, 171.833 282.980, 172.500 283 C 173.050 283.017, 172.829 283.455, 172.009 283.973 C 171.189 284.492, 170.470 285.498, 170.411 286.208 C 170.134 289.573, 169.938 290.080, 169.113 289.570 C 168.625 289.268, 168.288 289.804, 168.363 290.761 C 168.439 291.723, 167.908 292.377, 167.176 292.225 C 166.447 292.074, 166.131 292.402, 166.472 292.955 C 167.266 294.240, 165.172 298.225, 164.063 297.539 C 163.602 297.254, 163.246 297.579, 163.270 298.261 C 163.382 301.346, 162.917 303, 161.941 303 C 161.359 303, 161.220 302.438, 161.633 301.750 C 162.143 300.901, 161.842 300.940, 160.692 301.872 C 159.761 302.627, 159 303.415, 159 303.622 C 159 303.830, 168.450 304, 180 304 L 201 304 201 273.122 C 201 248.033, 200.740 242.029, 199.615 241.095 C 198.509 240.177, 197.803 240.668, 196.115 243.530 M 175.638 278.500 C 175.240 279.539, 175.706 280, 177.154 280 C 178.899 280, 179.039 279.752, 178 278.500 C 177.315 277.675, 176.633 277, 176.485 277 C 176.336 277, 175.955 277.675, 175.638 278.500 M 164.250 305.739 C 167.412 305.937, 172.588 305.937, 175.750 305.739 C 178.912 305.541, 176.325 305.378, 170 305.378 C 163.675 305.378, 161.088 305.541, 164.250 305.739 M 195.250 305.689 C 196.213 305.941, 197.787 305.941, 198.750 305.689 C 199.713 305.438, 198.925 305.232, 197 305.232 C 195.075 305.232, 194.287 305.438, 195.250 305.689" stroke="none" fill="#928136" fill-rule="evenodd"/><path d="M 159 154.574 C 159 154.855, 159.465 155.628, 160.034 156.292 C 160.603 156.956, 161.722 158.400, 162.520 159.500 C 163.848 161.328, 163.882 161.228, 162.916 158.330 C 162.336 156.587, 161.217 154.913, 160.430 154.612 C 159.644 154.310, 159 154.293, 159 154.574 M 170.962 155.746 C 174.516 155.944, 177.963 156.554, 178.623 157.102 C 179.432 157.774, 180.058 157.715, 180.549 156.921 C 181.029 156.144, 183.184 155.910, 186.888 156.232 C 189.975 156.501, 193.850 156.386, 195.500 155.978 C 197.150 155.570, 190.850 155.270, 181.500 155.311 C 172.150 155.352, 167.408 155.548, 170.962 155.746 M 166 161.500 C 165.011 162.691, 165.009 163.306, 165.991 164.489 C 167.653 166.492, 169.269 165.372, 168.038 163.071 C 167.506 162.076, 167.355 160.979, 167.702 160.631 C 168.049 160.284, 168.088 160, 167.789 160 C 167.490 160, 166.685 160.675, 166 161.500 M 170.652 163.989 C 170.323 165.633, 170.315 167.658, 170.634 168.489 C 171.283 170.179, 173 170.550, 173 169 C 173 168.450, 172.550 168, 172 168 C 171.450 168, 171 167.325, 171 166.500 C 171 165.675, 171.450 165, 172 165 C 172.550 165, 173 165.450, 173 166 C 173 166.550, 173.372 167, 173.827 167 C 174.282 167, 174.455 165.650, 174.213 164 C 173.646 160.132, 171.425 160.126, 170.652 163.989 M 196.320 167 C 196.320 170.575, 196.502 172.037, 196.723 170.250 C 196.945 168.463, 196.945 165.537, 196.723 163.750 C 196.502 161.963, 196.320 163.425, 196.320 167 M 178 180.845 C 178 181.310, 178.970 182.547, 180.155 183.595 L 182.310 185.500 180.540 182.750 C 178.715 179.914, 178 179.378, 178 180.845 M 199.349 211 C 199.349 215.675, 199.522 217.588, 199.732 215.250 C 199.943 212.912, 199.943 209.088, 199.732 206.750 C 199.522 204.412, 199.349 206.325, 199.349 211 M 199.574 238.667 C 199.222 239.584, 199.399 240.799, 199.967 241.367 C 200.678 242.078, 201 241.557, 201 239.700 C 201 236.615, 200.501 236.253, 199.574 238.667 M 187.351 259.536 C 186.737 260.837, 186.478 262.145, 186.775 262.442 C 187.570 263.236, 190 260.971, 190 259.437 C 190 257.064, 188.491 257.120, 187.351 259.536 M 175.638 278.500 C 175.240 279.539, 175.706 280, 177.154 280 C 178.899 280, 179.039 279.752, 178 278.500 C 177.315 277.675, 176.633 277, 176.485 277 C 176.336 277, 175.955 277.675, 175.638 278.500 M 167.980 290.524 C 167.284 291.362, 166.968 292.301, 167.276 292.610 C 167.585 292.919, 168.340 292.233, 168.954 291.086 C 170.264 288.638, 169.778 288.358, 167.980 290.524 M 162 301 C 161.409 302.105, 161.341 303, 161.848 303 C 162.353 303, 163.002 302.100, 163.290 301 C 163.577 299.900, 163.646 299, 163.442 299 C 163.237 299, 162.589 299.900, 162 301 M 169.250 304.746 C 175.162 304.923, 184.838 304.923, 190.750 304.746 C 196.662 304.569, 191.825 304.425, 180 304.425 C 168.175 304.425, 163.338 304.569, 169.250 304.746" stroke="none" fill="#918035" fill-rule="evenodd"/><path d="" stroke="none" fill="#918034" fill-rule="evenodd"/><path d="M 178.614 154.748 C 195.234 155.004, 197.929 155.268, 199.268 156.771 C 200.559 158.220, 200.856 162.946, 201.104 186 C 201.266 201.125, 201.094 214.400, 200.721 215.500 C 200.349 216.600, 200.689 219.300, 201.478 221.500 C 202.773 225.111, 202.916 222.024, 202.956 189.750 L 203 154 181.250 154.227 L 159.500 154.454 178.614 154.748 M 288.500 155 C 287.293 155.519, 294.704 155.887, 307.191 155.930 C 319.984 155.973, 328.118 155.618, 328.500 155 C 329.273 153.750, 291.409 153.750, 288.500 155 M 284.082 235.250 C 284.037 236.762, 284.486 238, 285.079 238 C 285.742 238, 285.921 239.084, 285.542 240.811 C 285.202 242.356, 285.340 244.719, 285.848 246.061 L 286.771 248.500 287.954 245.951 C 288.958 243.789, 288.760 242.576, 286.651 237.951 C 284.534 233.312, 284.152 232.910, 284.082 235.250 M 201.642 237.750 C 200.572 244.221, 200.896 305, 202 305 C 202.648 305, 203 292.500, 203 269.500 C 203 249.975, 202.834 234, 202.631 234 C 202.428 234, 201.983 235.688, 201.642 237.750 M 294.433 256.875 C 294.745 258.731, 295.007 262.781, 295.015 265.875 C 295.028 271.069, 295.127 271.309, 296.297 269 C 296.995 267.625, 298.306 266.494, 299.212 266.487 C 300.118 266.480, 301.191 266.143, 301.596 265.737 C 302.002 265.332, 301.808 265, 301.167 265 C 300.525 265, 300 264.185, 300 263.189 C 300 262.192, 299.182 260.499, 298.183 259.427 C 297.184 258.354, 295.804 256.582, 295.116 255.488 C 294.008 253.725, 293.931 253.882, 294.433 256.875 M 321.500 301 C 321.160 301.550, 321.809 302, 322.941 302 C 324.073 302, 325 301.550, 325 301 C 325 300.450, 324.352 300, 323.559 300 C 322.766 300, 321.840 300.450, 321.500 301 M 285 304 C 283.995 304.649, 287.790 304.923, 296.500 304.827 C 308.080 304.701, 308.735 304.607, 302.500 303.967 C 292.131 302.903, 286.682 302.913, 285 304 M 321 304 C 316.650 304.676, 316.716 304.704, 323 304.834 C 327.521 304.928, 329.043 304.674, 328 304 C 327.175 303.467, 326.275 303.091, 326 303.166 C 325.725 303.240, 323.475 303.615, 321 304" stroke="none" fill="#808748" fill-rule="evenodd"/><path d="M 203 229.427 C 203 300.401, 202.897 304.883, 201.250 305.361 C 200.114 305.691, 200.304 305.804, 201.788 305.685 L 204.077 305.500 204.288 229.750 C 204.405 188.087, 204.162 154, 203.750 154 C 203.338 154, 203 187.942, 203 229.427 M 282.755 228.750 C 282.895 269.862, 283.219 304.063, 283.474 304.750 C 283.830 305.710, 289.342 305.948, 307.219 305.778 L 330.500 305.556 307.314 305.028 L 284.128 304.500 284.314 231.500 C 284.416 191.350, 284.725 157.825, 285 157 C 285.275 156.175, 286.625 155.216, 288 154.868 C 290.005 154.362, 289.708 154.213, 286.500 154.118 L 282.500 154 282.755 228.750 M 183.728 305.722 C 185.503 305.943, 188.653 305.946, 190.728 305.730 C 192.802 305.513, 191.350 305.333, 187.500 305.328 C 183.650 305.324, 181.952 305.501, 183.728 305.722" stroke="none" fill="#7d9577" fill-rule="evenodd"/><path d="" stroke="none" fill="#5fb0d5" fill-rule="evenodd"/><path d="M 277.435 158.895 C 278.099 159.970, 275.202 161.243, 273.910 160.444 C 273.409 160.135, 273 160.661, 273 161.612 C 273 162.564, 272.399 164.053, 271.665 164.921 C 270.931 165.790, 269.365 168.113, 268.186 170.083 C 266.581 172.768, 266.390 173.667, 267.426 173.667 C 268.187 173.667, 268.622 173.179, 268.392 172.583 C 268.114 171.862, 269.817 171.614, 273.487 171.843 L 279 172.185 279.077 166.843 C 279.119 163.904, 279.304 160.713, 279.488 159.750 C 279.684 158.725, 279.214 158, 278.352 158 C 277.544 158, 277.131 158.403, 277.435 158.895 M 279.694 237.750 C 278.821 241.218, 278.989 246, 279.984 246 C 280.543 246, 281 243.750, 281 241 C 281 235.899, 280.484 234.614, 279.694 237.750 M 270.623 251.540 C 270.280 252.433, 270 258.560, 270 265.155 C 270 276.037, 270.162 277.115, 271.750 276.810 C 273.309 276.509, 273.500 275.063, 273.500 263.570 C 273.500 254.889, 273.131 250.544, 272.373 250.291 C 271.753 250.084, 270.966 250.646, 270.623 251.540 M 261.118 274 C 260.942 276.418, 260.888 276.437, 259.468 274.559 C 258.661 273.491, 258 272.961, 258 273.381 C 258 274.651, 263.107 282.950, 264.345 283.692 C 264.980 284.072, 264.825 283.549, 264 282.529 C 262.856 281.115, 262.797 280.575, 263.750 280.254 C 264.502 280.001, 264.968 278.172, 264.919 275.667 L 264.838 271.500 263.513 274.500 L 262.188 277.500 261.744 274.500 C 261.353 271.860, 261.278 271.800, 261.118 274 M 275.667 294.667 C 274.516 295.817, 274.938 297, 276.500 297 C 277.325 297, 278 297.498, 278 298.107 C 278 298.716, 277.325 298.955, 276.500 298.638 C 274.583 297.903, 274.555 299.386, 276.456 300.964 C 278.598 302.741, 280 301.347, 280 297.441 C 280 294.771, 279.589 294, 278.167 294 C 277.158 294, 276.033 294.300, 275.667 294.667" stroke="none" fill="#5fb0da" fill-rule="evenodd"/><path d="M 204.509 156.250 C 204.218 157.488, 204.097 191.350, 204.240 231.500 L 204.500 304.500 208.419 304.500 C 211.581 304.500, 212.642 303.993, 213.919 301.872 C 229.760 275.550, 242.865 254.991, 243.772 255.037 C 244.429 255.070, 248.916 262.073, 261.890 283.313 C 274.758 304.381, 275.180 304.907, 279.250 304.955 L 283 305 283 231 C 283 161.196, 282.901 156.999, 281.250 156.985 C 279.782 156.972, 279.737 156.819, 280.971 156.039 C 283.142 154.666, 281.750 153.900, 278.327 154.585 C 275.730 155.104, 273.828 157.580, 263.922 173.342 C 256.742 184.766, 252.565 192.391, 252.659 193.903 C 252.754 195.449, 252.526 195.851, 252.018 195.030 C 251.472 194.146, 250.410 195.150, 248.569 198.292 C 247.106 200.788, 245.334 203.308, 244.630 203.892 C 243.172 205.102, 242.423 204.021, 223.195 173 C 220.638 168.875, 218.182 165.050, 217.738 164.500 C 217.293 163.950, 215.605 161.363, 213.987 158.750 C 211.534 154.791, 210.544 154, 208.041 154 C 205.750 154, 204.913 154.534, 204.509 156.250 M 277.435 158.895 C 278.099 159.970, 275.202 161.243, 273.910 160.444 C 273.409 160.135, 273 160.809, 273 161.941 C 273 163.073, 272.502 164, 271.893 164 C 271.284 164, 271.054 164.698, 271.382 165.552 C 271.710 166.408, 271.551 166.840, 271.027 166.517 C 270.504 166.194, 269.189 167.670, 268.103 169.798 C 266.614 172.716, 266.459 173.667, 267.469 173.667 C 268.206 173.667, 268.622 173.179, 268.392 172.583 C 268.114 171.862, 269.817 171.614, 273.487 171.843 L 279 172.185 279.077 166.843 C 279.119 163.904, 279.304 160.713, 279.488 159.750 C 279.684 158.725, 279.214 158, 278.352 158 C 277.544 158, 277.131 158.403, 277.435 158.895 M 254.989 190.021 C 253.837 192.174, 254.528 194.410, 256.054 193.467 C 256.823 192.991, 257.063 188, 256.317 188 C 256.181 188, 255.584 188.909, 254.989 190.021 M 279.980 221.524 C 279.284 222.362, 278.968 223.301, 279.276 223.610 C 279.585 223.919, 280.340 223.233, 280.954 222.086 C 282.264 219.638, 281.778 219.358, 279.980 221.524 M 279.694 237.750 C 278.821 241.218, 278.989 246, 279.984 246 C 280.543 246, 281 243.750, 281 241 C 281 235.899, 280.484 234.614, 279.694 237.750 M 270.623 251.540 C 270.280 252.433, 270 258.560, 270 265.155 C 270 276.037, 270.162 277.115, 271.750 276.810 C 273.309 276.509, 273.500 275.063, 273.500 263.570 C 273.500 254.889, 273.131 250.544, 272.373 250.291 C 271.753 250.084, 270.966 250.646, 270.623 251.540 M 261 273.378 C 261 274.270, 260.550 275, 260 275 C 259.450 275, 259 274.475, 259 273.833 C 259 273.192, 258.754 272.913, 258.453 273.213 C 257.800 273.867, 261.628 281.448, 263.315 282.843 C 264.203 283.576, 264.552 282.276, 264.709 277.661 C 264.824 274.272, 264.668 272.081, 264.362 272.792 C 263.935 273.783, 263.480 273.813, 262.403 272.919 C 261.297 272.002, 261 272.099, 261 273.378 M 275 295.500 C 273.960 296.753, 274.104 297, 275.878 297 C 277.045 297, 278 297.498, 278 298.107 C 278 298.716, 277.325 298.955, 276.500 298.638 C 274.583 297.903, 274.555 299.386, 276.456 300.964 C 278.598 302.741, 280 301.347, 280 297.441 C 280 294.741, 279.595 294, 278.122 294 C 277.090 294, 275.685 294.675, 275 295.500" stroke="none" fill="#61add0" fill-rule="evenodd"/><path d="" stroke="none" fill="#85cfeb" fill-rule="evenodd"/><path d="M 205.750 153.706 C 206.988 153.944, 209.012 153.944, 210.250 153.706 C 211.488 153.467, 210.475 153.272, 208 153.272 C 205.525 153.272, 204.512 153.467, 205.750 153.706 M 273.872 154.750 C 272.672 156.280, 272.691 156.351, 274.025 155.314 C 274.864 154.662, 277.789 153.955, 280.525 153.744 L 285.500 153.360 280.372 153.180 C 276.527 153.045, 274.902 153.438, 273.872 154.750 M 213.038 154.500 C 213.041 155.050, 213.965 156.625, 215.089 158 C 216.448 159.661, 216.787 159.828, 216.101 158.500 C 214.415 155.238, 213.030 153.430, 213.038 154.500 M 219.074 164.500 C 220.309 166.700, 221.749 168.950, 222.274 169.500 C 223.772 171.069, 220.347 164.734, 218.490 162.500 C 217.576 161.400, 217.839 162.300, 219.074 164.500 M 263.255 171.250 C 261.840 173.037, 259.849 177, 260.366 177 C 260.606 177, 261.732 175.425, 262.867 173.500 C 264.931 170.002, 265.123 168.891, 263.255 171.250 M 226.242 176.250 C 227.052 177.488, 229.167 180.863, 230.943 183.750 C 232.719 186.637, 234.385 189, 234.645 189 C 235.188 189, 235.011 188.684, 229.732 180.250 C 227.581 176.813, 225.584 174, 225.295 174 C 225.006 174, 225.433 175.012, 226.242 176.250 M 252.511 188.623 C 251.566 190.066, 251.287 190.941, 251.891 190.567 C 253.045 189.854, 255.374 186, 254.650 186 C 254.419 186, 253.457 187.180, 252.511 188.623 M 245.188 199.960 C 242.735 203.278, 242.196 205.626, 244.605 202.500 C 246.444 200.114, 248.210 197, 247.723 197 C 247.532 197, 246.391 198.332, 245.188 199.960 M 240.511 260.623 C 239.566 262.066, 239.287 262.941, 239.891 262.567 C 241.045 261.854, 243.374 258, 242.650 258 C 242.419 258, 241.457 259.180, 240.511 260.623 M 233.097 272.560 C 231.942 274.518, 231.451 275.840, 232.005 275.497 C 233.089 274.827, 236.335 269, 235.624 269 C 235.390 269, 234.252 270.602, 233.097 272.560 M 259.693 283.077 C 260.687 284.769, 262.139 286.682, 262.920 287.327 C 263.701 287.972, 263.079 286.587, 261.537 284.250 C 258.300 279.342, 257.024 278.530, 259.693 283.077 M 223.804 287.250 C 223.020 288.488, 221.349 291.300, 220.090 293.500 C 218.111 296.960, 218.079 297.163, 219.851 295 C 222.190 292.147, 226.355 285, 225.679 285 C 225.432 285, 224.588 286.012, 223.804 287.250 M 213.043 304.448 C 212.382 305.245, 209.739 306.064, 207.170 306.268 L 202.500 306.640 207.095 306.820 C 210.574 306.956, 212.130 306.514, 213.500 305 C 214.495 303.900, 215.070 303, 214.777 303 C 214.485 303, 213.704 303.652, 213.043 304.448 M 273.872 305.250 C 274.902 306.562, 276.527 306.955, 280.372 306.820 L 285.500 306.640 280.525 306.256 C 277.789 306.045, 274.864 305.338, 274.025 304.686 C 272.691 303.649, 272.672 303.720, 273.872 305.250" stroke="none" fill="#d4fcff" fill-rule="evenodd"/><path d="" stroke="none" fill="#85cfeb" fill-rule="evenodd"/><path d="M 204.509 156.250 C 204.218 157.488, 204.097 191.350, 204.240 231.500 L 204.500 304.500 208.419 304.500 C 211.581 304.500, 212.642 303.993, 213.919 301.872 C 229.760 275.550, 242.865 254.991, 243.772 255.037 C 244.429 255.070, 248.916 262.073, 261.890 283.313 C 274.758 304.381, 275.180 304.907, 279.250 304.955 L 283 305 283 231 C 283 161.196, 282.901 156.999, 281.250 156.985 C 279.782 156.972, 279.737 156.819, 280.971 156.039 C 283.142 154.666, 281.750 153.900, 278.327 154.585 C 275.730 155.104, 273.828 157.580, 263.922 173.342 C 256.742 184.766, 252.565 192.391, 252.659 193.903 C 252.754 195.449, 252.526 195.851, 252.018 195.030 C 251.472 194.146, 250.410 195.150, 248.569 198.292 C 247.106 200.788, 245.334 203.308, 244.630 203.892 C 243.172 205.102, 242.423 204.021, 223.195 173 C 220.638 168.875, 218.182 165.050, 217.738 164.500 C 217.293 163.950, 215.605 161.363, 213.987 158.750 C 211.534 154.791, 210.544 154, 208.041 154 C 205.750 154, 204.913 154.534, 204.509 156.250 M 277.435 158.895 C 278.099 159.970, 275.202 161.243, 273.910 160.444 C 273.409 160.135, 273 160.809, 273 161.941 C 273 163.073, 272.502 164, 271.893 164 C 271.284 164, 271.054 164.698, 271.382 165.552 C 271.710 166.408, 271.551 166.840, 271.027 166.517 C 270.504 166.194, 269.189 167.670, 268.103 169.798 C 266.614 172.716, 266.459 173.667, 267.469 173.667 C 268.206 173.667, 268.622 173.179, 268.392 172.583 C 268.114 171.862, 269.817 171.614, 273.487 171.843 L 279 172.185 279.077 166.843 C 279.119 163.904, 279.304 160.713, 279.488 159.750 C 279.684 158.725, 279.214 158, 278.352 158 C 277.544 158, 277.131 158.403, 277.435 158.895 M 254.989 190.021 C 253.837 192.174, 254.528 194.410, 256.054 193.467 C 256.823 192.991, 257.063 188, 256.317 188 C 256.181 188, 255.584 188.909, 254.989 190.021 M 279.980 221.524 C 279.284 222.362, 278.968 223.301, 279.276 223.610 C 279.585 223.919, 280.340 223.233, 280.954 222.086 C 282.264 219.638, 281.778 219.358, 279.980 221.524 M 279.694 237.750 C 278.821 241.218, 278.989 246, 279.984 246 C 280.543 246, 281 243.750, 281 241 C 281 235.899, 280.484 234.614, 279.694 237.750 M 270.623 251.540 C 270.280 252.433, 270 258.560, 270 265.155 C 270 276.037, 270.162 277.115, 271.750 276.810 C 273.309 276.509, 273.500 275.063, 273.500 263.570 C 273.500 254.889, 273.131 250.544, 272.373 250.291 C 271.753 250.084, 270.966 250.646, 270.623 251.540 M 261 273.378 C 261 274.270, 260.550 275, 260 275 C 259.450 275, 259 274.475, 259 273.833 C 259 273.192, 258.754 272.913, 258.453 273.213 C 257.800 273.867, 261.628 281.448, 263.315 282.843 C 264.203 283.576, 264.552 282.276, 264.709 277.661 C 264.824 274.272, 264.668 272.081, 264.362 272.792 C 263.935 273.783, 263.480 273.813, 262.403 272.919 C 261.297 272.002, 261 272.099, 261 273.378 M 275 295.500 C 273.960 296.753, 274.104 297, 275.878 297 C 277.045 297, 278 297.498, 278 298.107 C 278 298.716, 277.325 298.955, 276.500 298.638 C 274.583 297.903, 274.555 299.386, 276.456 300.964 C 278.598 302.741, 280 301.347, 280 297.441 C 280 294.741, 279.595 294, 278.122 294 C 277.090 294, 275.685 294.675, 275 295.500" stroke="none" fill="#61add0" fill-rule="evenodd"/><path d="M 273.750 152.392 C 272.788 153.123, 272 154.559, 272 155.583 C 272 157.245, 272.167 157.206, 273.557 155.223 C 274.586 153.753, 276.195 152.976, 278.307 152.930 C 280.998 152.870, 281.185 152.724, 279.500 152 C 276.713 150.802, 275.759 150.867, 273.750 152.392 M 208.835 152.954 C 211.219 153.341, 213.582 154.297, 214.086 155.079 C 214.589 155.860, 217.727 161, 221.058 166.500 C 224.389 172, 228.026 177.625, 229.141 179 C 230.433 180.594, 230.209 179.869, 228.523 177 C 227.068 174.525, 225.346 171.375, 224.696 170 C 224.046 168.625, 223.157 167.050, 222.721 166.500 C 222.284 165.950, 220.168 162.745, 218.019 159.378 C 213.822 152.804, 212.577 151.931, 207.668 152.125 C 204.965 152.232, 205.136 152.354, 208.835 152.954 M 265.440 166.750 C 264.456 168.262, 263.099 169.950, 262.426 170.500 C 261.753 171.050, 260.875 172.625, 260.476 174 C 259.862 176.117, 264.115 170.722, 267.374 165.250 C 268.847 162.776, 267.190 164.062, 265.440 166.750 M 256.255 181.250 C 254.840 183.037, 252.849 187, 253.366 187 C 253.606 187, 254.732 185.425, 255.867 183.500 C 257.931 180.002, 258.123 178.891, 256.255 181.250 M 231.964 183.836 C 232.623 185.120, 233.436 185.897, 233.771 185.562 C 234.107 185.227, 233.568 184.176, 232.574 183.226 C 230.846 181.576, 230.819 181.603, 231.964 183.836 M 250.494 190.006 C 249.496 191.110, 248.915 192.249, 249.204 192.537 C 249.493 192.826, 250.475 191.923, 251.388 190.531 C 253.381 187.490, 252.983 187.256, 250.494 190.006 M 245.414 198.491 C 244.516 199.862, 243.380 200.735, 242.891 200.432 C 242.401 200.130, 242 200.359, 242 200.941 C 242 202.914, 243.854 202.014, 246 199 C 247.175 197.350, 247.891 196, 247.591 196 C 247.291 196, 246.312 197.121, 245.414 198.491 M 242.638 258.500 C 242.291 259.405, 242.633 260, 243.500 260 C 244.290 260, 244.721 260.563, 244.457 261.252 C 244.193 261.941, 244.882 263.070, 245.988 263.761 C 248.513 265.337, 248.502 264.966, 245.901 260.557 C 243.514 256.511, 243.423 256.454, 242.638 258.500 M 235.440 269.947 C 233.823 272.641, 229.725 279.380, 226.332 284.923 C 222.940 290.465, 220.547 295, 221.014 295 C 221.482 295, 224.870 289.938, 228.545 283.750 C 232.219 277.563, 235.625 272.350, 236.113 272.167 C 236.601 271.983, 237 271.061, 237 270.117 C 237 269.172, 237.532 267.868, 238.183 267.217 C 238.834 266.566, 239.145 265.812, 238.874 265.540 C 238.603 265.269, 237.058 267.252, 235.440 269.947 M 256.965 279.932 C 258.069 282.095, 259.402 284.130, 259.929 284.456 C 260.455 284.781, 259.748 283.012, 258.357 280.524 C 255.252 274.967, 254.206 274.523, 256.965 279.932 M 260.666 286.731 C 260.359 287.228, 260.983 288.267, 262.054 289.039 C 263.124 289.810, 264 290.798, 264 291.235 C 264 292.404, 268.387 298.973, 269.177 298.988 C 269.864 299, 263.703 288.303, 262.100 286.700 C 261.601 286.201, 260.985 286.215, 260.666 286.731 M 215.688 301.678 C 213.632 304.801, 212.772 306.612, 213.777 305.702 C 215.497 304.145, 220.535 296, 219.778 296 C 219.585 296, 217.745 298.555, 215.688 301.678 M 270 300.520 C 270 300.806, 271.131 302.831, 272.513 305.020 C 274.624 308.364, 275.542 308.989, 278.263 308.930 C 280.043 308.891, 282.400 308.473, 283.500 308 C 284.967 307.370, 284.091 307.122, 280.216 307.070 C 275.268 307.004, 274.802 306.778, 272.867 303.500 C 270.949 300.248, 270 299.262, 270 300.520" stroke="none" fill="#ebffff" fill-rule="evenodd"/><path d="" stroke="none" fill="#85cfeb" fill-rule="evenodd"/><path d="" stroke="none" fill="#5cb0d4" fill-rule="evenodd"/><path d="M 214.330 159.453 C 216.073 162.462, 217.833 164.942, 218.241 164.963 C 219.082 165.005, 213.291 155.298, 212 154.500 C 211.537 154.214, 212.586 156.443, 214.330 159.453 M 274.381 155.250 C 273.976 155.938, 272.996 157.625, 272.204 159 L 270.763 161.500 272.859 159 C 274.012 157.625, 274.966 156.194, 274.978 155.820 C 274.990 155.445, 276.012 154.944, 277.250 154.706 C 279.499 154.273, 279.499 154.272, 277.309 154.136 C 276.104 154.061, 274.786 154.563, 274.381 155.250 M 259.255 179.250 C 257.840 181.037, 255.849 185, 256.366 185 C 256.606 185, 257.732 183.425, 258.867 181.500 C 260.931 178.002, 261.123 176.891, 259.255 179.250 M 228.467 181.937 C 229.302 183.552, 230.440 185.154, 230.995 185.497 C 231.549 185.840, 231.058 184.518, 229.903 182.560 C 227.370 178.267, 226.338 177.819, 228.467 181.937 M 251.880 191.250 C 251.225 192.488, 250.036 194.625, 249.239 196 C 247.850 198.395, 247.859 198.416, 249.465 196.500 C 250.387 195.400, 251.593 194.624, 252.145 194.775 C 252.697 194.926, 252.869 194.598, 252.528 194.045 C 252.187 193.493, 252.394 192.132, 252.989 191.021 C 253.584 189.909, 253.845 189, 253.570 189 C 253.295 189, 252.535 190.012, 251.880 191.250 M 236.693 195.077 C 237.687 196.769, 239.139 198.682, 239.920 199.327 C 240.701 199.972, 240.079 198.588, 238.537 196.250 C 235.300 191.342, 234.024 190.530, 236.693 195.077 M 236.692 264.750 C 233.109 270.510, 232.847 271, 233.355 271 C 233.615 271, 235.213 268.750, 236.905 266 C 238.597 263.250, 239.766 261, 239.503 261 C 239.240 261, 237.975 262.688, 236.692 264.750 M 248.546 263 C 250.830 267.079, 256.121 275, 256.561 275 C 257.157 275, 250.242 263.939, 248.746 262.500 C 248.034 261.815, 247.971 261.973, 248.546 263 M 212.450 303.933 C 211.928 304.446, 209.700 305.046, 207.500 305.265 L 203.500 305.664 207.628 305.832 C 210.249 305.939, 212.209 305.453, 213 304.500 C 214.365 302.855, 213.966 302.444, 212.450 303.933 M 274.252 304 C 274.536 305.055, 276.116 305.532, 279.578 305.608 L 284.500 305.715 280.016 305.289 C 277.550 305.054, 275.154 304.331, 274.690 303.681 C 274.108 302.865, 273.973 302.963, 274.252 304" stroke="none" fill="#87c1db" fill-rule="evenodd"/><path d="" stroke="none" fill="#5cb1d9" fill-rule="evenodd"/><path d="" stroke="none" fill="#5cb0dd" fill-rule="evenodd"/><path d="" stroke="none" fill="#5cb0df" fill-rule="evenodd"/><path d="" stroke="none" fill="#5ab1dc" fill-rule="evenodd"/><path d="" stroke="none" fill="#5ab1dc" fill-rule="evenodd"/><path d="M 309.535 185.587 C 308.603 187.009, 308.012 188.346, 308.223 188.556 C 308.433 188.766, 309.394 187.602, 310.359 185.969 C 312.514 182.321, 311.871 182.022, 309.535 185.587 M 290.512 212.980 C 290.106 213.637, 290.224 214.624, 290.774 215.174 C 292.077 216.477, 293.113 214.801, 292.059 213.095 C 291.444 212.101, 291.073 212.073, 290.512 212.980 M 287.573 220.521 C 286.513 221.323, 285.878 222.212, 286.162 222.496 C 286.447 222.780, 287.496 222.110, 288.494 221.006 C 290.621 218.657, 290.277 218.476, 287.573 220.521" stroke="none" fill="#7b9c28" fill-rule="evenodd"/><path d="" stroke="none" fill="#afc820" fill-rule="evenodd"/><path d="M 285.127 157.620 C 283.839 160.448, 283.727 216.498, 285 221.500 C 285.522 223.551, 285.801 223.859, 285.882 222.473 C 285.947 221.357, 286.608 219.557, 287.351 218.473 C 288.094 217.388, 288.996 215.286, 289.357 213.803 C 289.717 212.320, 291.334 210.325, 292.951 209.370 C 294.568 208.415, 295.673 207.280, 295.407 206.849 C 295.140 206.418, 296.286 203.688, 297.952 200.783 C 299.618 197.877, 300.985 196.138, 300.991 196.917 C 301.007 199.406, 302.290 197.143, 302.492 194.268 C 302.844 189.263, 302.987 188.876, 304.250 189.515 C 304.938 189.863, 304.633 189.445, 303.573 188.584 C 301.408 186.827, 301.524 186.549, 304.849 185.526 C 306.904 184.893, 307.114 185.065, 306.531 186.901 C 306.165 188.056, 306.297 189, 306.826 189 C 308.127 189, 309.276 185.805, 308.236 185.080 C 307.778 184.761, 307.339 183.453, 307.258 182.174 C 307.141 180.302, 307.382 180.073, 308.495 180.996 C 309.599 181.912, 310.588 181.173, 313.414 177.321 C 315.359 174.670, 316.968 171.375, 316.991 170 C 317.022 168.015, 317.230 167.809, 318 169 C 318.788 170.219, 318.972 170.089, 318.985 168.307 C 318.993 167.100, 319.910 165.476, 321.022 164.697 C 324.714 162.111, 320.993 160.894, 306.439 159.925 C 298.928 159.425, 292.473 159.208, 292.094 159.442 C 291.715 159.676, 290.751 159.455, 289.952 158.949 C 289.039 158.371, 295.332 158.025, 306.917 158.015 C 317.046 158.007, 325.138 157.805, 324.899 157.566 C 324.661 157.327, 316.823 157.030, 307.483 156.906 C 298.142 156.782, 289.545 156.335, 288.377 155.913 C 286.694 155.305, 286.021 155.658, 285.127 157.620 M 303.459 181.067 C 303.096 181.653, 303.040 182.373, 303.333 182.667 C 304.050 183.383, 306 182.121, 306 180.941 C 306 179.663, 304.274 179.748, 303.459 181.067 M 284 239.500 C 284 240.325, 284.450 241, 285 241 C 285.550 241, 286 240.325, 286 239.500 C 286 238.675, 285.550 238, 285 238 C 284.450 238, 284 238.675, 284 239.500 M 288.135 245.532 L 286.771 248.500 285.635 246 C 284.749 244.047, 284.439 249.630, 284.219 271.500 C 283.951 298.260, 284.318 305.574, 285.819 303.416 C 286.203 302.864, 293.871 302.304, 303.402 302.132 C 320.229 301.829, 324.334 301.033, 323.277 298.279 C 322.856 297.182, 322.379 297.252, 320.853 298.633 C 318.678 300.602, 317.753 299.940, 316.209 295.309 C 315.454 293.045, 315.457 292.014, 316.217 291.761 C 316.806 291.565, 315.585 288.838, 313.503 285.702 L 309.717 280 302.858 280 L 296 280 296 276.500 C 296 273.083, 296.095 273, 300 273 C 304.259 273, 304.841 272.028, 302.715 268.465 C 301.060 265.694, 297.838 265.963, 296.297 269 C 295.145 271.273, 295.011 270.864, 294.827 264.500 C 294.716 260.650, 294.545 256.375, 294.447 255 C 294.349 253.625, 294.209 251.623, 294.135 250.550 C 294.047 249.277, 293.660 248.940, 293.020 249.580 C 292.457 250.143, 291.925 259.882, 291.770 272.460 C 291.513 293.317, 291.417 294.276, 289.750 292.608 C 288.218 291.076, 287.972 288.401, 287.780 271.179 L 287.559 251.500 286.984 273.500 L 286.408 295.500 286.273 272.773 C 286.199 260.273, 286.445 250.148, 286.819 250.273 C 287.194 250.398, 287.574 250.100, 287.665 249.612 C 287.755 249.123, 288.357 248.397, 289.002 247.999 C 289.647 247.600, 290.023 246.214, 289.837 244.919 C 289.511 242.641, 289.455 242.661, 288.135 245.532 M 312 279.321 C 312 279.753, 313.125 281.762, 314.500 283.785 C 315.875 285.809, 317 287.111, 317 286.679 C 317 286.247, 315.875 284.238, 314.500 282.215 C 313.125 280.191, 312 278.889, 312 279.321 M 310.750 304.706 C 311.988 304.944, 314.012 304.944, 315.250 304.706 C 316.488 304.467, 315.475 304.272, 313 304.272 C 310.525 304.272, 309.512 304.467, 310.750 304.706" stroke="none" fill="#729632" fill-rule="evenodd"/><path d="M 285.127 157.620 C 283.839 160.448, 283.727 216.498, 285 221.500 C 285.522 223.551, 285.801 223.859, 285.882 222.473 C 285.947 221.357, 286.608 219.557, 287.351 218.473 C 288.094 217.388, 288.996 215.286, 289.357 213.803 C 289.717 212.320, 291.334 210.325, 292.951 209.370 C 294.568 208.415, 295.673 207.280, 295.407 206.849 C 295.140 206.418, 296.286 203.688, 297.952 200.783 C 299.618 197.877, 300.985 196.138, 300.991 196.917 C 301.007 199.406, 302.290 197.143, 302.492 194.268 C 302.844 189.263, 302.987 188.876, 304.250 189.515 C 304.938 189.863, 304.633 189.445, 303.573 188.584 C 301.408 186.827, 301.524 186.549, 304.849 185.526 C 306.904 184.893, 307.114 185.065, 306.531 186.901 C 306.165 188.056, 306.297 189, 306.826 189 C 308.127 189, 309.276 185.805, 308.236 185.080 C 307.778 184.761, 307.339 183.453, 307.258 182.174 C 307.141 180.302, 307.382 180.073, 308.495 180.996 C 309.599 181.912, 310.588 181.173, 313.414 177.321 C 315.359 174.670, 316.968 171.375, 316.991 170 C 317.022 168.015, 317.230 167.809, 318 169 C 318.788 170.219, 318.972 170.089, 318.985 168.307 C 318.993 167.100, 319.910 165.476, 321.022 164.697 C 324.714 162.111, 320.993 160.894, 306.439 159.925 C 298.928 159.425, 292.473 159.208, 292.094 159.442 C 291.715 159.676, 290.751 159.455, 289.952 158.949 C 289.039 158.371, 295.332 158.025, 306.917 158.015 C 317.046 158.007, 325.138 157.805, 324.899 157.566 C 324.661 157.327, 316.823 157.030, 307.483 156.906 C 298.142 156.782, 289.545 156.335, 288.377 155.913 C 286.694 155.305, 286.021 155.658, 285.127 157.620 M 303.459 181.067 C 303.096 181.653, 303.040 182.373, 303.333 182.667 C 304.050 183.383, 306 182.121, 306 180.941 C 306 179.663, 304.274 179.748, 303.459 181.067 M 284 239.500 C 284 240.325, 284.450 241, 285 241 C 285.550 241, 286 240.325, 286 239.500 C 286 238.675, 285.550 238, 285 238 C 284.450 238, 284 238.675, 284 239.500 M 288.135 245.532 L 286.771 248.500 285.635 246 C 284.749 244.047, 284.439 249.630, 284.219 271.500 C 283.951 298.260, 284.318 305.574, 285.819 303.416 C 286.203 302.864, 293.871 302.304, 303.402 302.132 C 320.229 301.829, 324.334 301.033, 323.277 298.279 C 322.856 297.182, 322.379 297.252, 320.853 298.633 C 318.678 300.602, 317.753 299.940, 316.209 295.309 C 315.454 293.045, 315.457 292.014, 316.217 291.761 C 316.806 291.565, 315.585 288.838, 313.503 285.702 L 309.717 280 302.858 280 L 296 280 296 276.500 C 296 273.083, 296.095 273, 300 273 C 304.259 273, 304.841 272.028, 302.715 268.465 C 301.060 265.694, 297.838 265.963, 296.297 269 C 295.145 271.273, 295.011 270.864, 294.827 264.500 C 294.716 260.650, 294.545 256.375, 294.447 255 C 294.349 253.625, 294.209 251.623, 294.135 250.550 C 294.047 249.277, 293.660 248.940, 293.020 249.580 C 292.457 250.143, 291.925 259.882, 291.770 272.460 C 291.513 293.317, 291.417 294.276, 289.750 292.608 C 288.218 291.076, 287.972 288.401, 287.780 271.179 L 287.559 251.500 286.984 273.500 L 286.408 295.500 286.273 272.773 C 286.199 260.273, 286.445 250.148, 286.819 250.273 C 287.194 250.398, 287.574 250.100, 287.665 249.612 C 287.755 249.123, 288.357 248.397, 289.002 247.999 C 289.647 247.600, 290.023 246.214, 289.837 244.919 C 289.511 242.641, 289.455 242.661, 288.135 245.532 M 312 279.321 C 312 279.753, 313.125 281.762, 314.500 283.785 C 315.875 285.809, 317 287.111, 317 286.679 C 317 286.247, 315.875 284.238, 314.500 282.215 C 313.125 280.191, 312 278.889, 312 279.321 M 310.750 304.706 C 311.988 304.944, 314.012 304.944, 315.250 304.706 C 316.488 304.467, 315.475 304.272, 313 304.272 C 310.525 304.272, 309.512 304.467, 310.750 304.706" stroke="none" fill="#729632" fill-rule="evenodd"/><path d="M 311.500 156.978 L 325.500 157.586 307 157.808 C 295.286 157.949, 289.033 158.368, 289.952 158.949 C 290.751 159.455, 291.715 159.676, 292.094 159.442 C 293.463 158.596, 320.270 160.870, 321.322 161.922 C 321.915 162.515, 322.748 163, 323.174 163 C 323.864 163, 327 157.791, 327 156.646 C 327 156.397, 320.363 156.233, 312.250 156.281 L 297.500 156.370 311.500 156.978 M 318.985 168.417 C 318.972 170.128, 318.796 170.232, 318 169 C 317.230 167.809, 317.022 168.015, 316.991 170 C 316.968 171.375, 315.359 174.670, 313.414 177.321 C 310.330 181.524, 309.668 181.973, 308.251 180.821 C 306.853 179.685, 306.716 179.740, 307.270 181.221 C 307.987 183.133, 305.682 186, 303.429 186 C 301.480 186, 301.621 187.641, 303.636 188.414 C 305.133 188.988, 305.137 189.191, 303.682 190.799 C 302.807 191.766, 302.168 193.575, 302.261 194.818 L 302.432 197.079 304.138 194.818 C 305.076 193.574, 305.656 192.253, 305.428 191.883 C 305.199 191.512, 305.784 190.913, 306.728 190.551 C 308.012 190.058, 308.128 189.697, 307.188 189.116 C 305.666 188.176, 306.773 184.699, 308.396 185.322 C 309.022 185.562, 312.254 181.388, 315.578 176.046 C 319.067 170.440, 321.068 166.333, 320.311 166.333 C 319.590 166.333, 318.993 167.271, 318.985 168.417 M 303.459 181.067 C 303.096 181.653, 303.040 182.373, 303.333 182.667 C 304.050 183.383, 306 182.121, 306 180.941 C 306 179.663, 304.274 179.748, 303.459 181.067 M 297.684 201.193 C 296.143 203.955, 295.140 206.474, 295.457 206.790 C 296.702 208.035, 302.199 198.940, 301.189 197.306 C 300.770 196.628, 299.361 198.189, 297.684 201.193 M 291.646 210.452 C 290.191 211.801, 289 213.617, 289 214.487 C 289 215.358, 288.273 217.180, 287.385 218.535 C 286.427 219.997, 286.214 221, 286.862 221 C 288.408 221, 291.302 216.298, 290.527 215.044 C 290.172 214.470, 290.190 213.502, 290.566 212.893 C 291.032 212.139, 291.455 212.118, 291.894 212.828 C 292.255 213.413, 293.277 212.582, 294.222 210.935 C 296.275 207.358, 295.202 207.157, 291.646 210.452 M 289.787 245 C 290.051 246.801, 289.782 248, 289.113 248 C 288.501 248, 288.113 248.563, 288.250 249.250 C 288.387 249.938, 287.969 250.398, 287.319 250.273 C 286.437 250.103, 286.173 255.781, 286.273 272.773 L 286.408 295.500 286.984 273.500 L 287.559 251.500 287.780 271.179 C 287.972 288.401, 288.218 291.076, 289.750 292.608 C 291.417 294.276, 291.513 293.319, 291.770 272.508 C 291.918 260.490, 292.454 250.158, 292.960 249.548 C 293.548 248.840, 293.143 247.274, 291.842 245.220 C 290.721 243.449, 289.701 242, 289.575 242 C 289.449 242, 289.545 243.350, 289.787 245 M 294.588 252.500 C 294.989 254.150, 296.339 256.850, 297.587 258.501 C 299.827 261.462, 304 270.300, 304 272.083 C 304 272.587, 302.200 273, 300 273 C 296.095 273, 296 273.083, 296 276.500 L 296 280 302.858 280 L 309.717 280 313.503 285.702 C 315.585 288.838, 316.806 291.565, 316.217 291.761 C 315.457 292.014, 315.454 293.045, 316.209 295.309 C 317.759 299.958, 318.678 300.602, 320.897 298.593 C 322.761 296.906, 322.888 296.923, 324.001 299.003 C 324.640 300.195, 324.908 301.426, 324.597 301.737 C 324.286 302.048, 317.612 302.205, 309.766 302.087 C 299.451 301.932, 295.799 302.175, 296.579 302.965 C 297.285 303.680, 302.471 303.962, 311.567 303.779 C 327.224 303.465, 328.287 302.871, 323.459 297.133 C 322.009 295.410, 321.120 294, 321.484 294 C 321.847 294, 321.212 292.814, 320.073 291.365 C 318.933 289.916, 318 288.089, 318 287.306 C 318 286.473, 317.514 286.182, 316.830 286.605 C 316.048 287.088, 315.868 286.787, 316.286 285.696 C 316.631 284.798, 316.413 283.755, 315.802 283.378 C 315.089 282.937, 314.952 283.195, 315.420 284.095 C 315.820 284.868, 315.454 284.646, 314.606 283.603 C 313.758 282.559, 313.344 281.252, 313.687 280.698 C 314.052 280.107, 313.804 280.003, 313.088 280.446 C 312.308 280.928, 311.981 280.673, 312.183 279.740 C 312.357 278.937, 310.976 275.854, 309.114 272.890 C 293.724 248.393, 293.520 248.108, 294.588 252.500" stroke="none" fill="#75972f" fill-rule="evenodd"/><path d="M 311.500 156.978 L 325.500 157.586 307 157.808 C 295.286 157.949, 289.033 158.368, 289.952 158.949 C 290.751 159.455, 291.715 159.676, 292.094 159.442 C 293.463 158.596, 320.270 160.870, 321.322 161.922 C 321.915 162.515, 322.748 163, 323.174 163 C 323.864 163, 327 157.791, 327 156.646 C 327 156.397, 320.363 156.233, 312.250 156.281 L 297.500 156.370 311.500 156.978 M 318.985 168.417 C 318.972 170.128, 318.796 170.232, 318 169 C 317.230 167.809, 317.022 168.015, 316.991 170 C 316.968 171.375, 315.359 174.670, 313.414 177.321 C 310.330 181.524, 309.668 181.973, 308.251 180.821 C 306.853 179.685, 306.716 179.740, 307.270 181.221 C 307.987 183.133, 305.682 186, 303.429 186 C 301.480 186, 301.621 187.641, 303.636 188.414 C 305.133 188.988, 305.137 189.191, 303.682 190.799 C 302.807 191.766, 302.168 193.575, 302.261 194.818 L 302.432 197.079 304.138 194.818 C 305.076 193.574, 305.656 192.253, 305.428 191.883 C 305.199 191.512, 305.784 190.913, 306.728 190.551 C 308.012 190.058, 308.128 189.697, 307.188 189.116 C 305.666 188.176, 306.773 184.699, 308.396 185.322 C 309.022 185.562, 312.254 181.388, 315.578 176.046 C 319.067 170.440, 321.068 166.333, 320.311 166.333 C 319.590 166.333, 318.993 167.271, 318.985 168.417 M 303.459 181.067 C 303.096 181.653, 303.040 182.373, 303.333 182.667 C 304.050 183.383, 306 182.121, 306 180.941 C 306 179.663, 304.274 179.748, 303.459 181.067 M 297.684 201.193 C 296.143 203.955, 295.140 206.474, 295.457 206.790 C 296.702 208.035, 302.199 198.940, 301.189 197.306 C 300.770 196.628, 299.361 198.189, 297.684 201.193 M 291.646 210.452 C 290.191 211.801, 289 213.617, 289 214.487 C 289 215.358, 288.273 217.180, 287.385 218.535 C 286.427 219.997, 286.214 221, 286.862 221 C 288.408 221, 291.302 216.298, 290.527 215.044 C 290.172 214.470, 290.190 213.502, 290.566 212.893 C 291.032 212.139, 291.455 212.118, 291.894 212.828 C 292.255 213.413, 293.277 212.582, 294.222 210.935 C 296.275 207.358, 295.202 207.157, 291.646 210.452 M 289.787 245 C 290.051 246.801, 289.782 248, 289.113 248 C 288.501 248, 288.113 248.563, 288.250 249.250 C 288.387 249.938, 287.969 250.398, 287.319 250.273 C 286.437 250.103, 286.173 255.781, 286.273 272.773 L 286.408 295.500 286.984 273.500 L 287.559 251.500 287.780 271.179 C 287.972 288.401, 288.218 291.076, 289.750 292.608 C 291.417 294.276, 291.513 293.319, 291.770 272.508 C 291.918 260.490, 292.454 250.158, 292.960 249.548 C 293.548 248.840, 293.143 247.274, 291.842 245.220 C 290.721 243.449, 289.701 242, 289.575 242 C 289.449 242, 289.545 243.350, 289.787 245 M 294.588 252.500 C 294.989 254.150, 296.339 256.850, 297.587 258.501 C 299.827 261.462, 304 270.300, 304 272.083 C 304 272.587, 302.200 273, 300 273 C 296.095 273, 296 273.083, 296 276.500 L 296 280 302.858 280 L 309.717 280 313.503 285.702 C 315.585 288.838, 316.806 291.565, 316.217 291.761 C 315.457 292.014, 315.454 293.045, 316.209 295.309 C 317.759 299.958, 318.678 300.602, 320.897 298.593 C 322.761 296.906, 322.888 296.923, 324.001 299.003 C 324.640 300.195, 324.908 301.426, 324.597 301.737 C 324.286 302.048, 317.612 302.205, 309.766 302.087 C 299.451 301.932, 295.799 302.175, 296.579 302.965 C 297.285 303.680, 302.471 303.962, 311.567 303.779 C 327.224 303.465, 328.287 302.871, 323.459 297.133 C 322.009 295.410, 321.120 294, 321.484 294 C 321.847 294, 321.212 292.814, 320.073 291.365 C 318.933 289.916, 318 288.089, 318 287.306 C 318 286.473, 317.514 286.182, 316.830 286.605 C 316.048 287.088, 315.868 286.787, 316.286 285.696 C 316.631 284.798, 316.413 283.755, 315.802 283.378 C 315.089 282.937, 314.952 283.195, 315.420 284.095 C 315.820 284.868, 315.454 284.646, 314.606 283.603 C 313.758 282.559, 313.344 281.252, 313.687 280.698 C 314.052 280.107, 313.804 280.003, 313.088 280.446 C 312.308 280.928, 311.981 280.673, 312.183 279.740 C 312.357 278.937, 310.976 275.854, 309.114 272.890 C 293.724 248.393, 293.520 248.108, 294.588 252.500" stroke="none" fill="#75972f" fill-rule="evenodd"/><path d="" stroke="none" fill="#759520" fill-rule="evenodd"/><path d="" stroke="none" fill="#c6d618" fill-rule="evenodd"/><path d="" stroke="none" fill="#c4d601" fill-rule="evenodd"/><path d="" stroke="none" fill="#85a116" fill-rule="evenodd"/><path d="M 330.447 192.277 C 330.178 192.979, 330.079 202.761, 330.229 214.014 C 330.459 231.355, 330.729 234.491, 332 234.583 C 332.939 234.652, 333.018 234.533, 332.213 234.266 C 331.204 233.931, 330.987 229.201, 331.213 212.419 C 331.371 200.637, 331.373 190.999, 331.219 190.999 C 331.064 191, 330.717 191.575, 330.447 192.277 M 408.343 211.500 C 408.346 215.900, 408.522 217.576, 408.733 215.224 C 408.945 212.872, 408.942 209.272, 408.727 207.224 C 408.512 205.176, 408.339 207.100, 408.343 211.500 M 393.269 234.693 C 394.242 234.947, 395.592 234.930, 396.269 234.656 C 396.946 234.382, 396.150 234.175, 394.500 234.195 C 392.850 234.215, 392.296 234.439, 393.269 234.693 M 330.389 285.500 C 330.390 292.650, 330.550 295.444, 330.742 291.708 C 330.935 287.973, 330.934 282.123, 330.739 278.708 C 330.545 275.294, 330.387 278.350, 330.389 285.500" stroke="none" fill="#dde771" fill-rule="evenodd"/><path d="" stroke="none" fill="#bed203" fill-rule="evenodd"/><path d="M 443.710 174 C 443.998 175.100, 444.647 176, 445.152 176 C 445.659 176, 445.591 175.105, 445 174 C 444.411 172.900, 443.763 172, 443.558 172 C 443.354 172, 443.423 172.900, 443.710 174 M 347.250 191.748 C 355.913 191.915, 370.087 191.915, 378.750 191.748 C 387.413 191.582, 380.325 191.445, 363 191.445 C 345.675 191.445, 338.587 191.582, 347.250 191.748 M 451.272 198 C 451.272 200.475, 451.467 201.488, 451.706 200.250 C 451.944 199.012, 451.944 196.988, 451.706 195.750 C 451.467 194.512, 451.272 195.525, 451.272 198 M 451.195 229.500 C 451.215 231.150, 451.439 231.704, 451.693 230.731 C 451.947 229.758, 451.930 228.408, 451.656 227.731 C 451.382 227.054, 451.175 227.850, 451.195 229.500 M 438.872 260.654 C 438.118 261.563, 435.475 263.580, 433 265.135 C 430.525 266.690, 428.846 267.971, 429.270 267.981 C 430.552 268.013, 437.373 263.402, 439.405 261.130 C 440.453 259.958, 441.070 259, 440.777 259 C 440.485 259, 439.627 259.744, 438.872 260.654 M 330.252 301.500 C 330.263 303.700, 330.468 304.482, 330.707 303.238 C 330.946 301.994, 330.937 300.194, 330.687 299.238 C 330.437 298.282, 330.241 299.300, 330.252 301.500" stroke="none" fill="#dce771" fill-rule="evenodd"/><path d="M 348.815 152.749 C 358.888 152.912, 375.088 152.912, 384.815 152.748 C 394.542 152.585, 386.300 152.451, 366.500 152.451 C 346.700 152.452, 338.742 152.586, 348.815 152.749 M 407.269 153.693 C 408.242 153.947, 409.592 153.930, 410.269 153.656 C 410.946 153.382, 410.150 153.175, 408.500 153.195 C 406.850 153.215, 406.296 153.439, 407.269 153.693 M 441.556 168.063 C 443.725 170.573, 445.703 172.470, 445.951 172.279 C 446.199 172.088, 444.424 170.034, 442.007 167.716 L 437.611 163.500 441.556 168.063 M 348.312 192.748 C 357.009 192.915, 370.959 192.915, 379.312 192.748 C 387.666 192.581, 380.550 192.444, 363.500 192.445 C 346.450 192.445, 339.616 192.582, 348.312 192.748 M 331.232 196 C 331.232 197.925, 331.438 198.713, 331.689 197.750 C 331.941 196.787, 331.941 195.213, 331.689 194.250 C 331.438 193.287, 331.232 194.075, 331.232 196 M 402 229.500 C 400.708 230.875, 399.081 232, 398.385 232 C 397.688 232, 396.866 232.408, 396.558 232.907 C 396.249 233.405, 396.853 233.590, 397.898 233.316 C 399.616 232.867, 406.084 227, 404.861 227 C 404.579 227, 403.292 228.125, 402 229.500 M 331.195 275.500 C 331.215 277.150, 331.439 277.704, 331.693 276.731 C 331.947 275.758, 331.930 274.408, 331.656 273.731 C 331.382 273.054, 331.175 273.850, 331.195 275.500" stroke="none" fill="#ffffd3" fill-rule="evenodd"/><path d="M 443.710 174 C 443.998 175.100, 444.647 176, 445.152 176 C 445.659 176, 445.591 175.105, 445 174 C 444.411 172.900, 443.763 172, 443.558 172 C 443.354 172, 443.423 172.900, 443.710 174 M 347.250 191.748 C 355.913 191.915, 370.087 191.915, 378.750 191.748 C 387.413 191.582, 380.325 191.445, 363 191.445 C 345.675 191.445, 338.587 191.582, 347.250 191.748 M 451.272 198 C 451.272 200.475, 451.467 201.488, 451.706 200.250 C 451.944 199.012, 451.944 196.988, 451.706 195.750 C 451.467 194.512, 451.272 195.525, 451.272 198 M 451.195 229.500 C 451.215 231.150, 451.439 231.704, 451.693 230.731 C 451.947 229.758, 451.930 228.408, 451.656 227.731 C 451.382 227.054, 451.175 227.850, 451.195 229.500 M 438.872 260.654 C 438.118 261.563, 435.475 263.580, 433 265.135 C 430.525 266.690, 428.846 267.971, 429.270 267.981 C 430.552 268.013, 437.373 263.402, 439.405 261.130 C 440.453 259.958, 441.070 259, 440.777 259 C 440.485 259, 439.627 259.744, 438.872 260.654 M 330.252 301.500 C 330.263 303.700, 330.468 304.482, 330.707 303.238 C 330.946 301.994, 330.937 300.194, 330.687 299.238 C 330.437 298.282, 330.241 299.300, 330.252 301.500" stroke="none" fill="#dce771" fill-rule="evenodd"/><path d="M 331.876 155.171 C 330.450 156.337, 320.506 171.019, 317.429 176.500 C 314.907 180.992, 298.499 207.782, 295.993 211.500 C 294.510 213.700, 293.516 216.175, 293.785 217 C 294.054 217.825, 293.913 218.164, 293.473 217.753 C 293.032 217.341, 290.927 219.919, 288.794 223.481 L 284.915 229.956 289.995 238.228 C 292.789 242.778, 295.620 247.376, 296.287 248.446 C 296.954 249.516, 299.379 253.407, 301.676 257.091 C 303.973 260.775, 306.898 265.698, 308.176 268.030 C 309.454 270.363, 310.950 272.998, 311.500 273.887 C 312.050 274.776, 315.828 280.903, 319.896 287.502 C 323.964 294.101, 327.902 300.159, 328.646 300.964 C 329.789 302.201, 330 300.062, 330 287.214 L 330 272 373 272 C 403.771 272, 416 271.685, 416 270.893 C 416 270.284, 416.660 270.039, 417.467 270.349 C 419.628 271.178, 427.835 268.420, 433.087 265.099 C 435.610 263.504, 439.210 260.259, 441.087 257.887 C 442.964 255.516, 443.879 253.959, 443.120 254.427 C 442.159 255.020, 441.881 254.857, 442.204 253.889 C 442.458 253.125, 443.304 252.500, 444.083 252.500 C 444.863 252.500, 445.556 251.938, 445.625 251.250 C 445.694 250.563, 445.860 249.662, 445.993 249.250 C 446.127 248.838, 446.184 248.162, 446.118 247.750 C 446.053 247.337, 446.379 247, 446.842 247 C 448.102 247, 449.750 240.589, 451.082 230.500 C 453.400 212.952, 450.172 180.627, 445.827 177.872 C 445.097 177.409, 444.950 177.017, 445.500 177 C 446.149 176.980, 446.142 176.712, 445.480 176.235 C 444.918 175.831, 443.904 174.237, 443.225 172.694 C 442.547 171.150, 441.543 170.165, 440.994 170.504 C 440.445 170.843, 439.596 170.081, 439.108 168.810 C 437.602 164.897, 428.214 159, 423.491 159 C 422.056 159, 421.134 158.592, 421.442 158.093 C 421.751 157.595, 421.102 157.422, 420.001 157.710 C 418.901 157.998, 418 157.773, 418 157.210 C 418 156.648, 417.098 156.423, 415.995 156.712 C 414.892 157, 413.248 156.620, 412.341 155.868 C 409.928 153.865, 334.272 153.210, 331.876 155.171 M 331.174 190.871 C 329.621 191.856, 329.474 194.692, 329.775 217.774 L 330 235.048 365.120 234.974 L 400.241 234.901 403.589 230.893 C 407.871 225.768, 408.988 221.597, 408.994 210.700 C 409 201.497, 407.725 197.321, 404.140 194.811 C 403.111 194.090, 402.242 193.061, 402.209 192.525 C 402.122 191.090, 400 190.623, 400 192.039 C 400 192.967, 399.658 192.961, 398.513 192.011 C 397.695 191.332, 396.321 191.046, 395.461 191.377 C 394.561 191.722, 394.156 191.557, 394.507 190.989 C 395.268 189.757, 333.113 189.642, 331.174 190.871" stroke="none" fill="#c0d11f" fill-rule="evenodd"/><path d="" stroke="none" fill="#bfd301" fill-rule="evenodd"/><path d="" stroke="none" fill="#c4d102" fill-rule="evenodd"/><path d="M 330.254 155.250 C 328.308 157.706, 323.984 165, 324.475 165 C 324.750 165, 326.154 163.088, 327.596 160.750 C 329.038 158.412, 330.929 155.938, 331.800 155.250 C 332.670 154.563, 332.901 154, 332.314 154 C 331.726 154, 330.799 154.563, 330.254 155.250 M 419.500 158 C 420.600 158.473, 422.175 158.859, 423 158.859 C 423.945 158.859, 423.761 158.542, 422.500 158 C 421.400 157.527, 419.825 157.141, 419 157.141 C 418.055 157.141, 418.239 157.458, 419.500 158 M 347.813 190.749 C 356.785 190.914, 371.185 190.914, 379.813 190.748 C 388.441 190.581, 381.100 190.446, 363.500 190.446 C 345.900 190.447, 338.841 190.583, 347.813 190.749 M 400 192 C 400 192.550, 400.702 193, 401.559 193 C 402.416 193, 402.840 192.550, 402.500 192 C 402.160 191.450, 401.459 191, 400.941 191 C 400.423 191, 400 191.450, 400 192 M 329.232 198 C 329.232 199.925, 329.438 200.713, 329.689 199.750 C 329.941 198.787, 329.941 197.213, 329.689 196.250 C 329.438 195.287, 329.232 196.075, 329.232 198" stroke="none" fill="#b3c921" fill-rule="evenodd"/><path d="" stroke="none" fill="#c7d401" fill-rule="evenodd"/><path d="" stroke="none" fill="#c9d302" fill-rule="evenodd"/><path d="" stroke="none" fill="#c5d303" fill-rule="evenodd"/><path d="M 329.278 155.250 C 327.779 157.188, 326.836 159, 327.326 159 C 327.570 159, 328.507 157.875, 329.408 156.500 C 331.094 153.927, 331 153.024, 329.278 155.250 M 298.467 254.937 C 299.302 256.552, 300.440 258.154, 300.995 258.497 C 301.549 258.840, 301.058 257.518, 299.903 255.560 C 297.370 251.267, 296.338 250.819, 298.467 254.937" stroke="none" fill="#a5be1d" fill-rule="evenodd"/><path d="" stroke="none" fill="#c7d303" fill-rule="evenodd"/><path d="" stroke="none" fill="#c6d302" fill-rule="evenodd"/><path d="" stroke="none" fill="#c6d202" fill-rule="evenodd"/><path d="" stroke="none" fill="#c7d302" fill-rule="evenodd"/><path d="M 0 227.002 L 0 454.004 238.250 453.752 L 476.500 453.500 476.752 226.750 L 477.004 0 238.502 0 L 0 0 0 227.002 M 0.491 227.500 C 0.491 352.350, 0.608 403.574, 0.750 341.330 C 0.892 279.087, 0.892 176.937, 0.750 114.330 C 0.608 51.724, 0.491 102.650, 0.491 227.500 M 156.271 152.937 C 155.392 154.345, 155.041 166.104, 154.960 196.930 C 154.899 220.068, 154.545 238.965, 154.174 238.922 C 153.427 238.836, 143.968 227.944, 137.016 219.163 C 134.549 216.049, 129.937 210.840, 126.766 207.590 C 123.595 204.340, 121 201.334, 121 200.911 C 121 200.489, 120.438 199.537, 119.750 198.796 C 115.421 194.132, 108.803 186.666, 104.500 181.592 C 101.750 178.350, 99.026 175.202, 98.448 174.598 C 92.874 168.781, 83.213 156.937, 82.244 154.733 L 81.027 151.966 55.764 152.233 L 30.500 152.500 30.244 229.444 C 30.093 274.586, 30.363 306.763, 30.895 307.295 C 31.947 308.347, 78.167 308.258, 79.147 307.203 C 79.506 306.816, 79.957 287.006, 80.150 263.181 C 80.389 233.627, 80.818 220.421, 81.500 221.622 C 82.050 222.590, 83.400 224.342, 84.500 225.514 C 86.804 227.970, 96.505 239.118, 100.077 243.415 C 101.410 245.018, 104.841 248.843, 107.703 251.915 C 110.564 254.987, 113.706 258.965, 114.683 260.756 C 115.661 262.546, 117.257 264.264, 118.231 264.573 C 119.204 264.882, 120 265.539, 120 266.034 C 120 266.950, 124.810 272.737, 134.517 283.500 C 137.493 286.800, 141.182 291.075, 142.714 293 C 144.246 294.925, 147.412 298.487, 149.750 300.915 C 152.088 303.343, 154 305.712, 154 306.180 C 154 306.647, 167.387 306.911, 183.750 306.765 L 213.500 306.500 216.736 301.500 C 218.516 298.750, 220.600 295.825, 221.369 295 C 222.137 294.175, 225.572 288.775, 229.002 283 C 232.432 277.225, 235.635 272.350, 236.119 272.167 C 236.604 271.983, 237 271.208, 237 270.444 C 237 268.077, 241.709 260.518, 243.395 260.177 C 244.415 259.971, 244.801 260.356, 244.462 261.240 C 244.150 262.051, 244.980 263.187, 246.465 263.981 C 247.859 264.727, 249 265.697, 249 266.135 C 249 266.574, 250.688 269.598, 252.750 272.855 C 258.272 281.576, 260.421 285.378, 260.463 286.500 C 260.483 287.050, 261.178 288.175, 262.007 289 C 262.836 289.825, 264.145 291.730, 264.917 293.233 C 265.688 294.736, 267.035 296.761, 267.910 297.733 C 268.784 298.705, 270.400 301.220, 271.500 303.323 C 272.600 305.426, 274.001 307.568, 274.614 308.083 C 275.308 308.666, 281.157 308.623, 290.114 307.969 C 298.026 307.391, 310.575 307.009, 318 307.120 L 331.500 307.322 332.088 290.911 C 332.411 281.885, 332.749 274.413, 332.838 274.306 C 332.927 274.199, 353.363 273.974, 378.250 273.806 C 409.589 273.594, 424.115 273.152, 425.500 272.367 C 426.600 271.744, 429.566 270.169, 432.090 268.867 C 439.061 265.273, 442.598 261.805, 446.397 254.840 C 453.285 242.214, 454.003 238.465, 453.976 215.282 C 453.949 192.759, 453.492 189.383, 448.919 177.893 C 443.164 163.437, 429.031 154.548, 408.500 152.471 C 402.100 151.824, 371.886 151.854, 307 152.574 C 293.041 152.728, 281.133 152.425, 279.322 151.869 C 275.589 150.722, 272 152.401, 272 155.295 C 272 157.236, 264.468 169.008, 262.440 170.237 C 261.771 170.643, 260.930 172.142, 260.572 173.569 C 259.993 175.877, 256.489 181.685, 251.274 188.982 C 250.298 190.347, 248.966 192.597, 248.313 193.982 C 247.660 195.367, 246.283 197.547, 245.252 198.826 L 243.377 201.152 240.762 197.326 C 239.324 195.222, 237.075 191.475, 235.766 189 C 234.456 186.525, 232.245 182.700, 230.852 180.500 C 229.459 178.300, 227.235 174.503, 225.910 172.061 C 224.584 169.620, 223.146 167.145, 222.714 166.561 C 222.281 165.978, 220.131 162.688, 217.936 159.250 C 215.740 155.813, 213.619 152.957, 213.222 152.904 C 212.825 152.852, 200.970 152.675, 186.878 152.512 C 172.786 152.349, 160.405 151.946, 159.364 151.616 C 158.119 151.220, 157.061 151.672, 156.271 152.937 M 332.636 197.640 C 331.826 203.550, 331.804 230.324, 332.607 232.418 C 333.141 233.810, 336.703 234, 362.338 234 C 389.653 234, 391.776 233.870, 396.531 231.899 C 404.048 228.783, 406.128 225.162, 406.759 214.090 C 407.221 205.989, 407.052 204.817, 404.921 201.335 C 403.631 199.226, 402.040 196.950, 401.386 196.277 C 398.917 193.738, 390.648 193.048, 362.386 193.024 L 333.272 193 332.636 197.640" stroke="none" fill="#ffffff" fill-rule="evenodd"/><path d="" stroke="none" fill="#ceb810" fill-rule="evenodd"/></svg>