<svg xmlns="http://www.w3.org/2000/svg" width="696" height="574" viewBox="0 0 696 574" version="1.1"><path d="M 33.348 225.535 C 33.021 226.388, 33.034 227.367, 33.376 227.710 C 33.719 228.053, 34 227.583, 34 226.667 C 34 225.131, 38.438 225, 90.567 225 C 143.969 225, 147.106 225.098, 146.624 226.750 C 146.344 227.713, 145.868 230.750, 145.567 233.500 C 145.132 237.470, 145.212 237.908, 145.956 235.628 C 146.471 234.048, 147.029 230.898, 147.196 228.628 L 147.500 224.500 90.722 224.242 C 40.184 224.012, 33.878 224.154, 33.348 225.535 M 32 231.364 C 32 231.563, 31.546 234.122, 30.991 237.049 C 30.216 241.134, 30.274 242.556, 31.241 243.170 C 31.933 243.610, 41.766 243.976, 53.091 243.985 L 73.683 244 72.901 248.750 C 71.656 256.311, 72.077 258.068, 73.559 251.500 C 74.303 248.200, 74.932 244.938, 74.956 244.250 C 74.990 243.287, 70.028 243, 53.358 243 L 31.715 243 32.342 237 C 32.687 233.700, 32.751 231, 32.485 231 C 32.218 231, 32 231.164, 32 231.364 M 143.715 241.301 C 143.129 242.828, 140.849 243, 121.153 243 L 99.243 243 98.105 250.650 C 96.619 260.642, 97.462 261.423, 99.115 251.587 L 100.390 244 121.445 243.985 C 133.025 243.976, 143.117 243.578, 143.872 243.100 C 144.626 242.622, 145.047 241.640, 144.805 240.916 C 144.490 239.970, 144.184 240.077, 143.715 241.301 M 637.150 243.250 C 637.289 246.275, 637.329 246.310, 637.716 243.750 C 637.945 242.238, 638.440 241.013, 638.816 241.029 C 639.192 241.045, 646.475 246.689, 655 253.572 C 663.525 260.454, 673.749 268.653, 677.721 271.792 C 681.692 274.932, 684.955 277.837, 684.971 278.250 C 684.987 278.663, 678.690 279, 670.979 279 C 654.775 279, 655.841 278.278, 654.077 290.452 C 652.182 303.532, 654.117 298.126, 656.475 283.750 L 657.091 280 672.045 280 C 680.868 280, 687 279.609, 687 279.046 C 687 277.688, 640.092 240, 638.401 240 C 637.456 240, 637.049 241.059, 637.150 243.250 M 634.438 257 L 633.484 262.500 619.742 262.778 C 612.184 262.931, 606 263.381, 606 263.778 C 606 264.175, 608.354 267.988, 611.231 272.250 L 616.463 280 623.345 280 L 630.227 280 629.550 284.750 C 628.035 295.378, 628.011 297.617, 629.476 291.500 C 630.266 288.200, 630.932 284.038, 630.956 282.250 L 631 279 624.030 279 L 617.061 279 612.019 271.528 L 606.977 264.057 620.695 263.778 L 634.413 263.500 635.243 259.500 C 635.700 257.300, 635.920 254.600, 635.732 253.500 C 635.545 252.400, 634.962 253.975, 634.438 257 M 70.614 261.678 C 68.844 270.354, 67.576 280.780, 68.396 279.917 C 69.081 279.197, 72.152 259.818, 71.659 259.326 C 71.401 259.068, 70.931 260.127, 70.614 261.678 M 94.625 270.125 C 93.698 275.706, 93.124 280.458, 93.350 280.683 C 93.908 281.241, 94.634 277.955, 96.006 268.665 C 97.711 257.116, 96.588 258.304, 94.625 270.125 M 152.739 261.908 C 147.332 263.031, 146.719 264.244, 152.038 263.296 C 154.492 262.858, 161.225 262.521, 167 262.547 C 176.290 262.589, 178.191 262.912, 183.500 265.354 C 191.283 268.933, 194.601 272.143, 198.125 279.500 C 201.259 286.044, 202.120 285.063, 199.093 278.398 C 196.484 272.652, 189.819 266.608, 183.155 263.944 C 178.795 262.201, 175.096 261.620, 167 261.405 C 161.225 261.252, 154.808 261.478, 152.739 261.908 M 220.157 262.243 C 219.520 262.880, 219.056 265.447, 219.125 267.950 L 219.250 272.500 219.940 268.269 C 220.319 265.941, 220.915 263.751, 221.265 263.402 C 221.614 263.053, 225.635 265.004, 230.200 267.738 C 243.444 275.669, 242.487 275.381, 245.693 272.400 C 247.237 270.965, 250.975 268.475, 254 266.868 C 257.025 265.260, 258.375 264.226, 257 264.570 C 254.232 265.261, 247.630 269.232, 244.443 272.121 C 242.419 273.956, 242.268 273.913, 235.098 269.493 C 231.090 267.022, 227.585 265, 227.310 265 C 227.034 265, 225.572 264.120, 224.061 263.043 C 221.981 261.562, 221.032 261.368, 220.157 262.243 M 264.199 261.925 C 259.132 263.220, 259.018 264.191, 264.038 263.296 C 269.581 262.307, 280.219 262.266, 285.414 263.214 C 288.289 263.738, 289.032 263.632, 288.214 262.814 C 286.839 261.439, 268.725 260.768, 264.199 261.925 M 363.652 261.986 C 356.632 263.255, 356.558 264.201, 363.551 263.282 C 370.964 262.307, 384.735 262.272, 392 263.209 C 396.327 263.768, 397.081 263.678, 395.533 262.788 C 393.078 261.377, 370.207 260.802, 363.652 261.986 M 451.739 261.908 C 446.074 263.084, 445.952 264.117, 451.579 263.254 C 457.777 262.304, 471.246 262.278, 476.500 263.207 C 479.833 263.795, 480.166 263.717, 478.500 262.737 C 476.155 261.357, 457.215 260.771, 451.739 261.908 M 518.555 262.207 C 518.034 263.826, 515.964 282.369, 516.102 284.170 C 516.313 286.903, 517.903 278.220, 518.575 270.669 C 519.197 263.690, 519.475 262.891, 521.136 263.325 C 523.579 263.964, 523.509 263.343, 520.985 261.992 C 519.462 261.177, 518.869 261.230, 518.555 262.207 M 563.199 261.931 C 558.132 263.216, 558.016 264.191, 563.038 263.296 C 568.565 262.310, 579.175 262.266, 584.500 263.207 C 587.807 263.791, 588.153 263.712, 586.500 262.753 C 584.072 261.344, 567.782 260.769, 563.199 261.931 M 141.500 265.212 C 136.044 267.129, 125.124 275.036, 120.649 280.309 C 116.289 285.447, 110.992 294.738, 111.009 297.217 C 111.014 297.923, 112.616 295.299, 114.569 291.387 C 120.209 280.085, 129.588 271.533, 142 266.372 C 147.509 264.081, 147.142 263.230, 141.500 265.212 M 293.617 266.487 C 295.881 267.844, 299.138 271.102, 300.855 273.727 C 303.925 278.421, 305.078 278.967, 302.878 274.684 C 301.219 271.455, 296.874 267.017, 293.800 265.411 C 289.332 263.077, 289.203 263.841, 293.617 266.487 M 349.799 265.586 C 347.214 266.381, 344.837 267.455, 344.517 267.973 C 344.033 268.756, 349.585 267.188, 356 264.732 C 359.261 263.484, 354.503 264.138, 349.799 265.586 M 401 265.433 C 404.776 266.815, 404.763 266.765, 403.765 276 L 403.171 281.500 404.490 276.500 C 406.701 268.115, 406.447 266.351, 402.851 265.098 C 401.119 264.494, 399.206 264.034, 398.601 264.076 C 397.995 264.118, 399.075 264.729, 401 265.433 M 440.500 265.332 C 428.511 270.047, 418.280 279.496, 412.708 291 C 410.710 295.125, 408.829 300.300, 408.529 302.500 C 408.098 305.659, 408.367 305.239, 409.807 300.500 C 414.660 284.534, 424.565 273.411, 439.669 266.968 C 446.154 264.202, 446.848 262.835, 440.500 265.332 M 484.500 266.081 C 490.203 269.138, 493.797 272.761, 496.821 278.500 C 499.151 282.923, 499.457 284.655, 499.477 293.500 C 499.490 299, 499.170 305.075, 498.767 307 C 498.142 309.985, 498.211 310.206, 499.232 308.500 C 499.891 307.400, 500.606 301.970, 500.821 296.433 C 501.164 287.644, 500.922 285.677, 498.921 280.933 C 495.320 272.401, 489.203 266.109, 483 264.561 C 481.424 264.167, 481.979 264.729, 484.500 266.081 M 524.500 264.731 C 525.050 265.259, 529.021 267.796, 533.325 270.369 L 541.151 275.049 545.095 271.925 C 547.264 270.207, 551.167 267.711, 553.769 266.379 C 556.371 265.046, 557.375 264.242, 556 264.592 C 552.782 265.411, 547.195 268.682, 543.970 271.635 L 541.441 273.952 535.668 270.474 C 528.715 266.286, 523.124 263.411, 524.500 264.731 M 592.550 266.569 C 597.891 270.042, 601.742 275.698, 603.110 282.079 C 604.146 286.909, 604.044 290.587, 602.523 303.187 C 602.093 306.752, 602.163 307.015, 602.926 304.707 C 604.442 300.124, 605.278 289.381, 604.564 283.664 C 604.126 280.163, 602.792 276.635, 600.698 273.443 C 597.693 268.863, 592.005 264, 589.652 264 C 589.073 264, 590.377 265.156, 592.550 266.569 M 336.297 272.486 C 328.214 277.929, 322.327 284.559, 318.249 292.811 C 314.571 300.252, 314.500 300.616, 314.500 311.948 C 314.500 322.526, 314.724 323.925, 317.161 328.540 C 320.557 334.975, 332.882 346.451, 334.576 344.757 C 334.859 344.474, 333.107 343.081, 330.682 341.660 C 321.236 336.124, 315.895 326.898, 315.201 314.918 C 314.666 305.668, 316.156 298.571, 320.283 290.708 C 323.624 284.344, 332.857 275.134, 339.078 271.960 C 342.796 270.063, 343.931 269, 342.237 269 C 341.817 269, 339.144 270.569, 336.297 272.486 M 159.264 276.718 C 160.784 276.947, 163.034 276.941, 164.264 276.704 C 165.494 276.467, 164.250 276.279, 161.500 276.286 C 158.750 276.294, 157.744 276.488, 159.264 276.718 M 458.264 276.718 C 459.784 276.947, 462.034 276.941, 463.264 276.704 C 464.494 276.467, 463.250 276.279, 460.500 276.286 C 457.750 276.294, 456.744 276.488, 458.264 276.718 M 147.363 280.250 C 142.796 283.302, 135.946 291.843, 136.044 294.363 C 136.069 294.988, 136.984 293.803, 138.078 291.730 C 140.776 286.620, 146.950 280.988, 152.183 278.864 C 155.059 277.696, 155.787 277.093, 154.363 277.056 C 153.188 277.025, 150.038 278.462, 147.363 280.250 M 170.667 279.064 C 175.287 281.351, 178 286.322, 178 292.500 L 178 295.960 156.750 296.251 L 135.500 296.542 157.250 296.771 L 179 297 179 292.401 C 179 289.872, 178.249 286.219, 177.330 284.283 C 175.664 280.772, 170.842 277.010, 168 277.005 C 167.175 277.003, 168.375 277.930, 170.667 279.064 M 446.946 279.859 C 444.501 281.432, 441.535 283.794, 440.355 285.109 C 438.157 287.560, 434 294.850, 434 296.255 C 434 296.686, 443.788 296.918, 455.750 296.770 L 477.500 296.500 477.598 292.243 L 477.696 287.985 477.291 291.993 L 476.885 296 456.443 296 C 440.111 296, 436 295.733, 436 294.671 C 436 292.491, 441.650 284.635, 444.998 282.160 C 446.712 280.893, 449.776 279.245, 451.807 278.498 C 454.254 277.599, 454.807 277.117, 453.446 277.070 C 452.316 277.032, 449.391 278.287, 446.946 279.859 M 469.123 278.608 C 471.339 279.528, 473.458 281.435, 474.579 283.517 C 475.587 285.389, 476.578 286.756, 476.780 286.553 C 476.982 286.351, 476.432 284.802, 475.557 283.110 C 474.010 280.118, 469.426 276.947, 466.800 277.052 C 466.085 277.080, 467.130 277.780, 469.123 278.608 M 368 278.875 C 366.403 279.380, 368.752 279.636, 374.500 279.583 C 379.450 279.537, 384.850 279.844, 386.500 280.264 C 389.097 280.925, 389.234 280.867, 387.519 279.835 C 385.164 278.417, 371.559 277.747, 368 278.875 M 253.459 281.367 C 245.291 285.170, 240.758 291.753, 239.593 301.500 C 239.066 305.909, 239.210 305.664, 240.810 299.432 C 243.017 290.834, 246.746 285.831, 253.446 282.476 C 262.580 277.904, 272.946 279.583, 277.040 286.299 C 279.228 289.886, 279.621 289.458, 277.803 285.467 C 274.903 279.103, 262.725 277.052, 253.459 281.367 M 304.500 290.008 C 304.500 296.015, 304.806 300.158, 305.180 299.215 C 305.554 298.272, 305.859 294.125, 305.859 290 C 305.859 285.875, 305.554 281.732, 305.180 280.794 C 304.806 279.855, 304.500 284.002, 304.500 290.008 M 553 281.081 C 547.548 283.549, 543.424 287.310, 541.030 292 C 539.253 295.479, 536.372 309.706, 537.264 310.597 C 537.520 310.854, 538.455 307.119, 539.340 302.298 C 541.343 291.391, 544.359 286.729, 552.017 282.707 C 556.807 280.191, 558.348 279.873, 564.203 280.194 C 567.890 280.395, 570.365 280.216, 569.703 279.795 C 567.308 278.273, 557.542 279.025, 553 281.081 M 216.752 284 C 216.377 285.925, 215.845 289.975, 215.571 293 C 215.083 298.384, 215.104 298.353, 216.558 291.500 C 217.375 287.650, 217.906 283.600, 217.738 282.500 C 217.540 281.198, 217.196 281.721, 216.752 284 M 354.926 284.447 C 349.825 287.638, 342.098 296.431, 343.320 297.654 C 343.613 297.946, 344.522 296.907, 345.341 295.343 C 347.350 291.506, 352.541 286.682, 358 283.581 C 360.475 282.175, 362.036 281.019, 361.469 281.012 C 360.902 281.005, 357.957 282.551, 354.926 284.447 M 390 281.480 C 390 281.743, 391.718 282.836, 393.817 283.907 C 395.916 284.978, 398.221 286.562, 398.939 287.427 C 401.160 290.103, 403.008 289.325, 402.921 285.750 C 402.849 282.786, 402.646 282.926, 401.447 286.763 C 401.186 287.600, 399.499 286.841, 396.450 284.513 C 392.235 281.297, 390 280.245, 390 281.480 M 573.797 283.284 C 576.976 286.668, 578.132 291.478, 577.575 299 C 577.244 303.474, 577.354 304.565, 577.928 302.500 C 580.137 294.564, 577.591 283.208, 573.228 281.534 C 571.997 281.062, 572.149 281.530, 573.797 283.284 M 92 284.639 C 92 284.990, 91.080 290.670, 89.955 297.261 C 88.831 303.852, 88.105 309.438, 88.342 309.675 C 88.579 309.912, 89.470 306.145, 90.323 301.303 C 92.774 287.390, 93.217 284, 92.588 284 C 92.265 284, 92 284.288, 92 284.639 M 201.219 294.500 C 201.223 302.856, 201.290 303.153, 202.151 298.652 C 202.723 295.665, 202.721 292.211, 202.147 289.652 C 201.332 286.025, 201.215 286.639, 201.219 294.500 M 65.013 293.921 C 64.359 297.799, 64.010 301.531, 64.238 302.214 C 64.466 302.897, 65.219 299.942, 65.912 295.647 C 66.605 291.352, 66.954 287.620, 66.687 287.354 C 66.421 287.087, 65.668 290.042, 65.013 293.921 M 514.127 293.195 C 512.457 302.787, 511.657 309.557, 512.259 309 C 512.990 308.324, 516.194 287.860, 515.653 287.320 C 515.417 287.084, 514.730 289.728, 514.127 293.195 M 279.286 294.500 C 279.294 297.250, 279.488 298.256, 279.718 296.736 C 279.947 295.216, 279.941 292.966, 279.704 291.736 C 279.467 290.506, 279.279 291.750, 279.286 294.500 M 109.128 303.405 C 107.710 309.036, 107.689 317.338, 109.078 322.344 C 110.623 327.906, 110.928 326.468, 109.742 319.220 C 109.019 314.799, 109.042 310.964, 109.820 306.266 C 111.111 298.476, 110.748 296.974, 109.128 303.405 M 341.116 302.098 C 337.783 311.657, 341.789 324.149, 349.500 328.246 C 350.600 328.831, 349.597 327.396, 347.270 325.057 C 341.429 319.185, 339.573 311.463, 341.983 303.060 C 343.248 298.649, 342.577 297.905, 341.116 302.098 M 626.699 301.203 C 625.481 306.372, 623.751 319.084, 624.204 319.537 C 624.471 319.804, 625.448 315.456, 626.375 309.875 C 627.302 304.294, 627.876 299.542, 627.650 299.317 C 627.425 299.091, 626.997 299.940, 626.699 301.203 M 277.185 306.719 C 275.529 315.528, 274.676 322.563, 275.338 321.951 C 276.092 321.254, 279.234 301.900, 278.682 301.349 C 278.457 301.123, 277.783 303.540, 277.185 306.719 M 651.145 307.195 C 649.214 318.476, 648.711 322.510, 649.301 321.977 C 650.123 321.234, 653.319 301.986, 652.720 301.387 C 652.447 301.114, 651.739 303.728, 651.145 307.195 M 301.663 312.304 C 300.004 321.592, 299.603 325.730, 300.444 324.890 C 301.107 324.226, 304.232 303.899, 303.746 303.412 C 303.515 303.182, 302.578 307.183, 301.663 312.304 M 212.145 311.195 C 210.214 322.476, 209.711 326.510, 210.301 325.977 C 211.123 325.234, 214.319 305.986, 213.720 305.387 C 213.447 305.114, 212.739 307.728, 212.145 311.195 M 236.591 317.369 C 235.618 323.301, 235.017 328.350, 235.256 328.589 C 235.890 329.224, 239.269 309.307, 238.777 307.832 C 238.548 307.145, 237.565 311.437, 236.591 317.369 M 198.660 309.443 C 198.153 310.765, 193.626 311.008, 165.287 311.236 L 132.500 311.500 132.666 316.295 C 132.947 324.422, 139.751 330.932, 149.547 332.443 C 152.912 332.962, 152.672 332.776, 147.932 331.191 C 138.070 327.893, 134.354 323.909, 133.762 316 L 133.500 312.500 166.287 312.236 C 194.626 312.008, 199.153 311.765, 199.660 310.443 C 199.983 309.602, 200.022 308.689, 199.747 308.414 C 199.472 308.139, 198.983 308.602, 198.660 309.443 M 62.079 309.381 C 62.036 309.865, 61.288 314.740, 60.418 320.215 C 59.547 325.689, 59.028 330.361, 59.263 330.596 C 59.952 331.285, 63.245 311.209, 62.676 309.790 C 62.391 309.081, 62.122 308.896, 62.079 309.381 M 431.667 311.667 C 430.677 312.656, 430.888 318.275, 431.979 320 C 432.646 321.054, 432.864 320.162, 432.714 317 L 432.500 312.500 465.500 311.979 L 498.500 311.459 465.417 311.229 C 447.221 311.103, 432.033 311.300, 431.667 311.667 M 574.164 317.744 C 572.291 328.672, 571.685 333.534, 572.264 333 C 573.027 332.297, 576.337 312.003, 575.780 311.446 C 575.528 311.195, 574.801 314.029, 574.164 317.744 M 86.228 318 C 84.169 330.352, 83.774 333.498, 84.351 332.951 C 85.197 332.150, 88.200 314.093, 87.720 312.690 C 87.495 312.036, 86.824 314.425, 86.228 318 M 599.184 320.195 C 597.154 332.504, 596.778 335.494, 597.326 334.977 C 598.134 334.214, 601.306 314.972, 600.720 314.387 C 600.447 314.114, 599.756 316.728, 599.184 320.195 M 510.079 315.381 C 510.036 315.865, 509.288 320.740, 508.418 326.215 C 507.547 331.689, 507.028 336.361, 507.263 336.596 C 507.952 337.285, 511.245 317.209, 510.676 315.790 C 510.391 315.081, 510.122 314.896, 510.079 315.381 M 534.088 325.353 C 533.395 329.648, 533.046 333.380, 533.313 333.646 C 533.976 334.309, 536.279 320.336, 535.762 318.786 C 535.534 318.103, 534.781 321.058, 534.088 325.353 M 408.036 321.101 C 407.978 323.665, 410.131 329.369, 411.772 331 C 412.670 331.892, 412.983 331.970, 412.546 331.192 C 412.141 330.472, 410.969 327.547, 409.941 324.692 C 408.913 321.836, 408.056 320.220, 408.036 321.101 M 192.474 322.041 C 192.109 322.632, 189.363 324.274, 186.372 325.691 C 183.380 327.107, 181.128 328.461, 181.367 328.700 C 181.606 328.939, 184.208 327.869, 187.151 326.323 C 190.093 324.777, 192.898 323.339, 193.385 323.127 C 193.872 322.916, 194.015 324.263, 193.701 326.122 C 192.290 334.499, 191.990 338.505, 192.939 336.318 C 194.481 332.762, 195.363 322.343, 194.184 321.613 C 193.609 321.258, 192.839 321.451, 192.474 322.041 M 393.663 322.819 C 390.674 326.122, 381.341 330.135, 374.009 331.270 C 367.302 332.309, 362.001 331.841, 353.206 329.437 C 352.268 329.181, 353.075 329.747, 355 330.696 C 357.605 331.981, 361.057 332.423, 368.500 332.427 C 377.328 332.431, 379.203 332.107, 384.497 329.658 C 387.795 328.133, 391.508 325.932, 392.747 324.768 L 395 322.651 395.086 325.576 L 395.172 328.500 396.060 325.524 C 397.172 321.797, 395.894 320.354, 393.663 322.819 M 491.500 322.452 C 489.895 323.698, 489.846 323.884, 491.250 323.395 C 492.212 323.060, 493 323.172, 493 323.643 C 492.999 325.437, 489.940 340.393, 489.479 340.854 C 489.213 341.120, 487.309 342.158, 485.248 343.160 C 482.843 344.329, 482.396 344.777, 484 344.409 C 489.805 343.077, 491.356 340.861, 492.744 331.915 C 494.356 321.532, 494.201 320.356, 491.500 322.452 M 433.793 323.614 C 436.035 327.803, 442.134 331.454, 448.535 332.438 C 451.554 332.903, 451.009 332.557, 446.246 330.987 C 442.187 329.649, 438.724 327.658, 436.382 325.315 C 434.396 323.330, 433.232 322.564, 433.793 323.614 M 647.092 330.244 C 645.133 341.806, 644.826 344.812, 645.843 342.500 C 646.881 340.138, 649.322 323.989, 648.730 323.397 C 648.506 323.172, 647.769 326.254, 647.092 330.244 M 484.212 326.179 C 481.854 327.322, 480.123 328.456, 480.365 328.699 C 480.864 329.197, 489 325.222, 489 324.480 C 489 323.842, 489.117 323.801, 484.212 326.179 M 621.752 329 C 621.377 330.925, 620.845 334.975, 620.571 338 C 620.083 343.384, 620.104 343.353, 621.558 336.500 C 622.375 332.650, 622.906 328.600, 622.738 327.500 C 622.540 326.198, 622.196 326.721, 621.752 329 M 111.040 327.579 C 110.969 329.500, 116.974 337.743, 120.282 340.264 C 125.464 344.213, 133.499 347.908, 138.167 348.489 C 142.127 348.981, 141.984 348.870, 136.500 347.195 C 133.200 346.187, 128.700 344.418, 126.500 343.264 C 121.954 340.878, 114.991 333.957, 112.653 329.500 C 111.788 327.850, 111.062 326.985, 111.040 327.579 M 208.201 333.719 C 207.612 336.899, 206.834 341.426, 206.472 343.780 L 205.814 348.059 219.117 347.780 L 232.421 347.500 233.113 344.111 C 233.493 342.247, 234.050 338.197, 234.351 335.111 L 234.898 329.500 233.493 335.500 C 232.720 338.800, 232.068 342.738, 232.044 344.250 L 232 347 219.481 347 C 207.013 347, 206.964 346.991, 207.473 344.750 C 208.543 340.045, 210.062 328.728, 209.676 328.342 C 209.454 328.120, 208.790 330.540, 208.201 333.719 M 171 331.147 C 164.552 333.001, 164.540 333.011, 169.499 332.409 C 172.248 332.076, 175.848 331.209, 177.499 330.483 C 181.713 328.630, 178.678 328.940, 171 331.147 M 272.013 335.921 C 271.359 339.799, 271.010 343.531, 271.238 344.214 C 271.466 344.897, 272.219 341.942, 272.912 337.647 C 273.605 333.352, 273.954 329.620, 273.687 329.354 C 273.421 329.087, 272.668 332.042, 272.013 335.921 M 470 331.111 C 463.526 332.948, 463.520 332.953, 468.499 332.379 C 471.248 332.062, 474.848 331.209, 476.499 330.483 C 480.697 328.637, 477.698 328.927, 470 331.111 M 297.101 338.804 L 295.739 347.108 282.916 346.804 C 275.863 346.637, 270.447 346.852, 270.879 347.282 C 271.311 347.712, 277.252 347.937, 284.082 347.782 L 296.500 347.500 297.739 341.500 C 298.420 338.200, 298.862 334.375, 298.721 333 C 298.579 331.625, 297.850 334.237, 297.101 338.804 M 57.138 338.667 C 55.122 348.707, 54.228 348, 68.941 348 C 76.059 348, 82.077 347.663, 82.316 347.250 C 82.555 346.837, 83.008 343.800, 83.324 340.500 C 83.839 335.102, 83.796 334.902, 82.892 338.500 C 82.339 340.700, 81.678 343.512, 81.424 344.750 C 80.976 346.933, 80.605 347, 68.901 347 L 56.841 347 57.367 344.250 C 58.523 338.205, 59.152 333, 58.726 333 C 58.479 333, 57.764 335.550, 57.138 338.667 M 413.899 334.758 C 415.133 337.119, 424.513 345, 426.090 345 C 427.751 345, 427.034 344.069, 424.250 342.609 C 422.738 341.816, 419.524 339.217, 417.110 336.834 C 414.479 334.237, 413.192 333.405, 413.899 334.758 M 392.655 338.970 C 392.243 341.429, 391.365 343.825, 390.703 344.296 C 389.841 344.910, 389.912 345.041, 390.954 344.758 C 392.531 344.331, 394.326 338.819, 393.756 336.151 C 393.562 335.243, 393.067 336.512, 392.655 338.970 M 570.614 337.750 C 570.314 339.262, 569.778 342.188, 569.423 344.250 L 568.777 348 581.830 348 C 589.008 348, 595.082 347.663, 595.327 347.250 C 595.571 346.837, 596.011 344.025, 596.303 341 L 596.835 335.500 595.756 341.250 L 594.676 347 582.271 347 C 570.934 347, 569.908 346.849, 570.360 345.250 C 571.288 341.961, 572.177 335, 571.667 335 C 571.388 335, 570.914 336.238, 570.614 337.750 M 505.625 342.125 C 504.403 348.235, 503.911 348, 517.893 348 C 531.688 348, 532.125 347.834, 531.910 342.668 C 531.844 341.088, 531.565 341.381, 530.881 343.750 L 529.943 347 517.960 347 L 505.976 347 506.616 343 C 507.368 338.298, 506.537 337.565, 505.625 342.125 M 187 342.547 C 184.525 343.831, 182.852 344.909, 183.282 344.941 C 184.727 345.050, 190.749 342.215, 191.437 341.102 C 192.261 339.769, 192.516 339.686, 187 342.547 M 619.116 345.750 C 619.001 347.974, 619.151 348, 632 348 C 639.150 348, 645.001 347.663, 645.002 347.250 C 645.003 346.837, 639.416 346.638, 632.586 346.806 C 621.306 347.084, 620.125 346.946, 619.700 345.306 C 619.330 343.878, 619.208 343.971, 619.116 345.750 M 173 347.112 C 165.874 348.878, 165.769 348.944, 170.885 348.433 C 173.848 348.137, 177.673 347.280, 179.385 346.529 C 183.478 344.734, 182.081 344.862, 173 347.112 M 338.130 346.509 C 339.576 347.295, 342.726 348.183, 345.130 348.483 C 348.923 348.955, 348.642 348.766, 343 347.049 C 335.267 344.695, 334.669 344.629, 338.130 346.509 M 378.500 347.102 C 370.753 348.870, 370.685 348.910, 376.339 348.381 C 379.550 348.080, 383.825 347.228, 385.839 346.487 C 390.758 344.678, 388.178 344.894, 378.500 347.102 M 430.130 346.509 C 431.576 347.295, 434.726 348.183, 437.130 348.483 C 440.923 348.955, 440.642 348.766, 435 347.049 C 427.267 344.695, 426.669 344.629, 430.130 346.509 M 472 347.112 C 464.874 348.878, 464.769 348.944, 469.885 348.433 C 472.848 348.137, 476.673 347.280, 478.385 346.529 C 482.478 344.734, 481.081 344.862, 472 347.112 M 148.250 349.739 C 151.412 349.937, 156.588 349.937, 159.750 349.739 C 162.912 349.541, 160.325 349.378, 154 349.378 C 147.675 349.378, 145.088 349.541, 148.250 349.739 M 354.784 349.738 C 357.689 349.941, 362.189 349.939, 364.784 349.734 C 367.378 349.528, 365 349.363, 359.500 349.365 C 354 349.368, 351.878 349.536, 354.784 349.738 M 447.287 349.740 C 450.469 349.939, 455.419 349.937, 458.287 349.736 C 461.154 349.535, 458.550 349.372, 452.500 349.374 C 446.450 349.376, 444.104 349.541, 447.287 349.740" stroke="none" fill="#c9d3eb" fill-rule="evenodd"/><path d="" stroke="none" fill="#3457b0" fill-rule="evenodd"/><path d="M 0 287.001 L 0 574.003 348.250 573.751 L 696.500 573.500 696.752 286.750 L 697.003 0 348.502 0 L 0 0 0 287.001 M 0.493 287.500 C 0.493 445.350, 0.609 509.776, 0.750 430.669 C 0.891 351.562, 0.891 222.412, 0.750 143.669 C 0.609 64.926, 0.493 129.650, 0.493 287.500 M 33.245 224.250 C 32.164 225.602, 30 236.994, 30 241.332 L 30 244 51.509 244 L 73.017 244 72.372 249.750 C 72.017 252.912, 71.387 256.175, 70.972 257 C 70.557 257.825, 69.693 262.775, 69.052 268 C 68.411 273.225, 67.605 278.175, 67.261 279 C 66.918 279.825, 65.837 285.450, 64.859 291.500 C 63.882 297.550, 62.575 305.200, 61.955 308.500 C 61.335 311.800, 59.741 320.288, 58.414 327.361 C 57.086 334.435, 56 342.211, 56 344.640 L 56 349.058 69.250 348.779 L 82.500 348.500 83.500 342 C 84.050 338.425, 84.778 335.050, 85.117 334.500 C 85.456 333.950, 86.290 329, 86.970 323.500 C 87.650 318, 88.591 312.600, 89.062 311.500 C 89.533 310.400, 90.611 305, 91.458 299.500 C 93.308 287.480, 95.638 273.512, 97.046 266 C 97.613 262.975, 98.504 257.800, 99.026 254.500 C 100.886 242.748, 97.890 244.076, 123.242 243.769 L 145.456 243.500 146.666 236.500 C 147.332 232.650, 147.905 228.037, 147.939 226.250 L 148 223 91.122 223 C 46.820 223, 34.024 223.276, 33.245 224.250 M 637 241.941 C 637 243.559, 636.594 245.133, 636.098 245.439 C 635.603 245.746, 634.895 248.810, 634.526 252.248 C 633.392 262.832, 634.683 262, 619.401 262 C 608.567 262, 605.829 262.283, 605.381 263.449 C 605.076 264.246, 605.332 265.483, 605.950 266.199 C 606.569 266.914, 609.089 270.313, 611.549 273.750 L 616.023 280 622.916 280 L 629.810 280 629.296 284.250 C 629.013 286.587, 628.348 290.300, 627.817 292.500 C 627.286 294.700, 626.045 301.675, 625.059 308 C 624.073 314.325, 622.993 320.175, 622.658 321 C 621.899 322.870, 618.865 341.440, 618.655 345.500 L 618.500 348.500 631.419 348.781 C 638.524 348.936, 644.689 348.711, 645.118 348.281 C 645.548 347.852, 646.399 344.125, 647.010 340 C 647.621 335.875, 648.570 330.925, 649.120 329 C 649.669 327.075, 650.968 319.875, 652.005 313 C 653.042 306.125, 654.315 298.475, 654.833 296 C 655.352 293.525, 656.084 288.913, 656.460 285.750 L 657.144 280 672.655 280 C 684.433 280, 688.069 279.706, 687.759 278.778 C 687.440 277.820, 667.682 261.476, 647.260 245.277 C 646.028 244.300, 643.867 242.488, 642.458 241.250 C 638.884 238.110, 637 238.349, 637 241.941 M 148.502 262.091 C 141.740 263.750, 130.578 269.840, 124.700 275.080 C 119.227 279.958, 112.925 289.016, 111.537 294 C 111.154 295.375, 110.155 298.017, 109.316 299.871 C 107.389 304.131, 107.753 326.084, 109.763 326.754 C 110.443 326.981, 111 327.810, 111 328.597 C 111 334.992, 124.869 345.982, 137 349.199 C 144.181 351.104, 165.168 350.778, 174.500 348.616 C 178.900 347.597, 182.725 346.457, 183 346.083 C 183.275 345.709, 185.359 344.860, 187.630 344.197 C 192.347 342.820, 193.518 340.738, 194.493 332 C 194.830 328.975, 195.356 325.201, 195.662 323.614 C 196.190 320.878, 196.074 320.765, 193.438 321.426 C 191.909 321.810, 189.589 322.965, 188.282 323.993 C 186.975 325.021, 184.577 326.154, 182.953 326.510 C 181.329 326.867, 180 327.512, 180 327.943 C 180 328.774, 171.707 330.554, 163.694 331.444 C 161.051 331.737, 155.660 331.519, 151.714 330.959 C 141.170 329.464, 135.313 324.753, 134.263 316.922 L 133.737 313 166.868 313 C 198.106 313, 200 312.897, 200 311.200 C 200 310.210, 200.563 308.837, 201.250 308.150 C 203.308 306.092, 202.901 284.276, 200.734 280.500 C 199.787 278.850, 199.010 277.012, 199.006 276.415 C 198.995 274.415, 190.347 266.527, 185.397 264.002 C 180.940 261.729, 179.241 261.486, 166.500 261.307 C 158.800 261.199, 150.701 261.552, 148.502 262.091 M 219 264.679 C 219 266.702, 218.573 269.740, 218.050 271.429 C 217.528 273.118, 216.590 279.225, 215.966 285 C 215.342 290.775, 214.454 296.457, 213.993 297.627 C 213.532 298.796, 212.408 305.321, 211.494 312.127 C 210.581 318.932, 209.447 325.400, 208.975 326.500 C 208.150 328.421, 206 343.351, 206 347.159 C 206 348.856, 207.054 349, 219.439 349 L 232.877 349 233.501 344.250 C 233.845 341.637, 234.576 337.475, 235.128 335 C 235.679 332.525, 236.981 325.325, 238.020 319 C 241.274 299.197, 242.892 292.750, 245.266 290.116 C 249.541 285.373, 252.517 283.092, 255.239 282.471 C 256.745 282.127, 258.234 281.431, 258.548 280.923 C 259.498 279.386, 267.104 279.887, 271.089 281.750 C 275.787 283.946, 279.573 291.312, 278.568 296.304 C 277.064 303.771, 276.062 309.874, 275.415 315.500 C 275.036 318.800, 274.385 321.950, 273.968 322.500 C 273.551 323.050, 272.661 327.771, 271.989 332.990 C 271.317 338.210, 270.435 343.385, 270.027 344.490 C 268.489 348.668, 269.486 349, 283.583 349 C 290.962 349, 297.016 348.887, 297.035 348.750 C 297.392 346.240, 300.172 330.203, 300.893 326.500 C 305.629 302.179, 306.449 296.581, 306.387 289 C 306.286 276.603, 302.799 270.065, 293.232 264.335 C 288.625 261.575, 288.131 261.501, 274.500 261.543 C 261.281 261.584, 260.179 261.741, 254.750 264.366 C 251.588 265.896, 249 267.564, 249 268.073 C 249 268.583, 248.467 269, 247.814 269 C 247.162 269, 245.616 269.951, 244.379 271.114 L 242.129 273.228 239.160 271.114 C 237.527 269.951, 235.736 269, 235.179 269 C 234.622 269, 234.017 268.644, 233.833 268.209 C 233.325 267.002, 222.237 261, 220.515 261 C 219.436 261, 219 262.059, 219 264.679 M 359.789 262.035 C 338.472 267.306, 324.954 277.229, 317.109 293.367 C 312.511 302.825, 312.552 322.239, 317.186 329.860 C 320.684 335.612, 324.390 340, 325.750 340 C 326.438 340, 327 340.457, 327 341.016 C 327 341.575, 328.688 342.813, 330.750 343.766 C 332.813 344.720, 334.741 345.820, 335.035 346.212 C 335.330 346.603, 338.480 347.707, 342.035 348.665 C 356.872 352.664, 388.874 349.436, 393.235 343.500 C 393.639 342.950, 393.976 341.127, 393.985 339.450 C 393.993 337.772, 394.400 335.972, 394.888 335.450 C 395.376 334.927, 396.087 331.462, 396.468 327.750 C 397.037 322.189, 396.903 321, 395.702 321 C 394.901 321, 393.697 321.661, 393.026 322.468 C 390.989 324.923, 383.484 328.684, 377.995 330.001 C 371.271 331.614, 358.598 330.870, 353.793 328.580 C 345.634 324.691, 341.624 318.322, 341.780 309.500 C 341.884 303.638, 345.787 293, 347.833 293 C 348.289 293, 349.213 291.971, 349.886 290.714 C 351.212 288.235, 352.053 287.669, 359.539 284.204 C 362.268 282.942, 365.281 281.479, 366.236 280.954 C 367.191 280.429, 371.648 280, 376.140 280 C 382.847 280, 385.284 280.462, 389.769 282.584 C 392.774 284.005, 396.536 286.503, 398.131 288.134 C 401.347 291.424, 403 291.167, 403 287.375 C 403 285.997, 403.436 284.054, 403.968 283.059 C 405.172 280.811, 406.841 267.352, 406.068 266.132 C 405.755 265.639, 403.250 264.418, 400.500 263.420 C 396.594 262.001, 391.998 261.550, 379.500 261.361 C 370.700 261.227, 361.830 261.530, 359.789 262.035 M 446.778 262.433 C 422.730 269.285, 406.463 289.961, 406.602 313.500 C 406.649 321.528, 407.003 323.225, 409.883 329.214 C 413.246 336.209, 420.262 343.526, 424.667 344.631 C 425.950 344.953, 427 345.581, 427 346.027 C 427 348.095, 440.800 350.400, 453 350.370 C 464.847 350.340, 480.562 348.113, 481.928 346.270 C 482.243 345.846, 484.521 344.784, 486.992 343.910 L 491.484 342.320 492.745 335.410 C 495.459 320.533, 495.438 320.998, 493.382 321.022 C 492.347 321.034, 490.375 321.924, 489 323 C 487.625 324.076, 486.158 324.966, 485.739 324.978 C 485.321 324.990, 483.071 325.873, 480.739 326.940 C 473.476 330.264, 467.852 331.320, 457.500 331.303 C 446.595 331.285, 442.250 330.042, 438 325.727 C 433.938 321.603, 433.334 320.591, 432.604 316.702 L 431.909 313 464.832 313 C 490.356 313, 497.994 312.712, 498.817 311.720 C 499.401 311.017, 500.438 306.573, 501.122 301.845 C 502.501 292.307, 501.131 280.183, 498.419 277.933 C 497.639 277.285, 497 276.187, 497 275.493 C 497 273.497, 489.218 266.469, 484.132 263.871 C 479.992 261.755, 478.013 261.482, 465.500 261.296 C 456.185 261.157, 449.920 261.538, 446.778 262.433 M 517.621 265.250 C 515.761 281.020, 511.734 306.612, 510.738 309 C 510.393 309.825, 509.382 315.225, 508.490 321 C 507.599 326.775, 506.271 335.100, 505.540 339.500 C 504.809 343.900, 504.538 347.852, 504.937 348.281 C 505.336 348.711, 511.476 348.936, 518.581 348.781 L 531.500 348.500 531.792 346 C 531.952 344.625, 532.476 342.600, 532.956 341.500 C 533.437 340.400, 534.358 335.225, 535.003 330 C 535.649 324.775, 536.577 319.375, 537.067 318 C 537.557 316.625, 538.667 310.616, 539.535 304.648 C 540.403 298.679, 541.650 293.149, 542.306 292.360 C 546.795 286.962, 549.958 284.202, 553 283.029 C 554.925 282.287, 556.928 281.302, 557.450 280.840 C 559.244 279.254, 566.827 279.965, 570.361 282.050 C 575.685 285.192, 577 287.939, 577 295.918 C 577 299.761, 576.553 303.940, 576.006 305.203 C 575.460 306.466, 574.138 313.125, 573.070 320 C 572.001 326.875, 570.668 334.525, 570.107 337 C 569.546 339.475, 569.068 343.188, 569.044 345.250 L 569 349 582.385 349 L 595.770 349 596.477 343.339 C 596.866 340.225, 597.545 336.963, 597.986 336.089 C 598.926 334.228, 601 321.216, 601 317.181 C 601 315.652, 601.403 313.972, 601.896 313.450 C 603.135 312.136, 605.001 297.166, 604.994 288.591 C 604.988 281.033, 603.522 274, 601.953 274 C 601.429 274, 601 273.436, 601 272.747 C 601 270.920, 595.993 266.488, 590.913 263.819 C 586.955 261.739, 585.160 261.500, 573.500 261.500 C 561.883 261.500, 559.915 261.760, 555 263.942 C 551.975 265.285, 547.650 267.876, 545.388 269.699 L 541.277 273.014 536.565 270.257 C 531.474 267.278, 530.330 266.582, 525 263.217 C 519.679 259.858, 518.209 260.263, 517.621 265.250 M 152.284 279.326 C 147.076 281.227, 138 290.556, 138 294.008 C 138 294.695, 144.634 294.951, 157.750 294.771 L 177.500 294.500 177.189 290.500 C 176.799 285.494, 173.397 280.345, 169.601 279.015 C 165.786 277.679, 156.331 277.849, 152.284 279.326 M 451.290 279.185 C 447.574 280.437, 440.318 287.174, 437.693 291.809 L 435.887 295 456.083 295 L 476.279 295 475.662 289.792 C 475.191 285.817, 474.329 283.867, 472.023 281.561 C 469.274 278.812, 468.344 278.519, 461.750 278.321 C 457.763 278.202, 453.055 278.591, 451.290 279.185" stroke="none" fill="#ffffff" fill-rule="evenodd"/><path d="M 33.657 227.250 C 33.349 228.488, 32.788 232.537, 32.411 236.250 L 31.724 243 53.362 243 C 65.263 243, 75 243.296, 75 243.658 C 75 244.020, 74.129 249.082, 73.065 254.908 C 72 260.734, 70.200 270.788, 69.065 277.250 C 67.929 283.712, 66.110 294.063, 65.022 300.250 C 60.360 326.754, 57.926 340.709, 57.435 343.750 L 56.909 347 68.936 347 C 80.604 347, 80.976 346.933, 81.424 344.750 C 81.678 343.512, 82.355 340.250, 82.928 337.500 C 83.502 334.750, 84.630 328.450, 85.436 323.500 C 86.241 318.550, 88.056 307.975, 89.468 300 C 94.961 268.983, 97.172 256.242, 98.187 249.750 L 99.242 243 121.086 243 C 146.001 243, 144.242 243.679, 145.466 233.593 C 145.860 230.345, 146.415 227.082, 146.699 226.343 C 147.126 225.229, 137.595 225, 90.715 225 L 34.217 225 33.657 227.250 M 637.015 248.750 C 636.318 253.012, 635.447 258.075, 635.080 260 L 634.413 263.500 620.695 263.778 L 606.977 264.057 612.019 271.528 L 617.061 279 624.158 279 L 631.254 279 630.737 283.750 C 630.453 286.363, 628.796 296.375, 627.056 306 C 623.766 324.200, 620 345.883, 620 346.630 C 620 346.867, 625.512 346.935, 632.248 346.781 L 644.496 346.500 645.673 339 C 646.321 334.875, 648.038 324.975, 649.491 317 C 650.943 309.025, 652.798 298.225, 653.614 293 C 655.977 277.863, 654.566 279, 670.979 279 C 678.690 279, 684.987 278.663, 684.971 278.250 C 684.955 277.837, 681.692 274.932, 677.721 271.792 C 673.749 268.653, 663.525 260.454, 655 253.572 C 646.475 246.689, 639.226 241.045, 638.891 241.029 C 638.557 241.013, 637.712 244.488, 637.015 248.750 M 153.251 263.042 C 136.503 266.045, 121.719 276.895, 114.609 291.403 C 101.971 317.191, 111.657 340.674, 137.716 347.426 C 150.685 350.787, 174.498 348.543, 186.541 342.825 L 191.498 340.471 192.774 332.094 C 193.475 327.486, 193.882 323.548, 193.677 323.343 C 193.472 323.138, 191.323 324.071, 188.902 325.415 C 177.106 331.966, 163.540 334.764, 152.289 332.966 C 139.771 330.967, 132.973 325.192, 132.666 316.295 L 132.500 311.500 165.500 311 L 198.500 310.500 199.694 307 C 200.350 305.075, 200.912 299.450, 200.943 294.500 C 200.992 286.581, 200.653 284.779, 198.125 279.500 C 192.612 267.990, 183.893 263.023, 168.198 262.453 C 162.864 262.260, 156.138 262.525, 153.251 263.042 M 264 263.326 C 257.490 264.855, 249.607 268.762, 245.693 272.400 C 242.486 275.382, 243.451 275.674, 230.150 267.707 C 224.300 264.204, 221.580 263.062, 221.066 263.894 C 219.882 265.810, 216.777 291.831, 217.578 293.126 C 218.037 293.869, 217.880 294.044, 217.155 293.595 C 216.520 293.203, 216 293.315, 216 293.844 C 216 294.373, 214.854 301.487, 213.453 309.653 C 212.052 317.819, 210.247 328.550, 209.441 333.500 C 208.635 338.450, 207.748 343.512, 207.469 344.750 C 206.964 346.990, 207.019 347, 219.351 347 L 231.740 347 232.271 342.750 C 233.217 335.186, 240.047 297.592, 241.042 294.473 C 246.136 278.502, 272.838 273.140, 278.374 286.976 C 280.426 292.106, 280.397 293.919, 278.033 308 C 274.519 328.925, 271.925 343.476, 271.392 345.250 C 270.910 346.851, 271.920 347, 283.231 347 L 295.597 347 297.858 334.250 C 299.101 327.238, 301.266 315.200, 302.669 307.500 C 306.125 288.532, 305.697 281.129, 300.708 273.616 C 295.768 266.175, 289.456 263.091, 277.914 262.480 C 272.914 262.216, 267.269 262.559, 264 263.326 M 364.531 263.043 C 339.581 266.970, 320.579 282.163, 315.998 301.847 C 313.250 313.657, 316.005 327.099, 322.838 335.219 C 332.571 346.786, 354.224 351.729, 376.500 347.470 C 392.607 344.390, 391.496 345.162, 393.364 335.748 C 394.265 331.212, 395.001 326.409, 395.001 325.076 L 395 322.651 392.747 324.768 C 391.508 325.932, 387.795 328.133, 384.497 329.658 C 379.221 332.098, 377.297 332.434, 368.500 332.452 C 357.779 332.474, 351.405 330.550, 346.131 325.701 C 340.340 320.378, 338.350 309.261, 341.669 300.770 C 345.736 290.365, 353.402 283.532, 365.091 279.895 C 376.431 276.365, 388.867 278.344, 397.144 284.995 C 399.200 286.648, 401.122 287.612, 401.414 287.138 C 402.466 285.437, 404.956 267.557, 404.236 266.877 C 400.694 263.531, 376.358 261.182, 364.531 263.043 M 452.142 263.058 C 439.498 265.315, 425.288 273.717, 418.616 282.879 C 402.632 304.830, 405.015 330.293, 424.205 342.593 C 434.070 348.917, 454.956 350.867, 472 347.056 C 479.391 345.403, 490 341.577, 490 340.564 C 490 340.375, 490.702 336.523, 491.559 332.003 C 492.416 327.483, 492.938 323.604, 492.717 323.384 C 492.497 323.164, 489.433 324.482, 485.908 326.314 C 474.519 332.235, 470.982 333.111, 458 333.226 C 449.379 333.303, 443.737 331.971, 438.916 328.723 C 434.388 325.671, 430.911 319.455, 431.241 315 L 431.500 311.500 464.682 311.237 L 497.864 310.973 499.046 305.277 C 500.880 296.446, 499.862 284.511, 496.764 278.500 C 491.278 267.858, 482.333 263.003, 467.198 262.453 C 461.864 262.260, 455.089 262.532, 452.142 263.058 M 564 263.020 C 557.569 264.354, 552.265 266.798, 546.295 271.178 L 541.089 274.998 531.159 268.999 C 525.697 265.699, 520.792 263, 520.258 263 C 519.724 263, 519.001 266.084, 518.650 269.852 C 518.300 273.621, 516.633 284.759, 514.947 294.602 C 513.260 304.446, 511.446 315.200, 510.916 318.500 C 510.386 321.800, 509.320 327.875, 508.548 332 C 507.776 336.125, 506.866 341.188, 506.527 343.250 L 505.909 347 517.848 347 C 527.513 347, 529.895 346.716, 530.359 345.507 C 531.621 342.219, 539.075 296.638, 538.567 295.315 C 538.268 294.535, 538.435 294.151, 538.939 294.463 C 539.444 294.774, 540.153 294.093, 540.516 292.949 C 541.696 289.231, 547.370 283.737, 552.493 281.351 C 562.551 276.667, 573.337 278.934, 577.001 286.501 C 579.487 291.638, 579.496 294.601, 577.065 307.908 C 576 313.734, 574.185 323.900, 573.030 330.500 C 571.875 337.100, 570.712 343.512, 570.446 344.750 C 569.964 346.988, 570.026 347, 582.345 347 L 594.728 347 595.367 342.750 C 595.718 340.413, 596.891 333.550, 597.973 327.500 C 604.714 289.811, 605.096 284.220, 601.460 276.557 C 599.233 271.864, 594.169 266.988, 589.245 264.796 C 584.254 262.574, 570.736 261.624, 564 263.020 M 154.123 277.002 C 149.122 278.183, 142.928 282.928, 139.250 288.395 C 133.310 297.225, 132.831 297, 157.620 297 L 179.240 297 178.820 291.185 C 178.542 287.347, 177.661 284.333, 176.229 282.322 C 175.036 280.646, 174.383 278.915, 174.780 278.477 C 175.176 278.038, 175.020 277.952, 174.434 278.285 C 173.848 278.618, 171.598 278.260, 169.434 277.489 C 165.117 275.951, 159.350 275.768, 154.123 277.002 M 453.358 276.895 C 449.305 277.938, 444.198 281.116, 440.852 284.680 C 438.290 287.409, 434 294.656, 434 296.255 C 434 296.686, 443.788 296.918, 455.750 296.770 L 477.500 296.500 477.809 292.777 C 478.252 287.435, 474.933 280.534, 470.925 278.461 C 467.194 276.532, 457.970 275.710, 453.358 276.895" stroke="none" fill="#3958b5" fill-rule="evenodd"/><path d="M 33.236 224.250 C 32.126 225.624, 30.378 234.874, 31.414 233.888 C 31.768 233.552, 32.394 231.302, 32.806 228.888 L 33.556 224.500 90.778 224.500 C 122.250 224.500, 148 224.162, 148 223.750 C 148 223.338, 122.405 223, 91.122 223 C 46.825 223, 34.022 223.276, 33.236 224.250 M 145.116 240.167 C 145.052 241.633, 144.438 243.060, 143.750 243.338 C 142.771 243.733, 142.778 243.859, 143.781 243.921 C 145.368 244.019, 146.325 241.718, 145.701 239.308 C 145.385 238.089, 145.194 238.369, 145.116 240.167 M 635.728 245.683 C 635.468 246.133, 635 248.750, 634.689 251.500 L 634.124 256.500 635.504 251.026 C 636.778 245.973, 636.873 243.705, 635.728 245.683 M 98.123 256 C 98.040 256.825, 97.723 258.625, 97.418 260 C 96.938 262.161, 97.016 262.259, 97.997 260.721 C 98.621 259.743, 98.938 257.943, 98.702 256.721 C 98.466 255.500, 98.205 255.175, 98.123 256 M 70.684 257.382 C 70.308 258.362, 70.029 259.914, 70.063 260.832 C 70.105 261.937, 70.453 261.685, 71.092 260.086 C 71.623 258.758, 71.902 257.206, 71.712 256.636 C 71.522 256.067, 71.059 256.403, 70.684 257.382 M 663 258.296 C 663 258.550, 665.117 260.493, 667.703 262.613 C 670.290 264.733, 672.084 265.945, 671.690 265.307 C 670.849 263.947, 663 257.614, 663 258.296 M 633 260.805 C 633 261.588, 628.705 262.031, 619.262 262.222 C 607.103 262.468, 605.486 262.701, 605.189 264.250 C 605.004 265.212, 605.322 266, 605.895 266 C 606.468 266, 606.678 265.325, 606.362 264.500 C 605.867 263.212, 607.702 263, 619.334 263 C 631.801 263, 635.605 262.271, 633.600 260.267 C 633.270 259.937, 633 260.179, 633 260.805 M 521 262.052 C 523.874 264.009, 528 266.048, 528 265.511 C 528 264.762, 521.727 261.005, 520.500 261.019 C 519.950 261.025, 520.175 261.490, 521 262.052 M 144.500 263.504 L 141.500 264.918 144.500 264.324 C 146.150 263.997, 148.175 263.355, 149 262.895 C 151.693 261.397, 147.875 261.913, 144.500 263.504 M 181.901 263.554 C 183.772 264.366, 185.522 264.811, 185.790 264.543 C 186.349 263.984, 181.465 261.980, 179.685 262.039 C 179.033 262.061, 180.031 262.743, 181.901 263.554 M 257 263.577 L 254.500 265.083 257 264.421 C 258.375 264.056, 260.175 263.376, 261 262.909 C 262.333 262.155, 262.333 262.061, 261 262.066 C 260.175 262.069, 258.375 262.749, 257 263.577 M 355.140 263.147 C 353.293 263.679, 351.975 264.308, 352.212 264.545 C 352.449 264.782, 354.636 264.351, 357.072 263.587 C 362.045 262.027, 360.364 261.644, 355.140 263.147 M 396 262.851 C 396.825 263.335, 398.850 264.022, 400.500 264.379 C 402.420 264.794, 402.960 264.711, 402 264.149 C 401.175 263.665, 399.150 262.978, 397.500 262.621 C 395.580 262.206, 395.040 262.289, 396 262.851 M 444.140 263.147 C 442.293 263.679, 440.968 264.301, 441.197 264.530 C 441.702 265.035, 449 263.092, 449 262.453 C 449 261.864, 448.206 261.977, 444.140 263.147 M 480.866 263.632 C 482.718 264.440, 484.468 264.866, 484.755 264.578 C 485.357 263.976, 480.455 261.960, 478.685 262.082 C 478.033 262.126, 479.015 262.824, 480.866 263.632 M 556.500 263.535 C 553.999 264.740, 553.916 264.878, 556 264.369 C 558.834 263.677, 562.018 262.053, 560.500 262.076 C 559.950 262.084, 558.150 262.740, 556.500 263.535 M 129.385 271.168 C 124.704 274.685, 119.973 279.288, 117.739 282.500 C 116.591 284.150, 118.318 282.762, 121.576 279.415 C 124.834 276.068, 128.850 272.369, 130.500 271.196 C 132.150 270.023, 133.223 269.049, 132.885 269.032 C 132.547 269.014, 130.972 269.975, 129.385 271.168 M 217.624 271.539 C 217.281 272.432, 217.056 275.039, 217.125 277.332 C 217.244 281.329, 217.282 281.274, 218.045 276.004 C 218.866 270.336, 218.712 268.702, 217.624 271.539 M 331.878 274.786 C 328.448 277.419, 325.424 280.227, 325.158 281.027 C 324.891 281.827, 326.180 280.974, 328.022 279.132 C 329.864 277.290, 333.087 274.647, 335.185 273.259 C 338.715 270.923, 339.670 270, 338.557 270 C 338.313 270, 335.307 272.154, 331.878 274.786 M 404.628 275.750 C 404.283 277.813, 403.745 280.625, 403.432 282 C 403.010 283.852, 403.115 284.111, 403.836 283 C 404.903 281.357, 406.524 272, 405.741 272 C 405.474 272, 404.973 273.688, 404.628 275.750 M 420.946 277.750 L 417.500 281.500 421.250 278.054 C 423.313 276.158, 425 274.471, 425 274.304 C 425 273.540, 424.154 274.260, 420.946 277.750 M 158.768 277.725 C 160.565 277.947, 163.265 277.943, 164.768 277.715 C 166.271 277.486, 164.800 277.304, 161.500 277.310 C 158.200 277.315, 156.971 277.502, 158.768 277.725 M 457.768 277.725 C 459.565 277.947, 462.265 277.943, 463.768 277.715 C 465.271 277.486, 463.800 277.304, 460.500 277.310 C 457.200 277.315, 455.971 277.502, 457.768 277.725 M 93.478 281.750 C 92.031 290.607, 91.952 291.588, 92.857 289.500 C 93.936 287.008, 95.307 278, 94.607 278 C 94.323 278, 93.815 279.688, 93.478 281.750 M 66.667 279.667 C 66.300 280.033, 66.052 281.946, 66.115 283.917 L 66.230 287.500 67.010 283.500 C 67.829 279.298, 67.763 278.570, 66.667 279.667 M 374.264 279.718 C 375.784 279.947, 378.034 279.941, 379.264 279.704 C 380.494 279.467, 379.250 279.279, 376.500 279.286 C 373.750 279.294, 372.744 279.488, 374.264 279.718 M 360.500 282.400 C 354.956 285.040, 350.886 287.919, 352.628 287.968 C 353.248 287.986, 354.296 287.349, 354.956 286.553 C 355.617 285.757, 358.260 284.332, 360.829 283.387 C 363.398 282.442, 365.928 281.294, 366.450 280.835 C 368.215 279.284, 365.598 279.973, 360.500 282.400 M 444 283.122 C 440.515 286.177, 440.514 286.181, 443.720 284.049 C 445.491 282.871, 447.205 281.478, 447.529 280.953 C 448.493 279.393, 447.693 279.884, 444 283.122 M 553.500 281.945 C 551.300 282.986, 549.783 283.875, 550.128 283.919 C 551.099 284.044, 558 281.035, 558 280.487 C 558 279.816, 557.997 279.817, 553.500 281.945 M 569.470 281.278 C 570.553 281.950, 572.760 283.850, 574.375 285.500 C 576.227 287.393, 576.918 287.758, 576.248 286.489 C 574.890 283.918, 572.054 281.477, 569.500 280.680 C 567.523 280.063, 567.523 280.070, 569.470 281.278 M 200.962 284.085 C 201.453 285.963, 202.097 288.400, 202.394 289.500 C 202.691 290.600, 202.701 289.475, 202.416 287 C 202.131 284.525, 201.486 282.088, 200.984 281.585 C 200.432 281.033, 200.424 282.023, 200.962 284.085 M 414.959 285.058 C 413.762 286.739, 412.949 288.282, 413.153 288.486 C 413.357 288.690, 414.535 287.314, 415.771 285.428 C 418.558 281.177, 417.927 280.889, 414.959 285.058 M 275.411 284.856 C 275.702 285.327, 276.416 286.964, 276.998 288.495 C 277.580 290.025, 278.302 291.032, 278.602 290.732 C 279.194 290.139, 276.288 284, 275.415 284 C 275.122 284, 275.120 284.385, 275.411 284.856 M 306.310 289.500 C 306.315 292.800, 306.502 294.029, 306.725 292.232 C 306.947 290.435, 306.943 287.735, 306.715 286.232 C 306.486 284.729, 306.304 286.200, 306.310 289.500 M 514.624 285.539 C 514.281 286.432, 514.041 288.139, 514.090 289.332 C 514.154 290.868, 514.462 290.521, 515.147 288.140 C 516.143 284.679, 515.734 282.645, 514.624 285.539 M 396 285.461 C 396 285.906, 397.183 287.367, 398.629 288.707 C 400.498 290.439, 401.567 290.833, 402.329 290.071 C 403.090 289.310, 403 289, 402.014 289 C 401.252 289, 399.587 288.022, 398.314 286.826 C 397.042 285.630, 396 285.016, 396 285.461 M 475.662 289.729 L 476.274 294.958 455.887 295.251 L 435.500 295.544 456.250 295.772 L 477 296 476.985 291.750 C 476.976 289.413, 476.538 286.825, 476.010 286 C 475.367 284.995, 475.253 286.225, 475.662 289.729 M 501.320 294 C 501.320 297.575, 501.502 299.038, 501.723 297.250 C 501.945 295.462, 501.945 292.538, 501.723 290.750 C 501.502 288.962, 501.320 290.425, 501.320 294 M 577.252 294.500 C 577.263 296.700, 577.468 297.482, 577.707 296.238 C 577.946 294.994, 577.937 293.194, 577.687 292.238 C 577.437 291.282, 577.241 292.300, 577.252 294.500 M 136.671 294.416 C 136.128 295.830, 138.310 296, 157.031 296 C 168.564 296, 178 295.663, 178.001 295.250 C 178.002 294.837, 169.152 294.631, 158.336 294.792 C 144.551 294.997, 138.462 294.747, 137.974 293.958 C 137.504 293.197, 137.081 293.346, 136.671 294.416 M 626.720 296.332 C 626.324 297.339, 626.029 299.139, 626.063 300.332 C 626.124 302.389, 626.177 302.375, 627.101 300.062 C 627.636 298.722, 627.932 296.922, 627.758 296.062 C 627.497 294.777, 627.313 294.825, 626.720 296.332 M 653.571 297.571 C 653.204 299.037, 653.128 300.461, 653.403 300.736 C 653.678 301.011, 654.204 300.037, 654.571 298.571 C 654.939 297.106, 655.015 295.682, 654.740 295.407 C 654.465 295.132, 653.939 296.106, 653.571 297.571 M 201.716 301.053 C 201.374 303.548, 200.772 306.431, 200.377 307.459 C 199.896 308.712, 200.027 309.102, 200.772 308.641 C 201.992 307.887, 203.468 299.905, 202.773 297.820 C 202.534 297.102, 202.058 298.557, 201.716 301.053 M 213.687 298.372 C 213.398 299.127, 212.904 301.939, 212.590 304.622 C 211.950 310.095, 213.263 307.077, 214.275 300.750 C 214.886 296.927, 214.634 295.906, 213.687 298.372 M 240.558 300.750 C 240.192 302.813, 239.671 305.400, 239.399 306.500 C 239.014 308.055, 239.112 308.167, 239.840 307 C 240.891 305.313, 242.437 297, 241.699 297 C 241.437 297, 240.924 298.688, 240.558 300.750 M 108.935 300.671 C 108.376 302.140, 108.050 304.016, 108.210 304.840 C 108.369 305.663, 109 304.461, 109.611 302.168 C 110.862 297.476, 110.475 296.620, 108.935 300.671 M 277.624 299.539 C 277.281 300.432, 277.041 302.139, 277.090 303.332 C 277.154 304.868, 277.462 304.521, 278.147 302.140 C 279.143 298.679, 278.734 296.645, 277.624 299.539 M 304.444 301.444 C 304.068 303.451, 303.985 305.318, 304.260 305.593 C 304.535 305.868, 305.068 304.451, 305.444 302.444 C 305.821 300.438, 305.904 298.571, 305.629 298.296 C 305.354 298.021, 304.821 299.438, 304.444 301.444 M 407.314 302.648 C 406.135 308.225, 406.481 322.276, 407.854 324.552 C 408.933 326.343, 408.990 326.298, 408.568 324 C 407.277 316.969, 407.106 311.892, 407.963 306.037 C 409.012 298.866, 408.586 296.636, 407.314 302.648 M 62.645 303.675 C 62.349 304.679, 61.872 307.300, 61.586 309.500 C 61.186 312.573, 61.392 312.232, 62.475 308.026 C 63.250 305.015, 63.727 302.393, 63.534 302.200 C 63.341 302.007, 62.941 302.671, 62.645 303.675 M 602.558 306.750 C 602.192 308.813, 601.642 311.400, 601.334 312.500 C 600.963 313.829, 601.109 314.165, 601.771 313.500 C 602.781 312.485, 604.499 303, 603.673 303 C 603.425 303, 602.924 304.688, 602.558 306.750 M 575.704 305.329 C 575.405 306.107, 574.912 308.939, 574.608 311.622 C 574.080 316.278, 574.118 316.227, 575.440 310.500 C 576.755 304.808, 576.885 302.251, 575.704 305.329 M 89.136 307.168 C 89.061 308.086, 88.709 309.661, 88.353 310.668 C 87.853 312.082, 87.987 312.241, 88.937 311.365 C 89.615 310.741, 89.968 309.166, 89.721 307.865 C 89.474 306.564, 89.211 306.251, 89.136 307.168 M 537.515 311.250 C 537.151 313.587, 536.640 316.400, 536.379 317.500 C 536.006 319.074, 536.107 319.180, 536.857 318 C 537.943 316.290, 539.501 307, 538.701 307 C 538.412 307, 537.878 308.913, 537.515 311.250 M 498.594 309.736 L 497.874 311.973 465.187 312.251 L 432.500 312.528 465.128 312.764 C 492.780 312.964, 497.941 312.776, 498.972 311.534 C 499.641 310.727, 499.992 309.490, 499.751 308.784 C 499.491 308.021, 499.021 308.408, 498.594 309.736 M 510.728 308.683 C 510.468 309.133, 510 311.750, 509.689 314.500 L 509.124 319.500 510.504 314.026 C 511.778 308.973, 511.873 306.705, 510.728 308.683 M 166.513 311.979 C 138.156 312.427, 133.511 312.711, 133.417 314 C 133.354 314.863, 133.486 314.969, 133.727 314.250 C 134.051 313.284, 141.622 313, 167.073 313 C 188.358 313, 200 312.646, 200 312 C 200 311.450, 199.887 311.103, 199.750 311.229 C 199.613 311.356, 184.656 311.693, 166.513 311.979 M 342 317.606 C 342 320.209, 351.349 329.984, 352.622 328.711 C 352.906 328.427, 351.818 327.415, 350.205 326.462 C 348.591 325.509, 346.085 322.900, 344.636 320.664 C 343.186 318.429, 342 317.052, 342 317.606 M 649.515 322.250 C 649.151 324.587, 648.640 327.400, 648.379 328.500 C 648.006 330.074, 648.107 330.180, 648.857 329 C 649.943 327.290, 651.501 318, 650.701 318 C 650.412 318, 649.878 319.913, 649.515 322.250 M 622.645 320.675 C 622.349 321.679, 621.872 324.300, 621.586 326.500 C 621.186 329.573, 621.392 329.232, 622.475 325.026 C 623.250 322.015, 623.727 319.393, 623.534 319.200 C 623.341 319.007, 622.941 319.671, 622.645 320.675 M 300.558 324.750 C 300.192 326.813, 299.671 329.400, 299.399 330.500 C 299.014 332.055, 299.112 332.167, 299.840 331 C 300.891 329.313, 302.437 321, 301.699 321 C 301.437 321, 300.924 322.688, 300.558 324.750 M 434.546 323.431 C 435.422 324.767, 437.345 326.619, 438.819 327.546 C 441.118 328.992, 441.037 328.796, 438.250 326.172 C 436.462 324.490, 435 322.637, 435 322.056 C 435 321.475, 434.540 321, 433.977 321 C 433.414 321, 433.671 322.094, 434.546 323.431 M 494.136 323 C 494.046 324.375, 493.741 326.625, 493.458 328 L 492.944 330.500 494.018 328.039 C 494.609 326.685, 494.914 324.435, 494.696 323.039 L 494.300 320.500 494.136 323 M 273.728 322.683 C 273.468 323.133, 273 325.750, 272.689 328.500 L 272.124 333.500 273.504 328.026 C 274.778 322.973, 274.873 320.705, 273.728 322.683 M 236.136 325.500 C 236.046 326.600, 235.723 328.625, 235.418 330 C 234.938 332.158, 235.017 332.257, 235.995 330.724 C 236.618 329.748, 236.942 327.723, 236.714 326.224 C 236.444 324.449, 236.243 324.196, 236.136 325.500 M 208.667 326.667 C 208.300 327.033, 208.039 328.496, 208.086 329.917 C 208.170 332.453, 208.188 332.447, 209.053 329.550 C 209.962 326.507, 209.828 325.506, 208.667 326.667 M 57.500 332 C 57.116 334.274, 57.026 336.360, 57.301 336.635 C 57.576 336.910, 58.116 335.274, 58.500 333 C 58.884 330.726, 58.974 328.640, 58.699 328.365 C 58.424 328.090, 57.884 329.726, 57.500 332 M 395.160 330.168 C 395.072 331.636, 394.709 333.661, 394.353 334.668 C 393.857 336.073, 393.990 336.238, 394.926 335.377 C 395.611 334.747, 395.965 332.773, 395.733 330.877 C 395.397 328.132, 395.290 327.999, 395.160 330.168 M 85.136 330.168 C 85.061 331.086, 84.709 332.661, 84.353 333.668 C 83.853 335.082, 83.987 335.241, 84.937 334.365 C 85.615 333.741, 85.968 332.166, 85.721 330.865 C 85.474 329.564, 85.211 329.251, 85.136 330.168 M 506.649 331.678 C 505.453 337.906, 504.802 343.471, 505.328 342.975 C 506.032 342.310, 508.082 329.749, 507.570 329.237 C 507.361 329.028, 506.947 330.127, 506.649 331.678 M 411.540 332.500 C 413.798 336.428, 416.796 339.703, 420.500 342.291 C 422.326 343.567, 421.544 342.432, 418.500 339.391 C 415.750 336.644, 412.671 333.294, 411.657 331.948 C 409.831 329.521, 409.830 329.526, 411.540 332.500 M 151 332.085 C 154.167 332.992, 163.572 332.980, 167.500 332.064 C 169.237 331.659, 165.869 331.366, 159.500 331.367 C 153.413 331.368, 149.617 331.689, 151 332.085 M 364.768 331.725 C 366.565 331.947, 369.265 331.943, 370.768 331.715 C 372.271 331.486, 370.800 331.304, 367.500 331.310 C 364.200 331.315, 362.971 331.502, 364.768 331.725 M 450 332.100 C 451.375 332.486, 454.975 332.801, 458 332.801 C 461.025 332.801, 464.625 332.486, 466 332.100 C 467.375 331.715, 463.775 331.400, 458 331.400 C 452.225 331.400, 448.625 331.715, 450 332.100 M 598.136 332.168 C 598.061 333.086, 597.709 334.661, 597.353 335.668 C 596.853 337.082, 596.987 337.241, 597.937 336.365 C 598.615 335.741, 598.968 334.166, 598.721 332.865 C 598.474 331.564, 598.211 331.251, 598.136 332.168 M 570.684 333.382 C 570.308 334.362, 570.029 335.914, 570.063 336.832 C 570.105 337.937, 570.453 337.685, 571.092 336.086 C 571.623 334.758, 571.902 333.206, 571.712 332.636 C 571.522 332.067, 571.059 332.403, 570.684 333.382 M 321.707 336.500 C 323.243 338.425, 324.926 340, 325.446 340 C 325.967 340, 324.866 338.425, 323 336.500 C 318.669 332.032, 318.142 332.032, 321.707 336.500 M 533.160 336.168 C 533.072 337.636, 532.709 339.661, 532.353 340.668 C 531.857 342.073, 531.990 342.238, 532.926 341.377 C 533.611 340.747, 533.965 338.773, 533.733 336.877 C 533.397 334.132, 533.290 333.999, 533.160 336.168 M 192.516 337.927 C 192.145 339.616, 190.877 341.673, 189.698 342.499 C 188.519 343.324, 188.073 344, 188.706 344 C 191.282 344, 195.345 337.011, 193.715 335.382 C 193.427 335.093, 192.887 336.239, 192.516 337.927 M 618.446 343.435 C 618.092 345.324, 618.098 347.349, 618.460 347.935 C 619.214 349.155, 644.616 349.453, 645.323 348.250 C 645.566 347.837, 646.015 345.925, 646.321 344 L 646.876 340.500 645.762 344.250 L 644.647 348 631.736 348 L 618.824 348 619.500 344 C 620.323 339.128, 619.352 338.608, 618.446 343.435 M 269.779 344.750 C 268.752 348.712, 269.688 349, 283.583 349 C 290.962 349, 297 348.663, 297.001 348.250 C 297.002 347.837, 291.039 347.500, 283.751 347.500 C 270.583 347.500, 270.502 347.486, 270.813 345.250 C 271.182 342.593, 270.433 342.231, 269.779 344.750 M 386 346.585 C 382.725 347.926, 382.692 347.981, 385.500 347.438 C 387.150 347.119, 388.928 346.440, 389.450 345.929 C 390.648 344.758, 390.303 344.823, 386 346.585 M 478.500 346.685 L 475.500 348.086 478.498 347.462 C 481.595 346.817, 482.638 346.262, 481.917 345.642 C 481.688 345.445, 480.150 345.914, 478.500 346.685 M 504.408 347.225 C 504.602 348.182, 507.996 348.500, 518 348.500 C 528.004 348.500, 531.398 348.182, 531.592 347.225 C 531.734 346.524, 531.621 346.411, 531.342 346.975 C 531.034 347.595, 525.767 348, 518 348 C 510.233 348, 504.966 347.595, 504.658 346.975 C 504.379 346.411, 504.266 346.524, 504.408 347.225 M 69 348 L 55.500 348.589 68.691 348.794 C 76.636 348.918, 82.128 348.602, 82.500 348 C 82.840 347.450, 82.979 347.092, 82.809 347.206 C 82.639 347.319, 76.425 347.676, 69 348 M 219 348 L 205.500 348.589 219.250 348.794 C 227.887 348.924, 233 348.628, 233 348 C 233 347.450, 232.887 347.092, 232.750 347.206 C 232.613 347.319, 226.425 347.676, 219 348 M 582 348 L 568.500 348.589 582.250 348.794 C 590.887 348.924, 596 348.628, 596 348 C 596 347.450, 595.888 347.092, 595.750 347.206 C 595.612 347.319, 589.425 347.676, 582 348 M 141.348 350.235 C 142.786 351.152, 164.881 351.105, 167.216 350.180 C 168.159 349.806, 162.466 349.500, 154.563 349.500 C 146.661 349.500, 140.714 349.831, 141.348 350.235 M 348.348 350.235 C 348.982 350.639, 354.225 350.969, 360 350.969 C 365.775 350.969, 371.020 350.639, 371.656 350.235 C 372.291 349.831, 367.048 349.500, 360.004 349.500 C 352.959 349.500, 347.714 349.831, 348.348 350.235 M 440.348 350.235 C 440.981 350.639, 446.675 350.969, 453 350.969 C 459.325 350.969, 465.020 350.639, 465.656 350.235 C 466.291 349.831, 460.598 349.500, 453.003 349.500 C 445.409 349.500, 439.714 349.831, 440.348 350.235" stroke="none" fill="#fbfbfb" fill-rule="evenodd"/></svg>